<svg xmlns="http://www.w3.org/2000/svg" viewBox="0 0 291.39 239.78"><defs><style>.cls-1{fill:#333;}</style></defs><title>Asset 7</title><g id="Layer_2" data-name="Layer 2"><g id="Layer_2-2" data-name="Layer 2"><path class="cls-1" d="M78.22,85.18a599.57,599.57,0,0,1,95.64-52.91c18.11-7.87,35.93-12.15,55.7-9.16,9,1.37,17.91,3.59,26.89,5.3,3.71.71,7.44,1.33,11.2,1.78,2.41.29,4.82.51,7.24.63.12,0,12.57.69,8.83,3.59a1.52,1.52,0,0,0,.36,2.74l5.41,1.54-1-1.85c-8.83,26.55-37,36.65-62,41.77-1.89.39-1.09,3.28.8,2.89,26.1-5.35,54.91-16.24,64.09-43.86a1.52,1.52,0,0,0-1-1.85l-5.41-1.54.36,2.74a4.66,4.66,0,0,0,.06-7.53c-1.87-1.54-4.51-1.47-6.77-1.54a123.82,123.82,0,0,1-15-1.31c-15.71-2.43-31.09-7.36-47.09-7.7S185.18,24,170.65,30.42c-15.26,6.75-30.22,14.22-44.86,22.23Q100.57,66.47,76.71,82.59c-1.59,1.07-.09,3.67,1.51,2.59Z"/><path class="cls-1" d="M212.08,74.83c-1.69,8.18-4.44,18.35-3.28,26.73,1.1,7.92,9.08,13.24,13.31,19.5,10.06,14.9,13.43,33.11,16.62,50.47.35,1.9,3.24,1.09,2.89-.8C238.76,155.1,235.7,139.05,228,125c-3.73-6.82-9.09-11.75-13.61-17.91-3.39-4.63-2.74-9.66-2.11-15s1.58-10.95,2.7-16.37c.39-1.88-2.5-2.69-2.89-.8Z"/><path class="cls-1" d="M223.64,83a67.15,67.15,0,0,1,17.48,39.07,172.17,172.17,0,0,1,.28,22.87c-.26,8-.83,15.87-3.2,23.55-.57,1.85,2.32,2.64,2.89.8,2.45-7.93,3-16.09,3.3-24.35.29-8.88.51-17.83-.73-26.66A69.43,69.43,0,0,0,225.76,80.9c-1.31-1.42-3.43.7-2.12,2.12Z"/><path class="cls-1" d="M229.55,79.47l12.71,23.8c4.14,7.76,8.18,15.48,10.3,24.07,4.11,16.65,2.38,34.09.74,51-.19,1.92,2.81,1.91,3,0,1.67-17.14,3.33-34.82-.85-51.75-4.25-17.23-15-33.07-23.3-48.59-.91-1.7-3.5-.19-2.59,1.51Z"/><path class="cls-1" d="M241.27,144.28a198.17,198.17,0,0,1,10.42,33.87c.4,1.89,3.29,1.09,2.89-.8a198.17,198.17,0,0,0-10.42-33.87c-.72-1.76-3.62-1-2.89.8Z"/><path class="cls-1" d="M210.55,79.91c-20,3.25-38.36,12-57.08,19.38a223.4,223.4,0,0,1-62.29,15c-1.91.17-1.93,3.17,0,3a223.89,223.89,0,0,0,61.43-14.5c19.31-7.53,38.11-16.69,58.74-20,1.9-.31,1.09-3.2-.8-2.89Z"/><path class="cls-1" d="M205.55,82.7c-4.39,6.59-7,13.95-9.88,21.28a81.9,81.9,0,0,1-13.21,23.28,96.37,96.37,0,0,1-18.85,17.09c-6.23,4.36-12.86,8.13-18.74,13-12.67,10.47-16.92,26.16-25.47,39.57-9.49,14.89-23.24,26.41-36.85,37.37-1.5,1.21.63,3.32,2.12,2.12,13-10.44,25.89-21.34,35.43-35.13,10-14.5,14.17-32,28.69-43.22,6.56-5,13.84-9.05,20.41-14.09a94.68,94.68,0,0,0,16.91-16.46A78.91,78.91,0,0,0,197,108.63c3.43-8.3,6.09-16.88,11.12-24.42,1.07-1.61-1.52-3.11-2.59-1.51Z"/><path class="cls-1" d="M88,117.08A185.75,185.75,0,0,1,80.69,237c-.73,1.78,2.17,2.56,2.89.8a188.43,188.43,0,0,0,7.35-121.48,1.5,1.5,0,0,0-2.89.8Z"/><path class="cls-1" d="M142,45.42c-5.42-17.07-12.46-35.61-30.8-42.12C100.82-.37,89-.39,78.18.46a124.81,124.81,0,0,0-34.6,7.86,1.53,1.53,0,0,0-.9,2.2c10.12,21.76,24.48,66.27,57,57.21a1.5,1.5,0,0,0-.8-2.89c-14.64,4.08-27.57-6.2-35-17.89S51.17,21.66,45.28,9l-.9,2.2c19.14-7.27,42.57-11.44,62.73-6,19.35,5.21,26.47,23.71,32,41,.58,1.83,3.48,1,2.89-.8Z"/><path class="cls-1" d="M100.25,68.63h.67a1.5,1.5,0,0,0,0-3h-.67a1.5,1.5,0,0,0,0,3Z"/><path class="cls-1" d="M77.16,82.77l-31-12.29c-7.73-3.07-17.22-8.7-25.74-5.6C14.62,67,11.15,72.71,8.91,78.19c-3.67,9-5.77,19-7.35,28.56a96.24,96.24,0,0,0-.88,28.42c1,7.21,2.51,15.12,8.54,19.85,3.56,2.79,8,4.53,12,6.52l15.08,7.41c8.5,4.18,17.25,9.73,26.5,12.08,18,4.56,27.76-12,32.07-26.82a1.5,1.5,0,0,0-2.89-.8c-3.92,13.48-12.58,29.25-29.19,24.48-8.07-2.32-15.7-7-23.2-10.67S24.34,159.79,16.75,156c-3.68-1.85-7.22-3.88-9.37-7.54C5.44,145.15,4.68,141,4,137.32a87.9,87.9,0,0,1,.13-27.92A181.12,181.12,0,0,1,9.57,85.55c1.81-6.22,4.32-13.71,10.3-17.13C28.13,63.71,41.19,71.7,49,74.82L76.36,85.66c1.79.71,2.57-2.19.8-2.89Z"/><path class="cls-1" d="M166.67,44.75A491.39,491.39,0,0,0,107.8,69.85c-4.63,2.34-3.41,9.75,1.43,11,27.63,7,52.41-8.95,79.17-12.35,7.57-1,7.85-11.31,0-12-23.56-2.06-50.59-2.82-67.8,16.41-4.14,4.62,0,11.12,5.84,10,16.92-3.14,32.68-10.07,48.28-17.11,7.8-3.53,15.58-7.11,23.58-10.18,8.48-3.25,17.9-7,27.11-5.34l-4.19-7.38c-1.14,3-8.81,4.77-11.42,5.85l-15.48,6.46L164.27,67.76l4.62,11A73.3,73.3,0,0,1,212.22,64L208,53.74c-15,12-33.38,18.86-51,25.91C138.22,87.14,119,94.47,98.85,96.88l3,11.18c22.22-17.09,48-30.94,76.53-32.39l-3-11.18L143.71,79.93c-8.84,4.31-17.48,8.21-23.46,16.34-2.46,3.35.3,7.65,3.59,8.81,9.26,3.27,19.25.1,28.09-3.09,10.32-3.72,20.28-8.46,30.3-12.89S202,80.39,211.88,76c8.54-3.79,16.85-8,23.36-14.83,2.41-2.54,2.45-7.78-1.21-9.42-15.23-6.81-31.82-3.89-47.53-.28-17,3.92-33.48,9.8-49.86,15.79-14.76,5.4-29.05,10.82-40.9,21.49-5.13,4.62-9.8,9.73-15,14.32A54.77,54.77,0,0,1,73,109c-.74.45-2.11.83-2.62,1.49l-.67.35,4.09,4.44c.33-.11,2-4.43,2.25-4.86C83.7,96.86,98.38,89,111.65,81.94c6.31-3.35,1.75-12.21-4.62-11A64.88,64.88,0,0,0,84.8,79.69c-5.78,3.65-15.65,9.87-15,17.75.73,8.93,12.57,9.32,19.28,10.08a92.35,92.35,0,0,0,27.84-1.33l-3.19-11.57c-15,2.93-30,6.18-43.42,13.83-4.35,2.48-3.65,9.81,1.43,11a105.1,105.1,0,0,0,54.44-2c6.21-1.91,5.42-12.24-1.6-11.79a67.19,67.19,0,0,1-14.15-.42v11.57l34.22-7.28c6.73-1.43,5-11.73-1.6-11.79-30-.27-57.4,12.81-83.68,25.83-4.34,2.15-3.68,10.24,1.43,11a154.79,154.79,0,0,0,46.64-.34c7.24-1.15,4.52-11.09-1.6-11.79a140.62,140.62,0,0,0-45.52,2.33c-7.06,1.51-4.71,11.18,1.6,11.79,20.8,2,43.74,3.77,64.2-1.52,16.63-4.3,32.61-16.16,35.71-34,.83-4.76-2.66-8.15-7.38-7.38A72.58,72.58,0,0,0,113.11,116c-4.39,4.73,1.61,13.74,7.27,9.42L165.62,90.9c6-4.54.79-14.43-6.06-10.36q-32.35,19.25-63.39,40.59c-4.45,3.06-3.4,11.72,3,11.18,13.43-1.12,25-7.32,35.7-15.2,11.63-8.57,22.75-17.92,33.61-27.44,5.07-4.44-1.65-13.34-7.27-9.42-8.45,5.89-16.65,12.16-24.47,18.86-6.51,5.57-15.83,11.91-17.88,20.72-1,4.33,2.84,8.73,7.38,7.38A150.4,150.4,0,0,0,206,69.89c3.54-5-3.32-11.22-8.21-8.21-15,9.25-30.08,18.73-42.35,31.56-4.52,4.73,1.46,13.44,7.27,9.42l25-17.3c7.37-5.09,14.68-10.2,23.57-12.12l-5.84-10a87.67,87.67,0,0,1-17.12,10.66c-4.46,2.15-3.58,10.11,1.43,11,12.12,2.08,22.86-2.23,33.46-7.75,11.32-5.89,22.57-11.94,33.85-17.91,4.27-2.26,3.73-10.14-1.43-11-20-3.2-40.89-5.36-61.16-3.44-16.94,1.61-34,6.64-45.74,19.65-5.2,5.77,2.68,13.58,8.49,8.49A174.83,174.83,0,0,1,204.8,43.08c6.9-2.9,4.55-13.51-3.19-11.57a292.91,292.91,0,0,0-65.28,25.05L143.6,66c6-5.57,13.49-8.52,21.08-11.12,9.06-3.1,18.18-6.07,27.27-9.1,6.11-2,5.5-12.2-1.6-11.79a110.77,110.77,0,0,0-70,30.13c-9.48,9.05-17.83,20.1-18.84,33.59-.53,7.16.78,14.64,2.49,21.57,1.65,6.67,3.78,14.54,7.78,20.23,8.46,12,24.29,1.37,33.12-4.54,11-7.36,20.77-16.42,29.77-26.09,4.56-4.9,8.95-10,13.27-15.08,3.92-4.63,10.09-9.88,9.54-16.53-.45-5.37-4.72-8.77-9.1-11.16a114.92,114.92,0,0,0-21.23-9.31c-16.29-5-31.81-.44-47.12,5.53-13.56,5.28-27.66,13.76-30.3,29.35-1.12,6.62,7,10.49,11,4.62s5.51-12.58,10.57-17.53c4.71-4.62,10.87-7.63,16.88-10.2,5.71-2.43,14-7.16,20.2-4.3,5,2.32,7.63,8.49,7.78,13.72.22,7.8-3.63,15.13-7.43,21.69-4,7-8.49,13.7-13.15,20.26-9,12.75-19,24.73-24,39.79h11.57c-6.73-16.91-13.62-47.26-38.1-41.11-4.2,1.05-9.28,4.24-13.7,3.54-3.25-.51-5.48-3.65-7.34-6.08-4.89-6.38-9.56-13.12-18.46-13.12a6.16,6.16,0,0,0-5.79,4.4c-7.24,21.87,14.26,43.07,36,34.87,4.23-1.59,5.91-6.52,2.65-10A208.21,208.21,0,0,0,56,111.46c-4.85-3.88-13.65,1.17-9.42,7.27,6.24,9,15.5,16.92,26.36,19.65,13.25,3.33,17.36-10.92,14.27-21.19S75.39,98.81,66.75,92.79c-9.4-6.55-21.29-11.28-32.62-7.11-5.1,1.88-6.28,10.24,0,11.57,17.25,3.67,34.7,7.5,49.35,17.84l4.62-11a189.74,189.74,0,0,1-37.16-9.63c-6.54-2.42-10.25,7.53-4.62,11a344.23,344.23,0,0,0,32.85,17.7c6.89,3.24,13-6.69,6.06-10.36l-22.62-12-1.43,11a161.42,161.42,0,0,1,25.59-8c5.19-1.17,5.66-8.39,1.43-11a75.08,75.08,0,0,0-26.47-10c-7.55-1.3-10.8,10.26-3.19,11.57a65.89,65.89,0,0,1,23.6,8.79l1.43-11a161.42,161.42,0,0,0-25.59,8c-4.4,1.79-6.43,8.3-1.43,11l22.62,12,6.06-10.36A344.23,344.23,0,0,1,52.38,95.1l-4.62,11a189.74,189.74,0,0,0,37.16,9.63c6.69,1,10.39-6.89,4.62-11-15.44-10.9-34-15.18-52.22-19.05V97.25c12.52-4.61,27.75,6.94,34.85,16.62A20.64,20.64,0,0,1,76,121.79c.23,1.15.81,3.73.08,4.78-.45.66-2.54-.57-3.74-1.1A36.91,36.91,0,0,1,57,112.67l-9.42,7.27a208.21,208.21,0,0,1,22.32,20.73l2.65-10c-13.27,5-25.77-6.45-21.25-20.11l-5.79,4.4c5.06,0,8.91,8.61,11.82,11.9,5.54,6.26,12.83,8.44,20.95,6.46,7.79-1.9,15.09-6.94,20.91,1.2s8.67,19.14,12.35,28.4c2.15,5.41,9.6,5.95,11.57,0,5.93-17.86,20.1-32.15,30.15-47.73,9.23-14.3,20.06-32.2,12-49.43-3.06-6.55-8.75-12.08-15.93-13.76-8.9-2.09-17.84,2.26-25.84,5.65-7.26,3.08-14.38,6.69-20.18,12.15-6.22,5.86-8.34,13.58-13,20.47l11,4.62c1.81-10.69,11-16.52,20.37-20.36,10.11-4.14,21.43-8.64,32.52-8A49.13,49.13,0,0,1,170,70.53c4.76,2,10.45,4.14,14.6,7.23,1.56,1.16.84-.16.58.68-.31,1-1.82,2.25-2.48,3q-2.15,2.56-4.31,5.11c-3.62,4.25-7.28,8.47-11.06,12.58a177.28,177.28,0,0,1-23.11,21.63,111.49,111.49,0,0,1-11.67,7.73A64.36,64.36,0,0,1,126,132c-2.47,1.06-3.75,1.76-5.13-.73-5.14-9.28-8.29-23-7.32-33.56s9-19.29,16.48-26.19A97.8,97.8,0,0,1,190.36,46l-1.6-11.79c-10.1,3.37-20.29,6.56-30.31,10.16-8.55,3.07-16.64,6.89-23.34,13.15-5.12,4.79,1.39,12.52,7.27,9.42A279.39,279.39,0,0,1,204.8,43.08l-3.19-11.57a192.45,192.45,0,0,0-52.84,32.93l8.49,8.49c10.27-11.39,25.4-15.33,40.23-16.38,18.26-1.29,37,.38,55,3.26l-1.43-11L222.18,64.11c-8.78,4.65-18.82,11-29.2,9.17l1.43,11A100.36,100.36,0,0,0,214,71.71c5-4.06-.54-11.17-5.84-10-9.26,2-17.22,7-24.93,12.29q-13.28,9.14-26.52,18.34l7.27,9.42c11.59-12.12,25.74-21,39.93-29.69l-8.21-8.21a137.18,137.18,0,0,1-72.6,51.81l7.38,7.38c.81-3.47,4.05-5.77,6.57-8.1q4.72-4.37,9.63-8.51c6.63-5.6,13.53-10.84,20.65-15.8L160,81.19c-9.68,8.48-19.56,16.82-29.85,24.56-9.13,6.87-19.29,13.59-31,14.56l3,11.18q31-21.33,63.39-40.59l-6.06-10.36L114.32,115l7.27,9.42a62.13,62.13,0,0,1,36-19.22l-7.38-7.38c-2.79,16-17.83,24.06-32.59,26.73-18,3.26-37.63,1.69-55.75-.05l1.6,11.79a130.6,130.6,0,0,1,42.33-1.9l-1.6-11.79A135.32,135.32,0,0,1,64,123l1.43,11c24.37-12.06,49.81-24.44,77.63-24.19L141.45,98l-34.22,7.28c-5.53,1.18-5.92,10.71,0,11.57a81.75,81.75,0,0,0,17.34.85L123,105.89a92.57,92.57,0,0,1-48.06,2l1.43,11c12.48-7.11,26.6-9.9,40.55-12.62,7.58-1.48,4.36-13-3.19-11.57A80.87,80.87,0,0,1,95.41,96a74.43,74.43,0,0,1-8.35-.76c-1.28-.2-3.18-1-4.47-.83L80.81,94q.21,4.61,1.83,2.52c1.83-.64,3.87-3.5,5.55-4.7A56.89,56.89,0,0,1,95,87.65a55.24,55.24,0,0,1,15.19-5.1l-4.62-11C92.46,78.55,79,86.29,69.8,98.24c-3.69,4.78-9.41,12.53-7.67,19,2.43,9.06,12.18,5.07,17.55,1.69,13.23-8.35,22-22,35.69-29.79,7.72-4.39,16.16-7.27,24.47-10.31,8.94-3.27,17.9-6.51,27-9.41a259.08,259.08,0,0,1,31.25-8.13c9.7-1.82,20.59-3.35,29.92.82l-1.21-9.42c-5.61,5.92-12.86,9.35-20.2,12.63-8.94,4-17.91,7.92-26.87,11.88s-17.56,8-26.52,11.55c-7.78,3.08-17.75,7.73-26.13,4.77l3.59,8.81c5.07-6.9,15.27-10.14,22.67-13.75l28.16-13.73c5.34-2.6,2.78-11.47-3-11.18-30.67,1.55-58.6,15.58-82.59,34-4,3.1-3.67,12,3,11.18,22-2.63,42.55-10.14,63-18.33,19.17-7.68,38.32-15.34,54.62-28.31,4.2-3.35.58-10.29-4.24-10.24a84.16,84.16,0,0,0-49.38,16.37c-2.43,1.8-3.7,4.54-2.45,7.49,1,2.47,4.31,4.63,7.08,3.47L204.8,63.74c9.62-4,23.91-6.9,28-17.66,1.08-2.85-1.22-6.83-4.19-7.38-18.48-3.39-37.12,6.45-53.53,13.83-16.83,7.56-33.56,15.42-51.83,18.8l5.84,10c15-16.7,39.05-14.67,59.31-12.89v-12c-13.14,1.67-25.52,5.85-38.19,9.54-12.34,3.59-25.05,6.45-37.79,3.24l1.43,11a467.12,467.12,0,0,1,56-23.9c7.24-2.54,4.12-14.14-3.19-11.57Z"/><path class="cls-1" d="M47.58,119.13c7.72,0,7.73-12,0-12s-7.73,12,0,12Z"/><path class="cls-1" d="M23.58,131.8c7.72,0,7.73-12,0-12s-7.73,12,0,12Z"/><path class="cls-1" d="M26.92,129.13c7.72,0,7.73-12,0-12s-7.73,12,0,12Z"/><path class="cls-1" d="M24,155c5.4,4.09,13.34,1.78,17-3.56,4.14-6,3.46-14.44,3-21.39a113,113,0,0,0-13.6-46.25c-2.31-4.25-10.1-3.75-11,1.43-3,18.26,1,37,12.15,51.86,2.37,3.15,8.34,4.59,10.36,0a113.63,113.63,0,0,0,9.9-49.64,6.05,6.05,0,0,0-11.18-3A56.29,56.29,0,0,0,31.73,117c.29,7.69,12.1,7.76,12,0l-.38-29.18a6.07,6.07,0,0,0-10.24-4.24,62.55,62.55,0,0,0-17.92,33.69c-1.65,9.51-3.13,30.67,11.85,29.79,13.07-.77,17.8-17.68,16.55-28.32-1.57-13.41-10.47-23.89-19.77-33a6.06,6.06,0,0,0-10,2.65,116.88,116.88,0,0,0-4.93,31.17c-.17,9.16-.14,20.27,6.37,27.51,4.92,5.47,15.14,8.54,20.5,1.94,3.05-3.77,2.13-8.42,1.22-12.76-1.16-5.53-2.38-11-3.57-16.57l-10,5.84c2.52,2.46,2.17,7.23,3.34,10.43a18.82,18.82,0,0,0,7.43,9.35c6.51,4.29,15.4,4.6,21.93.2a6.09,6.09,0,0,0,1.21-9.42c-6.5-6.69-15.64-7.88-24-4.21-3.55,1.56-3.77,7-1.21,9.42,8.12,7.72,18.6,10.67,29.58,8.88,4.32-.7,5.93-7.28,2.65-10-5.61-4.7-13.74-8.17-19.75-1.9-5.83,6.09-2.23,14.91,5.56,16.59,7.56,1.64,16.66,0,24-2.07A68.69,68.69,0,0,0,96.87,141.5c4.11-3.09,3.62-11.94-3-11.18a135.91,135.91,0,0,0-27.65,6c-5.35,1.77-6.06,10.13,0,11.57,8.72,2.08,17.13.6,25.93.42,7.13-.15,18.16,1.59,17.39,11-.63,7.73,11.28,7.61,12,0a38.69,38.69,0,0,0-4.95-22.74c-2.06-3.7-8.42-4.12-10.36,0a68,68,0,0,0-5.69,40.67c1.1,6.77,11.83,5,11.79-1.6a101.75,101.75,0,0,1,1.4-18.05H102.14a55.76,55.76,0,0,1,1.76,23.2c-.9,6.28,7.29,11,11,4.62,9.89-17.15,17.58-35.38,25.25-53.59l-11.57-3.19a217.22,217.22,0,0,1-22.26,48.88c-4.05,6.6,6.3,12.61,10.36,6.06A296.89,296.89,0,0,1,157.8,131.2c7.91-8,16.49-15.31,24.4-23.32a162.36,162.36,0,0,0,21.62-27.35l-11.18-3c-.93,18.88-16.3,33.15-30.6,43.56-15.26,11.11-31.34,21.07-42.5,36.68l11.18,3a53.13,53.13,0,0,1,1.07-15.89c1.15-4.92,3.87-9.5,4.6-14.47.77-5.21-1.3-10.22-2.82-15.11l-5.28-17c-1.3-4.19-2.49-8.56-6.55-10.89s-9.64-1.59-14.19-1.57h-6.7L103,87.66c.77-.28,2.38-4.79,3-5.72a25.62,25.62,0,0,1,10.77-8.31l-6.06-10.36A102,102,0,0,0,87.37,80.92c-5.44,5.49,3,14,8.49,8.49a90.37,90.37,0,0,1,20.94-15.77c6.92-3.8.84-13.42-6.06-10.36-8.8,3.89-16.57,11.82-19.33,21.2-1.36,4.62-.5,10.06,4.24,12.33s11.55,1,16.69,1c3.47,0,3-.64,4.1,2.77.93,3,1.85,6,2.78,9,1.7,5.46,4.12,11.13,5.14,16.76.91,5-3.25,11.29-4.33,16.26a64.37,64.37,0,0,0-1.31,18.22c.43,6.14,7.69,7.91,11.18,3,11.7-16.36,30.3-25.77,45.7-38.08,15.11-12.07,28.05-28.19,29-48.22.31-6.21-8.16-7.81-11.18-3-12.58,19.89-30.45,34-46.6,50.75a311.79,311.79,0,0,0-40.59,52.3l10.36,6.06a230.42,230.42,0,0,0,23.47-51.75c2.37-7.59-8.67-10.07-11.57-3.19-7.27,17.26-14.68,34.48-24,50.73l11,4.62a70.39,70.39,0,0,0-1.76-29.58c-1.51-5.33-10.52-6.09-11.57,0a119.83,119.83,0,0,0-1.83,21.24l11.79-1.6a53.78,53.78,0,0,1,4.48-31.43H106.21a27.59,27.59,0,0,1,3.31,16.68h12c.87-10.64-7.66-19.23-17.43-21.84-11.48-3.07-23.28,1.53-34.7-1.19v11.57a121,121,0,0,1,24.46-5.53l-3-11.18A59.84,59.84,0,0,1,70.1,141.42a54.58,54.58,0,0,1-11.47,1.81c-1.35.06-3.85-.48-5,0q-3-.78-.3,3.69a11.23,11.23,0,0,1,2.46,1.69l2.65-10a21.1,21.1,0,0,1-17.91-5.79l-1.21,9.42c3.4-1.49,7-.18,9.44,2.33L50,135.15c-3.69,2.49-9.2,1.92-11.58-2.23-1.31-2.29-1.29-5.34-2-7.86a17.33,17.33,0,0,0-4.58-8c-4.44-4.32-11.27.08-10,5.84l2,9.2c.47,2.18.54,7.53,2,9.2q2.46-.4,1.17-.55a3.31,3.31,0,0,1-1.35-.49,20.08,20.08,0,0,1-1.88-1.66c-1.86-2.4-2.27-5.86-2.54-8.77a101.64,101.64,0,0,1,4.18-38.23l-10,2.65c6,5.89,12.34,12.31,15.15,20.45a23.73,23.73,0,0,1,1.21,11.1c-.23,1.55-2.51,9.85-5.14,9.25-.44-.1-.36-8.62-.28-10a49.49,49.49,0,0,1,2.32-12.1,50.55,50.55,0,0,1,13-20.86L31.35,87.83,31.73,117h12A45,45,0,0,1,51,90.47l-11.18-3A100,100,0,0,1,31.52,131H41.88c-9.17-12.21-13.47-27.43-10.94-42.61L20,89.85a101.26,101.26,0,0,1,10.61,29.66,93.51,93.51,0,0,1,1.56,14.89c0,1.21.27,12-2.13,10.22C23.86,140,17.88,150.37,24,155Z"/><path class="cls-1" d="M77.2,26.77c7.77,15.56,25,18.63,37.57,28.78l5.84-10A207.65,207.65,0,0,1,87.39,28.18c-5-3.23-10-6.65-14.86-10.1C68,14.87,63.11,12,57.3,12.59c-4.53.49-7.47,4.71-5.18,9,5.22,9.86,10.77,20.11,19.34,27.52,9.35,8.09,21.77,12,33,16.75,5.9,2.51,12.41-4.18,7.27-9.42A276.47,276.47,0,0,0,80.52,29.2c-5.8-4.37-11.32,4.59-7.27,9.42,11,13.1,26,21.44,40.85,29.37l3-11.18c-6.4.33-10.19-5.65-13.71-10.14A53.13,53.13,0,0,0,91.3,35.18C82,28.87,70.87,25.69,60.17,22.7a6.05,6.05,0,0,0-7.38,7.38c2,6.77,6.37,12,10.61,17.53s8.08,11.86,14.55,14.92c12.6,6,29.57,4.31,39.6,15.22,5.24,5.7,13.71-2.81,8.49-8.49-9-9.81-22.86-12.06-35.19-15.21-3.28-.84-7-1.41-9.73-3.56-2.5-2-4.38-5.08-6.3-7.57C71,38,66.16,33,64.36,26.89L57,34.27C68,37.35,80.14,40.49,88.87,48.39c8.91,8.06,14.18,21.15,28.26,20.42,5.64-.29,8.56-8.23,3-11.18-14-7.48-28.08-15.13-38.42-27.49l-7.27,9.42a256.43,256.43,0,0,1,28.76,25.39l7.27-9.42c-10.05-4.28-22.12-7.71-30.55-14.87C72.08,34,67.23,24.53,62.48,15.56l-5.18,9C62.39,24,67.18,29,71.12,31.7c4.92,3.41,9.91,6.74,15,9.84a223.7,223.7,0,0,0,31.27,15.54c5.47,2.24,10.37-6.35,5.84-10C112.07,38,94.35,34.3,87.56,20.71c-3.45-6.91-13.81-.84-10.36,6.06Z"/><path class="cls-1" d="M66.26,20c15,.17,27.82,8.82,39.71,17.07,6.11,4.24,11.42,8.55,15.32,15,3.55,5.88,6,12.3,8.34,18.72,2.66,7.18,14.26,4.07,11.57-3.19-2.9-7.83-5.83-15.85-10.37-22.91s-10.55-12.2-17.42-17C99.26,17.77,84.1,8.21,66.26,8c-7.72-.09-7.73,11.91,0,12Z"/><path class="cls-1" d="M75.93,26.06c17.43-2.71,33.36,8.7,37.62,25.48l10-5.84c-12.14-15.46-27.7-28.58-47-33.86V23.41C84,20.63,91.62,20.71,99.4,21c3.37.14,6.38.42,9.2,2.44a48.79,48.79,0,0,1,7.45,7.34A99,99,0,0,1,136.8,67.95c2.26,7.36,13.84,4.22,11.57-3.19a112.48,112.48,0,0,0-26.1-44.89c-6.14-6.42-12.18-10.21-21.2-10.77-9.22-.58-18.9-.54-27.64,2.75-5.28,2-6.1,9.9,0,11.57,17.33,4.74,30.79,16.92,41.66,30.77,3.91,5,11.38-.5,10-5.84-6-23.62-28.61-37.55-52.38-33.86-7.61,1.18-4.38,12.75,3.19,11.57Z"/><path class="cls-1" d="M58.26,17l23.55,1.62v-12L67.09,6.51l1.6,11.79A51.81,51.81,0,0,0,80.22,15C85.85,12.68,86,2.62,78.62,3.22L65.07,4.32c-7.61.62-7.82,11.78,0,12a155.08,155.08,0,0,0,29.22-2.05c6.77-1.1,5-11.85-1.6-11.79l-12.32.12c-7.75.08-7.7,11.67,0,12a176.39,176.39,0,0,1,23.15,2.47l1.6-11.79A42.13,42.13,0,0,1,93.49,3.14l-1.6,11.79A24.19,24.19,0,0,1,105,18l4.62-11A68.8,68.8,0,0,0,95.07,4.25L96.66,16c6.2-1.54,13.23,2.13,18.42,5.31,4.74,2.92,7.51,8.31,9.91,13.18a65.57,65.57,0,0,1,6.07,35.19c-.71,7.69,11.29,7.64,12,0A76.61,76.61,0,0,0,133,24.05c-4-6.85-8.49-11.5-15.65-15.06C109.7,5.19,102,2.34,93.47,4.47c-6.92,1.72-4.85,11.23,1.6,11.79a53.78,53.78,0,0,1,11.4,2.32c6.49,2,10.58-7.67,4.62-11a36.29,36.29,0,0,0-19.2-4.68c-6.82.25-8.07,9.68-1.6,11.79a54.55,54.55,0,0,0,14.83,2.59c6.63.26,8.34-10.6,1.6-11.79a201,201,0,0,0-26.34-2.9v12l12.32-.12L91.1,2.7a138.27,138.27,0,0,1-26,1.62v12l13.55-1.1L77,3.44A51.81,51.81,0,0,1,65.5,6.72c-6.8,1.12-5,11.75,1.6,11.79l14.71.07c7.79,0,7.64-11.48,0-12L58.26,5c-7.71-.53-7.68,11.47,0,12Z"/><path class="cls-1" d="M66.58,6.66C60.81,9.11,54.25,9.83,50.94,16c-3,5.57-1.13,11.45,3.66,15.1,2.52,1.92,6.82.44,8.21-2.15,1.18-2.19.65-4.44,1.41-6.47s4-3.38,6-4.21C75.3,16,81,15.29,86.41,14.68,92.58,14,95.2,4.43,88,2.89a31.29,31.29,0,0,0-15.62.45l4.62,11a5.6,5.6,0,0,1,3.61-.6C88.18,15,91.42,3.48,83.82,2.14A19.46,19.46,0,0,0,71,3.94c-6.12,3.07-1.85,12.84,4.62,11a18,18,0,0,1,9.24-.45l1.6-11.79c-7.87.89-15.77,2-23,5.48a27.09,27.09,0,0,0-8.67,6.27,10.36,10.36,0,0,0-2.41,5.12,8,8,0,0,0-.15,2.87q0,2.31.23.42l8.21-2.15c1.55,1.18,1.85,0,3.9-.78,2.68-1,5.42-1.76,8.08-2.89,3-1.27,3.61-5.65,2.15-8.21C73,5.71,69.54,5.41,66.58,6.66Z"/><path class="cls-1" d="M145.33,63l22.31-16.38c5-3.68,2.32-13.47-4.62-11a96.53,96.53,0,0,0-25.75,13.81c-6,4.58-.23,15,6.06,10.36a133.84,133.84,0,0,1,86.14-25.81c7.91.41,7.4-11,0-12-9.24-1.23-34.23-8.16-33.22,8.87a6.21,6.21,0,0,0,4.4,5.79,94.28,94.28,0,0,0,35.59,3.66l-5.79-7.6L228,38.63c-1.53,3.69,2.28,7.6,5.79,7.6a64.5,64.5,0,0,1,20.8,3.38V38a115.69,115.69,0,0,1-21.11,2.52c-7.7.22-7.75,12,0,12,5.45,0,10.88.21,16.3.73,5.11.49,10.23,1.81,15.35,2,9,.34,17-6.18,15-15.67-.73-3.41-4.33-4.68-7.38-4.19C261,37.32,248,39.28,237,33.31l-3,11.18a108.17,108.17,0,0,1,32.37,1.41c7.5,1.5,10.75-9.64,3.19-11.57L228.82,23.88l-3.19,11.57,36.91,5.74,1.6-11.79a106.88,106.88,0,0,1-33.76-8.06l-3.19,11.57a173.68,173.68,0,0,0,51.07,9.28c7.72.24,7.72-11.76,0-12a162.4,162.4,0,0,1-47.88-8.85c-7.46-2.56-10.13,8.7-3.19,11.57a116.7,116.7,0,0,0,37,8.49c6.65.45,8.32-10.74,1.6-11.79l-36.91-5.74c-7.43-1.16-10.85,9.61-3.19,11.57L266.38,45.9l3.19-11.57A118.85,118.85,0,0,0,234,32.49c-5.49.56-8.7,8.08-3,11.18C245,51.35,260.78,49.44,276,47l-7.38-4.19c.18.83-14.64-1.08-15.92-1.22a166.15,166.15,0,0,0-19.17-1v12a133.82,133.82,0,0,0,24.3-2.95c6.13-1.31,5.26-9.82,0-11.57a75.27,75.27,0,0,0-24-3.81l5.79,7.6L242,36c1.43-3.45-2.21-7.92-5.79-7.6a84.93,84.93,0,0,1-32.4-3.23l4.4,5.79c.07,1.15,19.19,2.86,21.22,3.13v-12a144.33,144.33,0,0,0-92.2,27.45l6.06,10.36a86.36,86.36,0,0,1,22.88-12.6l-4.62-11L139.28,52.68c-6.16,4.52-.18,14.94,6.06,10.36Z"/><path class="cls-1" d="M260.2,56.65c-18.49,5.11-37.83,5.28-56.54,9.3-7.55,1.62-4.35,13.19,3.19,11.57,18.7-4,38-4.19,56.54-9.3,7.43-2.05,4.28-13.63-3.19-11.57Z"/><path class="cls-1" d="M20.38,90.75c-7.69,11.33-9.83,26.16-13.22,39.17H18.73c-2.49-7,0-13.84,1.84-20.68,2-7.37,3.71-14.79,5.22-22.27.93-4.59-4.22-10.12-8.81-6.78s-6.9,7.33-9,12.36c-2.52,6-5,12.12-6,18.59-1.84,11.66.33,26.36,7.94,35.67,4.89,6,13.34-2.55,8.49-8.49-5-6.11-5.9-18.27-4.57-25.69a66.36,66.36,0,0,1,3.89-12.4c1.23-3.13,2.46-7.61,5.32-9.69l-8.81-6.78C12.46,92.47,10.32,101,8,109.57c-2.08,7.77-3.66,15.73-.87,23.54,1.9,5.32,10,6.07,11.57,0,3.12-12,4.94-25.89,12-36.3,4.35-6.41-6-12.42-10.36-6.06Z"/><path class="cls-1" d="M114.14,167.7a130.69,130.69,0,0,0-9.5,19.78q-1.9,5-3.33,10.11c-.44,1.58-.77,3.2-1.27,4.76-.65,2-1.61,1.95-.05,2.66l1.21,9.42c9.52-11.59,8.14-29,8.7-43.17q1.05-26.4,0-52.81c-.28-7.7-12.29-7.74-12,0q.87,23.47.17,46.95-.37,11.73-1.14,23.45c-.38,5.67-.46,12.48-4.25,17.1-2.2,2.67-2.62,7.68,1.21,9.42,9.74,4.43,15.94-3.31,18.26-12a117.81,117.81,0,0,1,12.31-29.59c3.92-6.67-6.44-12.72-10.36-6.06Z"/><path class="cls-1" d="M93.16,144.5c.78,11.41,1.73,22.83,2.31,34.26.6,11.64-1.93,22.28-5.15,33.38-2.15,7.43,9.42,10.61,11.57,3.19,3.29-11.38,6.11-22.71,5.67-34.65s-1.58-24.14-2.4-36.18c-.52-7.66-12.53-7.72-12,0Z"/><path class="cls-1" d="M9.33,141.27A115.4,115.4,0,0,0,34.07,162.4c5.24,3.36,10.6,6.55,16,9.7,4.68,2.75,9.65,6.62,14.86,8.27,8.84,2.81,17.68-6.67,22.51-13a48.79,48.79,0,0,0,9.85-27.15c.39-6.91-9.91-7.94-11.79-1.6-1.23,4.16-4.43,7.43-7.3,10.57s-6.2,6.56-10.45,8c-9.36,3.13-19.18-5-26.06-10.26l-3,11.18a317.6,317.6,0,0,0,38.26,2.48c6.15,0,7.89-8,3-11.18a18.61,18.61,0,0,0-15.51-2.29c-2.87.86-4.81,3.39-7.46,4.28-2.5.84-7.29-1.24-9.67-1.85-11.81-3-24.24-7.4-30.67-18.53-2.65-4.59-9.45-3.41-11,1.43a15.34,15.34,0,0,0,1.23,12.16c3.09,6.1,12.85,1.85,11-4.62l-3.5-12c-1.81-6.23-12.49-5.37-11.79,1.6C3.59,140,5.72,151.33,15.87,156.73c5.17,2.75,11.2,3.74,16.67,5.72a102.55,102.55,0,0,1,17.71,8.61c6.64,4,12.68-6.39,6.06-10.36a121.88,121.88,0,0,0-28.77-12.42c-4-1.15-7.75-2.24-9.94-6s-2.64-8.49-3.06-12.72l-11.79,1.6,3.5,12,11-4.62a2.67,2.67,0,0,1,0-2.91l-11,1.43c6.67,11.55,18.33,18.12,30.73,22,6.27,2,14.25,5,20.89,4.31,6.08-.68,9.82-7.66,16-3.64l3-11.18a317.6,317.6,0,0,1-38.26-2.48c-6.7-.84-7,8.1-3,11.18,10.29,7.92,23.31,16,36.7,11,5.68-2.15,10.3-6.13,14.35-10.57C91,153,95.17,148.08,97,141.82l-11.79-1.6a36.34,36.34,0,0,1-7.73,20.45c-2.21,2.79-5.47,6.51-8.83,7.91-1.46.61,1.09,1-1-.08-2.25-1.2-4.44-2.57-6.64-3.85-15.8-9.2-31-18-43.24-31.87-5.11-5.81-13.57,2.71-8.49,8.49Z"/><path class="cls-1" d="M4.3,143.11c16,16.58,41.53,38.22,66.4,30.28,7.33-2.34,4.2-13.93-3.19-11.57-10.64,3.4-20.78-1-29.76-6.68a134.35,134.35,0,0,1-25-20.51c-5.38-5.56-13.86,2.93-8.49,8.49Z"/><path class="cls-1" d="M26.31,74.82c-11.4-1.11-17,9.61-19.8,18.88H18.08c-.67-3.3,1.45-5.59,4.26-6.83l-8.21-8.21-.39.52,3.59-2.76,1.8-.18L22.71,79q-.2,4.56,1.33,1.23l1.39-2.1,3.24-4.89H18.32c3.5,4.63,7.71,6,13.32,6.66a44.38,44.38,0,0,1,15.58,4.82C57.08,89.77,66.4,96.32,77.6,98l1.6-11.79C62.64,85,49,73.17,31.95,73.88c-4.79.2-7.15,4.88-5.18,9,8.09,17,33.79,15.88,49.45,15.78,5.68,0,8.53-8.44,3-11.18L54.92,75.38c-7.07-3.52-12.1,5.76-6.06,10.36A42,42,0,0,0,63.43,93c1.91.51,10.61.86,11.33,3l7.38-7.38c-8.87-1.49-18.18-2.88-26.27-7C49.09,78.08,43.34,72.82,36,70.27c-6.84-2.38-15.82-2.35-18.5,5.71-2.78,8.35-3.57,18.08-4.29,26.8-1.33,16.09-2.66,35.49,14.43,43.43,8,3.7,16.81,5.53,25.49,6.52,6.75.77,15.64.57,18.79-6.74,1.54-3.56.47-7.6-3.59-8.81a64.91,64.91,0,0,0-23.6-2.7c-3.16.25-6.49.56-8.77,3.07a6.88,6.88,0,0,0-.88,8.66c4.32,6.35,14.72.35,10.36-6.06l-.42-.62v6.06q-2.63,1.58.59.82l1.78-.09a57.51,57.51,0,0,1,6.23.14,54.49,54.49,0,0,1,11.51,2.29l-3.59-8.81c-1.32,3.05-12,.32-15.1-.33-5.76-1.22-12.72-2.64-17.41-6.43-5-4-4.44-11.46-4.42-17.23A160.91,160.91,0,0,1,26,95.3c.47-3.51,1.08-7,1.79-10.47.25-1.24,1.21-3.33,1-4.6q.83-2-.62-.22-2,1.34.58.85a54,54,0,0,1,14.37,7C54.19,95.13,66.11,98,79,100.17c4.16.7,9-2.64,7.38-7.38-2-5.93-6.77-8.71-12.67-10-7.08-1.55-12.83-2.91-18.75-7.41L48.86,85.74,73.19,97.86l3-11.18c-8.19.06-16.71.06-24.8-1.39-5.78-1-11.61-2.79-14.29-8.44l-5.18,9C48.5,85.19,62.71,97,79.19,98.17c6.65.46,8.32-10.8,1.6-11.79C71.07,85,63.1,79.55,54.59,75a68.11,68.11,0,0,0-12.9-5.5,45.79,45.79,0,0,0-7.31-1.37c-1.25-.15-4.91.06-5.71-1-2.75-3.64-7.68-4-10.36,0-3.09,4.66-9.57,11.28-6.42,17.28,2.83,5.38,9.46,4.49,12.59.25,4-5.41-3.44-10.33-8.21-8.21C8.37,80,4.84,88.68,6.51,96.89c1.23,6,10,5.37,11.57,0,1.25-4.17,2.75-10.61,8.23-10.07,7.68.75,7.63-11.26,0-12Z"/><path class="cls-1" d="M178.56,104.07c1.44,2.29,1.88,5.15,0,7.42l10,5.84a27.85,27.85,0,0,1,4.81-7.86l-10-5.84a48,48,0,0,1-26.16,29.76c-4.83,2.25-3.23,9.68,1.43,11,5.34,1.47,9.64-.58,12.88-4.8,4-5.25-3.47-10.47-8.21-8.21A105.53,105.53,0,0,0,117,174.86l10.36,6.06a4.56,4.56,0,0,1,2.91-2.51l-8.81-6.78a107,107,0,0,1-31.86,42c-6,4.86,2.53,13.3,8.49,8.49a118.82,118.82,0,0,0,35-47.31c2.27-5.48-4.7-8.56-8.81-6.78a14.63,14.63,0,0,0-7.21,6.82c-3.63,6.8,6.56,12.81,10.36,6.06a94.58,94.58,0,0,1,42.08-39.2l-8.21-8.21.67-.71,1.43,11A59.61,59.61,0,0,0,195,106.83c1.67-5.54-6.06-10.45-10-5.84A45.1,45.1,0,0,0,177,114.14c-2.18,5.48,6.33,10.38,10,5.84,5.21-6.4,6.34-14.8,1.84-22-4.09-6.53-14.48-.51-10.36,6.06Z"/><path class="cls-1" d="M272.49,41.47,255.91,55.39l9.42,7.27c3.54-6.53,11.09-19.1,4.5-25.81-3-3.06-8.28-4.68-12.25-6a66,66,0,0,0-14.68-2.95c-17.7-1.63-43.86,4.66-46.79,25.59-.45,3.23.79,6.4,4.19,7.38,2.8.8,6.93-1,7.38-4.19,1.92-13.7,18.6-17.1,30.2-17A52.87,52.87,0,0,1,256,43,30.57,30.57,0,0,1,260.68,45q-.34-2.11-.63-.32-.37,1.23-.79,2.43A64.15,64.15,0,0,1,255,56.6c-3.36,6.21,4.29,11.58,9.42,7.27L281,50c5.92-5-2.6-13.42-8.49-8.49Z"/><path class="cls-1" d="M52.87,83.24A67.84,67.84,0,0,0,29.69,66.9c-2.79-1.18-5.76-1-7.74,1.55-1.68,2.17-1.85,6,.47,7.88a18.19,18.19,0,0,1,6.85,12.39c.44,3.24,4.55,4.94,7.38,4.19,3.47-.92,4.63-4.19,4.19-7.38A27.83,27.83,0,0,0,30.9,67.84l-7.27,9.42A59.67,59.67,0,0,1,44.38,91.72c5.27,5.67,13.74-2.83,8.49-8.49Z"/><path class="cls-1" d="M213.83,77.42A114.59,114.59,0,0,0,211.95,100h12a14.65,14.65,0,0,0-2.66-8.23c-3-4.18-9.27-3.73-11,1.43C206.3,105.52,221,109,223.47,119l8.81-6.78c-3-1.69-7.23-5-7.54-8.81L223,107.67q-6.35-1.71-4.32,1.13.65,1.17,1.28,2.36,1.05,2,2.05,4,2.21,4.4,4.19,8.91a187.08,187.08,0,0,1,6.91,18.68c2.32,7.34,13.91,4.2,11.57-3.19a212.21,212.21,0,0,0-8.84-23.18q-2.57-5.71-5.51-11.25c-1.43-2.69-2.78-5.68-5.47-7.35-6.39-4-13.46,1.72-11.76,8.77,1.66,6.88,7.14,12.7,13.15,16.08a6.07,6.07,0,0,0,8.81-6.78,25.35,25.35,0,0,0-5.69-11.09c-1.7-1.89-8.37-5.51-7.45-8.3l-11,1.43a2.82,2.82,0,0,1,1,2.17c.41,7.66,12.15,7.77,12,0a98.29,98.29,0,0,1,1.45-19.43c1.36-7.55-10.21-10.79-11.57-3.19Z"/><path class="cls-1" d="M217.18,83.8a38.32,38.32,0,0,0,9.33,24.68c2.88,3.48,6.14,6.6,8.18,10.69,2.2,4.42,3.12,9.43,4.11,14.23,1.57,7.56,13.13,4.36,11.57-3.19-1.82-8.79-4.22-16.83-9.95-23.91S229.27,93.55,229.18,83.8c-.07-7.72-12.07-7.74-12,0Z"/><path class="cls-1" d="M216.41,76.6a75.7,75.7,0,0,0,9.32,22.7c3.44,5.6,13.2,2,11-4.62L233,83.76,221.47,87c3.33,9.75,11.36,16.53,15.33,25.94,4.38,10.38,6.11,22.09,8.63,33,1.74,7.52,13.31,4.34,11.57-3.19-2.54-11-4.43-22.5-8.63-33a57.65,57.65,0,0,0-7.05-12.82c-3-4.17-6.58-8.17-8.28-13.13-2.48-7.26-14-4.17-11.57,3.19l3.65,10.91,11-4.62A65.3,65.3,0,0,1,228,73.41c-1.73-7.52-13.31-4.34-11.57,3.19Z"/><path class="cls-1" d="M262.89,51.34c-1.54,2.81-4.69,3.84-7.5,5.05a40.49,40.49,0,0,0-9.95,5.86c-3.72,3-7.74,4-12.3,5.29-3.46.95-9,3.57-12.46,1.63-6.75-3.77-12.8,6.59-6.06,10.36,5,2.81,10.22,2.52,15.66,1.22,6.13-1.46,13.27-2.88,18.7-6.22,2.37-1.45,4.27-3.52,6.61-5a47.43,47.43,0,0,1,6.45-3c4.63-2,8.72-4.55,11.21-9.1,3.71-6.78-6.65-12.84-10.36-6.06Z"/><path class="cls-1" d="M271.31,45.56c-1.36,3.83-7.84,4.94-11.19,5.72a86.6,86.6,0,0,1-17.65,2c-11.85.29-23.7-.67-35.55-.07-7.68.39-7.73,12.39,0,12,14.92-.75,29.9,1,44.79-.48,11.55-1.17,26.74-3.47,31.17-16,2.59-7.29-9-10.43-11.57-3.19Z"/><path class="cls-1" d="M254.38,146.95a20,20,0,0,0-8.86-12.06,6.05,6.05,0,0,0-8.21,2.15,6.13,6.13,0,0,0,2.15,8.21l.85.56c-1-.65,0,0,.16.2s.48.48.71.73.72,1.13.17.18c.34.59.7,1.16,1,1.76-.4-.72-.11-.32.07.22s.24.81.34,1.23a6.06,6.06,0,0,0,7.38,4.19,6.12,6.12,0,0,0,4.19-7.38Z"/><path class="cls-1" d="M58.14,10,50,7.78l2,7.52c.17-.17,1-1,1.08-.87a1.09,1.09,0,0,1-1.17,0,1.79,1.79,0,0,1-1.06-.87,3.1,3.1,0,0,1,.74-3.48l-.81.39a7.18,7.18,0,0,0-2,1.36,6.45,6.45,0,0,0-1.77,4.78A5.38,5.38,0,0,0,51,21.55c2.28.84,4.93-.94,5.54-3.14a4.6,4.6,0,0,0-3.14-5.54l-.29-.11,2,1.16.38.45.61,2.27q0-.79-.21.33A2,2,0,0,1,55,18.49c.17,0,.65-.31.81-.39a6.94,6.94,0,0,0,2.62-2.19,6.22,6.22,0,0,0,0-7.16A7.1,7.1,0,0,0,52.23,5.6a10.2,10.2,0,0,0-6.57,3.34,4.54,4.54,0,0,0,2,7.52l8.11,2.26A4.5,4.5,0,1,0,58.14,10Z"/><path class="cls-1" d="M274,47.89a29,29,0,0,1,10.65-3l-3.89-6.77c-.57.76-1.32,2.33-2.15,2.84l2.27-.61c-1,0-2.55-1-3.45-1.38l-3.87-1.62c-2.24-.94-4.95,1-5.54,3.14-.71,2.59.89,4.59,3.14,5.54,2.93,1.23,6.47,3.47,9.71,3.32,3.7-.17,5.68-4.05,7.65-6.68s-.68-7-3.89-6.77a40.68,40.68,0,0,0-15.19,4.27c-5.17,2.61-.62,10.38,4.54,7.77Z"/><path class="cls-1" d="M270.91,45.91a14.46,14.46,0,0,0,13-9.53c1.66-4.11-4.76-7.78-7.52-4.38s-6.65,8.91-11.6,8.1c-2.42-.4-4.81.63-5.54,3.14-.62,2.14.75,5.14,3.14,5.54,8.88,1.45,15.09-3.93,20.35-10.41L275.23,34a5,5,0,0,1-4.31,2.92c-5.75.35-5.79,9.35,0,9Z"/><path class="cls-1" d="M269.27,44.49A92.44,92.44,0,0,1,283.76,38c3.53-1.23,4.61-6.21,1.07-8.22a13.41,13.41,0,0,0-15.68,1.63c-4.44,3.73,2,10.07,6.36,6.36a4.12,4.12,0,0,1,4.77-.22l1.07-8.22a106.39,106.39,0,0,0-16.64,7.43c-5.06,2.81-.53,10.59,4.54,7.77Z"/><path class="cls-1" d="M87.88,219.31a6.66,6.66,0,0,1-2.39,7.07c-3,2.47,1.29,6.69,4.24,4.24a12.56,12.56,0,0,0,3.93-12.91c-1-3.72-6.8-2.14-5.79,1.6Z"/><path class="cls-1" d="M100.92,220.8c3.86,0,3.87-6,0-6s-3.87,6,0,6Z"/><path class="cls-1" d="M99.44,214.6A54.08,54.08,0,0,0,88,224.2c-2.58,2.86,1.65,7.12,4.24,4.24a48.27,48.27,0,0,1,10.26-8.66c3.26-2,.26-7.24-3-5.18Z"/><path class="cls-1" d="M245,142a41.71,41.71,0,0,1,3.55,18.17c-.09,3.9,5.72,3.81,6,0l1-14.21h-6q.51,11.27.25,22.54c-.09,3.86,5.91,3.86,6,0q.26-11.28-.25-22.54c-.18-3.88-5.72-3.83-6,0l-1,14.21h6a48.56,48.56,0,0,0-4.36-21.19c-1.57-3.52-6.74-.47-5.18,3Z"/><path class="cls-1" d="M234.6,135.3l-.35,1.67,5.48.72a12.31,12.31,0,0,1-.64-4.31c.08-3.34-5.13-4.13-5.89-.8a24.94,24.94,0,0,0-.62,7.63c.29,3.8,6,3.91,6,0l0-8.15c0-3.26-5.38-4.23-5.89-.8a13.77,13.77,0,0,0,1.62,8.65c1.27,2.54,3.95,5.56,3.35,8.59l5-1.32a1.52,1.52,0,0,1-.79-2c1.57-3.49-3.6-6.55-5.18-3-1.49,3.3-1.14,6.82,1.73,9.27,1.57,1.34,4.55,1.07,5-1.32a13,13,0,0,0-1.43-8.6c-1.24-2.54-4-5.62-3.54-8.64l-5.89-.8,0,8.15h6a19.52,19.52,0,0,1,.4-6l-5.89-.8a17.44,17.44,0,0,0,.86,5.9,3,3,0,0,0,5.48.72,8.21,8.21,0,0,0,1-6.3c-.76-3.78-6.55-2.18-5.79,1.6Z"/><path class="cls-1" d="M237.25,145.13v7.33c0,3.86,6,3.87,6,0v-7.33c0-3.86-6-3.87-6,0Z"/><path class="cls-1" d="M203.26,80.48c-2.2.83-3.09,2.8-3.17,5.06,0,1.35.66,3.64-.46,4.68-1.36,1.26-2.78-.42-2.28-1.86.63-1.83-2.26-2.61-2.89-.8a4.49,4.49,0,0,0,5.39,5.87,4.65,4.65,0,0,0,3.24-3.81c.26-1.41-.82-5.58,1-6.25s1-3.57-.8-2.89Z"/><path class="cls-1" d="M207.22,79.15A11.24,11.24,0,0,0,201,83.74c-1,1.43,1.17,3,2.36,1.82l8.33-8.34a1.5,1.5,0,0,0-2.12-2.12l-8.33,8.34,2.36,1.82A8,8,0,0,1,208,82c1.85-.54,1.06-3.44-.8-2.89Z"/><path class="cls-1" d="M207,79.75A15,15,0,0,1,205,82.69a14.16,14.16,0,0,1-1.3,1.26l-.84.65q-.85.13-.51.64.14.57.22-.2a1.92,1.92,0,0,1,.28-.72,6.45,6.45,0,0,1,1.08-1.56,8.26,8.26,0,0,1,2.91-1.95l-2.05-2.05-4.29,6.1c-1,1.38,1.27,3.13,2.36,1.82q4.6-5.54,9.51-10.79c1.32-1.41-.8-3.53-2.12-2.12q-4.91,5.25-9.51,10.79L203,86.38l4.29-6.1c1-1.38-.84-2.57-2.05-2.05-2.62,1.12-7.92,5.78-5.29,9.06,2.94,3.65,8.41-3.83,9.63-6,.94-1.69-1.65-3.2-2.59-1.51Z"/><path class="cls-1" d="M115.17,65.29q19.48,5.17,39.28,8.95c1.31.25,2.75-1.48,1.46-2.51-10.72-8.56-20.57-18.53-33.79-23.15-1.83-.64-2.61,2.26-.8,2.89C134,55.91,143.5,65.64,153.79,73.85l1.46-2.51Q135.45,67.57,116,62.4a1.5,1.5,0,0,0-.8,2.89Z"/><path class="cls-1" d="M118.7,50.67A43.11,43.11,0,0,1,132.27,74.5L134.77,73a190,190,0,0,1-29.31-31.8c-1.12-1.53-3.7-.1-2.59,1.51a145.83,145.83,0,0,0,24.68,27.67A1.51,1.51,0,0,0,130.06,69a63.52,63.52,0,0,0-13.95-30.24c-1.08-1.3-3.31.41-2.36,1.82l16,23.67,2.36-1.82a113.47,113.47,0,0,0-16.23-13.62c-1.38-1-3.16,1.3-1.82,2.36a136.48,136.48,0,0,1,20.77,20.18c1.24,1.49,3.33-.64,2.12-2.12a78.65,78.65,0,0,0-20.25-17.61l-1.51,2.59,22.24,12.71a1.5,1.5,0,0,0,1.51-2.59L113.38,48.42c-1.65-1-3.12,1.53-1.51,2.59q13.29,8.76,25.64,18.78a1.5,1.5,0,0,0,2.12-2.12,67.4,67.4,0,0,0-22.24-18.3l-1.16,2.74a192,192,0,0,1,25.85,12.28,1.51,1.51,0,0,0,2.05-2.05,40.71,40.71,0,0,0-16.62-15.27l-.76,2.8a31.3,31.3,0,0,1,17.06,7.86l2.12-2.12a53.82,53.82,0,0,0-20.57-10,1.51,1.51,0,0,0-1.16,2.74,77.92,77.92,0,0,1,16.88,16.78,1.5,1.5,0,0,0,2.59-1.51,28.59,28.59,0,0,0-13.27-13.71c-1.44-.73-3.17,1.18-1.82,2.36q8.84,7.71,16.86,16.25a1.51,1.51,0,0,0,2.36-1.82,75.23,75.23,0,0,0-25.7-25.09l-1.51,2.59A89.31,89.31,0,0,1,150,64.54l2.12-2.12C141.56,52.75,129,46,116.13,39.77a1.5,1.5,0,0,0-1.51,2.59l48.54,32.86c1.19.81,2.41-.52,2.2-1.69a25.38,25.38,0,0,0-4.27-10.44l-1.69,2.2a277.75,277.75,0,0,0,34.9,11.36c1.58.4,2.76-2,1.16-2.74L156.17,56c-1.47-.67-3.11,1.08-1.82,2.36,5.16,5.08,12.93,13.72,6.81,21-2.35,2.8-5.81,4.83-8.71,7L142.25,94l-38.43,28.8,1.82,2.36L144,80c1.24-1.45-.72-3.49-2.12-2.12l-79.27,78L64.77,158a244.82,244.82,0,0,1,50.12-45.74l-1.82-2.36L89,129.16,91.31,131c3.47-7.89,10.65-12.84,17.34-17.84,7.08-5.29,14.3-10.38,21.61-15.33,14.64-9.92,29.63-19.28,44.63-28.65a1.5,1.5,0,0,0-1.51-2.59L107,95.7l1.51,2.59c41.29-25.38,86.88-42.15,132.21-58.68l-1.16-2.74A229.05,229.05,0,0,0,181.48,79a1.5,1.5,0,0,0,2.12,2.12,226.46,226.46,0,0,1,57.47-41.69c1.49-.76.45-3.33-1.16-2.74C194.34,53.34,148.48,70.19,107,95.7c-1.68,1-.22,3.35,1.51,2.59L174.9,69.16l-1.51-2.59c-16.06,10-32.13,20.07-47.76,30.78-7.8,5.35-15.51,10.86-23,16.63-5.61,4.32-11,8.87-13.89,15.49a1.51,1.51,0,0,0,2.36,1.82L115.19,112c1.32-1.06-.42-3.32-1.82-2.36a247.59,247.59,0,0,0-50.73,46.21c-1.21,1.46.72,3.5,2.12,2.12L144,80l-2.12-2.12L103.52,123c-1,1.2.36,3.45,1.82,2.36l49.41-37c5-3.71,11.37-7.42,11.67-14.34s-5.28-13.19-9.95-17.78l-1.82,2.36L193.95,76.5l1.16-2.74A277.75,277.75,0,0,1,160.2,62.4c-1.2-.48-2.41,1.17-1.69,2.2a23.63,23.63,0,0,1,4,9.72l2.2-1.69L116.13,39.77l-1.51,2.59c12.62,6.09,25,12.68,35.43,22.19a1.5,1.5,0,0,0,2.12-2.12,91.34,91.34,0,0,0-30-20.78c-1.72-.74-3.23,1.58-1.51,2.59a71.92,71.92,0,0,1,24.62,24l2.36-1.82q-8-8.55-16.86-16.25l-1.82,2.36a26,26,0,0,1,12.19,12.64l2.59-1.51a82.76,82.76,0,0,0-18-17.86l-1.16,2.74a50.44,50.44,0,0,1,19.24,9.19c1.48,1.15,3.6-.8,2.12-2.12a34.81,34.81,0,0,0-19.18-8.74c-1.49-.19-2,2.16-.76,2.8a37.8,37.8,0,0,1,15.54,14.19l2.05-2.05A197.35,197.35,0,0,0,117,49.22c-1.58-.61-2.66,2-1.16,2.74a65.52,65.52,0,0,1,21.63,17.83l2.12-2.12Q127,57.4,113.38,48.42L111.86,51l25.53,15.88,1.51-2.59L116.66,51.59a1.5,1.5,0,0,0-1.51,2.59,76.13,76.13,0,0,1,19.65,17.14l2.12-2.12A136.48,136.48,0,0,0,116.15,49l-1.82,2.36A109.32,109.32,0,0,1,130,64.52c1.17,1.18,3.33-.38,2.36-1.82L116.34,39,114,40.84a60.67,60.67,0,0,1,13.17,28.92l2.51-1.46a142.77,142.77,0,0,1-24.21-27.06l-2.59,1.51a193.29,193.29,0,0,0,29.78,32.4,1.51,1.51,0,0,0,2.51-1.46,45.83,45.83,0,0,0-14.34-25.15c-1.43-1.29-3.56.82-2.12,2.12Z"/><path class="cls-1" d="M236.85,137.14a97.43,97.43,0,0,0,1,22.33c.3,1.9,3.19,1.09,2.89-.8a94,94,0,0,1-.9-21.53c.14-1.93-2.86-1.92-3,0Z"/><path class="cls-1" d="M235.4,152a35.22,35.22,0,0,1,3.25,6.94,1.51,1.51,0,0,0,2.89,0,23.13,23.13,0,0,0,.71-10.22c-.28-1.9-3.17-1.09-2.89.8a19.65,19.65,0,0,1-.71,8.63h2.89a38.91,38.91,0,0,0-3.56-7.66c-1-1.65-3.59-.14-2.59,1.51Z"/><path class="cls-1" d="M251.36,171.14l.2,4.29a1.51,1.51,0,0,0,2.95.4,18.87,18.87,0,0,0,.14-9.23,1.51,1.51,0,0,0-2.51-.66c-1.38,1.51-2.82,5.1-.46,6.47,2.13,1.24,3.81-1.75,1.93-3.19-1.53-1.17-3,1.43-1.51,2.59l.18.14-.74-1.3,0-.27.9-.69-.26.07,1.16.15c-.21-.12.76-1.69.91-1.85l-2.51-.66a15.54,15.54,0,0,1-.14,7.64l2.95.4-.2-4.29c-.09-1.92-3.09-1.93-3,0Z"/><path class="cls-1" d="M237.42,155.13l-.21,8.21a1.51,1.51,0,0,0,2.95.4,55.68,55.68,0,0,0,.72-21.28c-.22-1.42-2.08-1.27-2.74-.36a11.13,11.13,0,0,0-1.74,10,1.5,1.5,0,0,0,2.89-.8,8.39,8.39,0,0,1,1.44-7.69l-2.74-.36a51.65,51.65,0,0,1-.72,19.69l2.95.4.21-8.21c.05-1.93-2.95-1.93-3,0Z"/><path class="cls-1" d="M81.6,239.6c16.17-10.42,22.86-27.27,30.93-43.92.63-1.3-1.31-2.44-1.94-1.14-7.87,16.23-14.32,32.93-30.13,43.12-1.21.78-.09,2.73,1.14,1.94Z"/><path class="cls-1" d="M236.73,138.83l-2.33-14.47-2.17.6a111.22,111.22,0,0,1,7.13,26.54c.2,1.43,2.37.82,2.17-.6a111.22,111.22,0,0,0-7.13-26.54,1.13,1.13,0,0,0-2.17.6l2.33,14.47c.23,1.43,2.4.82,2.17-.6Z"/><path class="cls-1" d="M240.92,171.59a1.13,1.13,0,0,0,0-2.25,1.13,1.13,0,0,0,0,2.25Z"/><path class="cls-1" d="M242.13,172.12l6.76-38.65c.25-1.42-1.92-2-2.17-.6L240,171.52c-.25,1.42,1.92,2,2.17.6Z"/></g></g></svg>