<svg xmlns="http://www.w3.org/2000/svg" viewBox="0 0 277.41 228.66"><defs><style>.cls-1{fill:#2a2723;}</style></defs><title>sidebarlogoblackAsset 6</title><g id="Layer_2" data-name="Layer 2"><g id="Layer_2-2" data-name="Layer 2"><path class="cls-1" d="M74.54,81.57c29-19.57,59.85-37,92.05-50.8,17.41-7.48,34.39-11.09,53.28-8,8.23,1.33,16.33,3.33,24.52,4.88,3.63.69,7.28,1.28,11,1.71,2.06.24,4.12.43,6.19.53q1.77.09,3.55.1,3.26-.44,4.9,3.18a1.52,1.52,0,0,0,.36,2.74l5.14,1.46-1-1.85C266,60.73,239.24,70.31,215.51,75.18c-1.89.39-1.09,3.28.8,2.89,24.88-5.11,52.27-15.48,61-41.79a1.52,1.52,0,0,0-1-1.85L271.15,33l.36,2.74a4.51,4.51,0,0,0,.22-7.17c-1.6-1.41-3.9-1.51-5.9-1.59-4.34-.18-8.61-.36-12.92-1-15.05-2.09-29.7-6.87-44.94-7.56s-29.82,4.05-43.73,10.1C149.45,35,135,42.18,120.82,49.9Q96.24,63.29,73,79c-1.59,1.07-.09,3.67,1.51,2.59Z"/><path class="cls-1" d="M201.8,71.63c-1.61,7.81-4.22,17.47-3.12,25.47,1,7.49,8.46,12.41,12.48,18.28,9.73,14.2,12.95,31.69,16,48.3.35,1.9,3.24,1.09,2.89-.8-2.74-14.89-5.64-30.18-13-43.6a63.67,63.67,0,0,0-5.41-8.3c-2.47-3.2-5.72-5.9-8-9.26-2.85-4.27-2.13-9-1.57-13.75.61-5.23,1.5-10.41,2.57-15.56.39-1.88-2.5-2.69-2.89-.8Z"/><path class="cls-1" d="M212.82,79.5a63.83,63.83,0,0,1,16.69,38c1.2,13.89,1.27,29.86-2.85,43.25-.57,1.85,2.32,2.64,2.89.8,2.33-7.56,2.89-15.32,3.15-23.19.26-8.15.48-16.36-.57-24.47a66.36,66.36,0,0,0-17.18-36.55c-1.31-1.42-3.43.7-2.12,2.12Z"/><path class="cls-1" d="M218.44,76.11c7.83,14.67,18.13,29.73,22,46,3.73,15.7,2.13,32.08.58,48-.19,1.92,2.81,1.91,3,0,1.57-16.15,3.13-32.78-.68-48.75-4-16.62-14.34-31.83-22.31-46.76-.91-1.7-3.5-.19-2.59,1.51Z"/><path class="cls-1" d="M229.58,137.76A189.11,189.11,0,0,1,239.49,170c.4,1.89,3.29,1.09,2.89-.8A189.11,189.11,0,0,0,232.47,137c-.72-1.76-3.62-1-2.89.8Z"/><path class="cls-1" d="M200.39,76.42c-19.18,3.12-36.71,11.5-54.64,18.57a212.07,212.07,0,0,1-58.92,14.19c-1.91.17-1.93,3.17,0,3a212.65,212.65,0,0,0,58.05-13.64c18.52-7.19,36.52-16,56.31-19.22,1.9-.31,1.09-3.2-.8-2.89Z"/><path class="cls-1" d="M195.6,79.1c-4.24,6.38-6.77,13.48-9.53,20.57A76.92,76.92,0,0,1,173.21,122a92.06,92.06,0,0,1-17.5,15.76c-6,4.23-12.5,7.88-18.17,12.63-11.85,10-15.91,24.84-24,37.49-9,14.13-22.08,25.06-35,35.46-1.5,1.21.63,3.32,2.12,2.12,12.29-9.89,24.54-20.23,33.61-33.28,9.39-13.5,13.32-30.15,26.66-40.72,6.41-5.08,13.65-9,20.14-13.95a90,90,0,0,0,16.25-15.86c9.75-12.45,12.22-28.06,20.84-41,1.07-1.61-1.52-3.12-2.59-1.51Z"/><path class="cls-1" d="M83.77,111.87a176.77,176.77,0,0,1-7,114c-.73,1.78,2.17,2.56,2.89.8a179.45,179.45,0,0,0,7-115.63,1.5,1.5,0,0,0-2.89.8Z"/><path class="cls-1" d="M135.24,43.65C130,27.09,123.08,9.22,105.12,3.25,85.18-3.37,60.63,1,41.52,8.29a1.53,1.53,0,0,0-.9,2.2C50.28,31.24,63.92,73.55,95,65a1.5,1.5,0,0,0-.8-2.89c-13.84,3.83-26-5.8-33.16-16.84C53.77,34,48.84,21.07,43.22,9l-.9,2.2c18-6.84,39.82-10.72,58.86-5.94S127,27.63,132.35,44.45c.58,1.83,3.48,1,2.89-.8Z"/><path class="cls-1" d="M95.46,65.83h.63a1.5,1.5,0,0,0,0-3h-.63a1.5,1.5,0,1,0,0,3Z"/><path class="cls-1" d="M73.51,79.13l-29-11.53C37.19,64.72,28.11,59.27,20,61.91c-5.74,1.87-9.19,7.29-11.41,12.58-3.47,8.28-5.41,17.58-6.94,26.4A93.51,93.51,0,0,0,.6,128.64c.89,7,2.37,14.79,8.22,19.37,3.21,2.52,7.19,4.11,10.82,5.89l15.1,7.43C43,165.42,51.69,171,60.83,173c16.68,3.67,25.65-12.19,29.61-25.81a1.5,1.5,0,0,0-2.89-.8c-2.14,7.34-5.24,15.3-11.32,20.3-9.28,7.65-20.1,1.81-29.32-2.72L18.49,150c-4.44-2.19-9.08-4.18-11.56-8.76-2.56-4.73-3.29-11-3.71-16.23-.82-10.27.56-20.59,2.8-30.6,1.87-8.35,3.59-18.78,9.24-25.56,7.6-9.12,19.69-1.82,28.41,1.64L72.71,82c1.79.71,2.57-2.19.8-2.89Z"/><path class="cls-1" d="M158.58,42.75A468.62,468.62,0,0,0,102.5,66.66c-4.63,2.34-3.41,9.75,1.43,11,26.35,6.61,49.9-8.48,75.41-11.74,7.57-1,7.85-11.31,0-12-22.52-2-48.27-2.64-64.72,15.7-4.14,4.62,0,11.12,5.84,10,16.24-3,31.34-9.69,46.31-16.45,7.48-3.38,14.94-6.81,22.61-9.73,7.83-3,16.59-6.44,25.1-4.88l-4.19-7.38c-1,2.75-8.54,4.48-10.91,5.47l-14.36,6-28.72,12,4.62,11a69.62,69.62,0,0,1,41.08-14l-4.24-10.24c-14.34,11.4-31.87,18-48.71,24.69-17.71,7.07-35.87,14-54.92,16.27l3,11.18c21.12-16.23,45.59-29.39,72.68-30.78l-3-11.18L136.92,76.13c-8.55,4.17-16.87,7.93-22.67,15.78-2.46,3.33.3,7.68,3.59,8.81,8.89,3.08,18.4.13,26.88-2.94,9.57-3.46,18.81-7.84,28.11-11.95q14.52-6.42,29-12.84c8.14-3.62,16-7.6,22.25-14.14,2.41-2.54,2.45-7.78-1.21-9.42-13.57-6.07-28-4-42.15-1-15.49,3.3-30.52,8.42-45.39,13.81-13.59,4.92-27.9,9.37-39.46,18.35C90.53,84.73,85.85,89.63,81,94.35c-2.23,2.16-4.49,4.31-6.91,6.25-1.75,1.4-6.06,5.28-8.34,5.17L70,107.52c1.48,1.25.08,2.16,1.48.43a20.35,20.35,0,0,0,1.38-2.6,38.42,38.42,0,0,1,3.25-4.8,56,56,0,0,1,9-8.77c6.56-5.18,14-9.21,21.37-13.12,6.31-3.35,1.76-12.21-4.62-11a61.84,61.84,0,0,0-22.07,8.87C74.35,80.13,65.58,85.83,66.2,93.2c.71,8.53,11.77,9.06,18.22,9.8a89.23,89.23,0,0,0,27-1.23L108.2,90.2C93.88,93,79.61,96.1,66.81,103.39c-4.35,2.47-3.65,9.82,1.43,11a100.55,100.55,0,0,0,52-1.86c6.21-1.91,5.42-12.23-1.6-11.79a64.5,64.5,0,0,1-13.38-.39V111.9L137.78,105c6.73-1.43,5.05-11.73-1.6-11.79-28.6-.24-54.71,12.21-79.78,24.62-4.33,2.15-3.68,10.24,1.43,11a148,148,0,0,0,44.53-.33c7.24-1.15,4.52-11.09-1.6-11.79a134.28,134.28,0,0,0-43.39,2.23c-7.06,1.5-4.71,11.18,1.6,11.79,19.92,1.91,42,3.65,61.56-1.56,15.77-4.19,30.83-15.54,33.79-32.42.83-4.76-2.66-8.16-7.38-7.38a69.37,69.37,0,0,0-39.46,21.3c-4.39,4.72,1.61,13.74,7.27,9.42l43-32.82c6-4.54.79-14.43-6.06-10.36Q121,95.15,91.44,115.46c-4.45,3.06-3.41,11.73,3,11.18,13-1.1,24.07-7.07,34.38-14.7,11-8.13,21.5-17,31.78-26,5.07-4.44-1.65-13.34-7.27-9.42-7.9,5.5-15.56,11.35-22.88,17.6-6.44,5.49-15.41,11.6-17.55,20.24-1.07,4.33,2.88,8.72,7.38,7.38A143.5,143.5,0,0,0,196.37,67.1c3.54-5-3.32-11.22-8.21-8.21C173.84,67.71,159.5,76.75,147.8,89c-4.53,4.73,1.47,13.44,7.27,9.42L178.81,82c7-4.85,13.94-9.7,22.41-11.54l-5.84-10a83.65,83.65,0,0,1-16.23,10.1c-4.45,2.15-3.59,10.11,1.43,11,11.59,2,21.82-2.08,32-7.35,10.81-5.61,21.53-11.39,32.3-17.09,4.27-2.26,3.73-10.14-1.43-11-19.21-3.06-39.24-5.16-58.68-3.24-16.08,1.58-32.18,6.41-43.32,18.74-5.21,5.76,2.68,13.58,8.49,8.49A166.07,166.07,0,0,1,195,41.73c6.9-2.9,4.55-13.52-3.19-11.57A279.23,279.23,0,0,0,129.65,54l7.27,9.42c5.79-5.4,13.14-8.2,20.53-10.71,8.43-2.86,16.89-5.64,25.34-8.45,6.11-2,5.5-12.2-1.6-11.79a105.64,105.64,0,0,0-67.69,29.6c-8.69,8.52-16.2,18.81-17.13,31.31-.48,6.46.65,13.15,2.1,19.43,1.53,6.62,3.63,14.23,7.36,20,8.11,12.51,24,1.86,32.76-4.06,10.43-7.06,19.69-15.69,28.23-24.91C171,99.41,175,94.8,178.9,90.15c3.56-4.2,9.27-9.07,9.45-15,.17-5.71-4.31-9.53-8.88-12a112.21,112.21,0,0,0-19.64-8.69c-15.9-5-31-.69-46,5.21-12.88,5.06-26.16,13.18-28.67,28-1.12,6.6,7,10.52,11,4.62s5.5-12.51,10.75-17.34c4.27-3.92,9.71-6.56,15-8.83s13.61-7,19.42-4.1c4.84,2.39,7.09,8.43,7,13.52-.09,7.08-3.54,13.67-7,19.65-4,6.82-8.33,13.41-12.91,19.83-8.53,12-17.8,23.24-22.5,37.37h11.57c-6.4-16.06-13-45.06-36.29-39.39-4.1,1-9,4.09-13.33,3.42-3.06-.48-5.18-3.67-6.91-5.94-4.66-6.1-9.15-12.29-17.59-12.32a6.16,6.16,0,0,0-5.79,4.4c-7,21,13.7,41.37,34.62,33.54,4.24-1.59,5.91-6.53,2.65-10A198.84,198.84,0,0,0,53.6,106.3c-4.84-3.88-13.65,1.18-9.42,7.27,6,8.71,15.37,16.84,26.07,19.06,12.34,2.55,15.9-11,13.2-20.42C80.52,102,72,94.26,63.61,88.4c-9-6.25-20.34-10.65-31.14-6.71-5.11,1.87-6.27,10.24,0,11.57,16.4,3.49,33,7.13,46.89,16.95l4.62-11a181,181,0,0,1-35.36-9.16c-6.54-2.42-10.25,7.53-4.62,11a328.44,328.44,0,0,0,31.26,16.84c6.89,3.24,13-6.69,6.06-10.36L59.8,96.07l-1.43,11a154.38,154.38,0,0,1,24.35-7.65c5.19-1.17,5.66-8.39,1.43-11A71.89,71.89,0,0,0,58.9,78.87c-7.55-1.3-10.8,10.26-3.19,11.57A62.76,62.76,0,0,1,78.1,98.78l1.43-11a154.38,154.38,0,0,0-24.35,7.65c-4.4,1.79-6.43,8.3-1.43,11l21.52,11.46,6.06-10.36A328.44,328.44,0,0,1,50.06,90.69l-4.62,11a181,181,0,0,0,35.36,9.16c6.69,1,10.4-6.9,4.62-11C70.7,89.47,53,85.38,35.66,81.69V93.26c11.84-4.33,26,6.56,32.77,15.63a19.12,19.12,0,0,1,3.77,7.83c.19,1,.63,3.14,0,4.09q-.11,1.19-.42-.21a20.62,20.62,0,0,1-2.21-.82,34.7,34.7,0,0,1-15.05-12.27l-9.42,7.27A198.84,198.84,0,0,1,66.35,134.5l2.65-10c-12.45,4.66-24.09-6-19.86-18.78l-5.79,4.4c4.65,0,8.3,8.13,11,11.19a19.42,19.42,0,0,0,20,6.32c7.33-1.73,14.35-6.74,19.85,1s8.18,18.11,11.68,26.9c2.16,5.41,9.59,5.95,11.57,0,5.76-17.32,19.64-31.21,29.33-46.39,8.6-13.47,18.18-30,10.84-46.08-2.91-6.38-8.4-11.76-15.35-13.43-8.17-2-16.29,1.8-23.66,4.88-6.84,2.85-13.48,6.09-19.15,10.94C92.72,71.23,90.53,79,85.78,86.16l11,4.62c1.68-9.9,10-15.32,18.69-19,9.67-4.08,20.75-8.44,31.41-7.82a46.77,46.77,0,0,1,14.89,3.83c2.32,1,4.58,2.06,6.83,3.17,2.1,1,5.74,2.11,7.31,3.9.28.32.4-1-.14.45a14.75,14.75,0,0,1-2.12,2.53q-2.4,2.86-4.81,5.7c-3.23,3.79-6.51,7.55-9.89,11.21a171.23,171.23,0,0,1-21.06,19.83,105.36,105.36,0,0,1-12.24,8.14,58.21,58.21,0,0,1-5.82,3c-3,1.28-3.65,1.21-5-1.7-4.29-9.2-7.69-21.42-6.28-31.62,1.28-9.26,8.12-16.82,14.65-23a92.85,92.85,0,0,1,58-25l-1.6-11.79c-9.47,3.16-19,6.17-28.4,9.51-8.35,3-16.23,6.64-22.78,12.74-5.13,4.78,1.4,12.52,7.27,9.42A265.71,265.71,0,0,1,195,41.73l-3.19-11.57a183.7,183.7,0,0,0-50.41,31.41l8.49,8.49c9.7-10.73,23.89-14.47,37.88-15.49,17.41-1.26,35.25.33,52.44,3.07l-1.43-11L211.51,61.11c-8.33,4.41-17.88,10.46-27.74,8.79l1.43,11a96.5,96.5,0,0,0,18.66-12c5-4-.54-11.18-5.84-10-8.82,1.92-16.4,6.63-23.74,11.69Q161.63,79.27,149,88l7.27,9.42c11-11.51,24.45-19.9,37.93-28.2L186,61a130.28,130.28,0,0,1-68.9,49.17l7.38,7.38c.86-3.47,4.43-6,7-8.3q4.36-4,8.9-7.82c6.13-5.15,12.5-10,19.06-14.54l-7.27-9.42c-9.08,8-18.34,15.76-28,23-8.74,6.61-18.48,13.14-29.7,14.09l3,11.18Q127,105.52,157.81,87.2l-6.06-10.36-43,32.82,7.27,9.42a58.91,58.91,0,0,1,34.16-18.21l-7.38-7.38c-2.64,15.08-16.75,22.69-30.68,25.21-17.18,3.11-35.83,1.62-53.1,0l1.6,11.79a124.26,124.26,0,0,1,40.2-1.8l-1.6-11.79a128.53,128.53,0,0,1-38.15.33l1.43,11c23.15-11.46,47.3-23.2,73.72-23l-1.6-11.79L102,100.32c-5.53,1.18-5.92,10.71,0,11.57a79.4,79.4,0,0,0,16.57.81L117,100.93a88,88,0,0,1-45.57,1.86l1.43,11c11.86-6.75,25.26-9.39,38.52-12,7.58-1.48,4.36-13-3.19-11.57a76.59,76.59,0,0,1-16.52,1.34,69.24,69.24,0,0,1-9.28-.83A22.39,22.39,0,0,0,78.82,90L77,89.63q.15,5.06,1.89,2.86c1.76-.66,4-3.53,5.56-4.66a54.31,54.31,0,0,1,6.15-3.73A52.38,52.38,0,0,1,105,79.27l-4.62-11C87.84,75,75,82.38,66.2,93.82c-3.64,4.71-9.35,12.55-7.06,18.86,3,8.34,12,4.33,17.24,1,13-8.38,21.67-21.83,35.48-29.15,7.39-3.91,15.36-6.58,23.19-9.44,8.46-3.09,17-6.13,25.55-8.83a239.51,239.51,0,0,1,28.82-7.34c8.91-1.63,18.89-2.92,27.43.9l-1.21-9.42C210.32,56,203.5,59.2,196.55,62.31c-8.69,3.89-17.42,7.7-26.13,11.55-8.2,3.63-16.35,7.45-24.69,10.75-7.33,2.9-16.83,7.27-24.71,4.54L124.61,98c4.86-6.57,14.8-9.73,21.89-13.18l26.37-12.86c5.34-2.6,2.78-11.48-3-11.18C140.59,62.24,114,75.57,91.11,93.16c-4,3.09-3.67,12,3,11.18C115,101.84,134.54,94.74,154,87c18.36-7.35,36.67-14.67,52.29-27.09,4.2-3.34.58-10.29-4.24-10.24a80.47,80.47,0,0,0-47.14,15.62c-2.43,1.8-3.7,4.54-2.45,7.49,1,2.47,4.31,4.63,7.08,3.47l35.9-15c9.2-3.84,22.56-6.56,26.47-16.85,1.08-2.85-1.22-6.83-4.19-7.38-17.48-3.21-35.07,6-50.59,12.94C150.9,57.19,134.84,64.78,117.27,68l5.84,10c14.19-15.82,37-13.86,56.23-12.18v-12c-12.49,1.6-24.27,5.55-36.31,9.05-11.72,3.41-23.8,6.15-35.91,3.12l1.43,11a444.28,444.28,0,0,1,53.22-22.71c7.24-2.54,4.12-14.14-3.19-11.57Z"/><path class="cls-1" d="M45.35,114.1c7.72,0,7.73-12,0-12s-7.73,12,0,12Z"/><path class="cls-1" d="M22.51,126.15c7.72,0,7.73-12,0-12s-7.73,12,0,12Z"/><path class="cls-1" d="M25.68,123.62c7.72,0,7.73-12,0-12s-7.73,12,0,12Z"/><path class="cls-1" d="M22.73,148.17c4.83,3.66,11.77,2,15.64-2.27,5-5.55,4.28-14.52,3.83-21.4A107.88,107.88,0,0,0,29.19,80c-2.31-4.25-10.11-3.75-11,1.43-2.9,17.45.9,35.33,11.59,49.57,2.36,3.15,8.34,4.59,10.36,0a108.72,108.72,0,0,0,9.46-47.38,6.05,6.05,0,0,0-11.18-3A53.94,53.94,0,0,0,30,111.79c.28,7.69,12.1,7.76,12,0L41.61,84a6.07,6.07,0,0,0-10.24-4.24,59.9,59.9,0,0,0-17.24,32.86c-1.51,9.25-2.64,28.28,11.36,28C38.1,140.41,43,124,41.89,113.82c-1.42-13-9.94-23.15-19-32a6.06,6.06,0,0,0-10,2.65,111.82,111.82,0,0,0-4.69,29.29c-.2,8.8-.21,19.47,5.89,26.5,4.76,5.5,14.84,8.73,20.18,2.14,2.76-3.41,2.2-7.63,1.38-11.61-1.13-5.53-2.37-11-3.56-16.54l-10,5.84c2.44,2.41,2.13,7.38,3.4,10.52a18.09,18.09,0,0,0,7.2,8.55,19.4,19.4,0,0,0,20.86,0,6.09,6.09,0,0,0,1.21-9.42c-6.28-6.47-15.11-7.59-23.18-4.05-3.54,1.56-3.77,7-1.21,9.42,7.83,7.43,17.85,10.22,28.43,8.52,4.32-.7,5.93-7.28,2.65-10-5.47-4.57-13.4-7.86-19.21-1.81C36.81,137.46,39.69,146,47,148s16.51.11,23.5-1.84A65.69,65.69,0,0,0,92.4,135.34c4.11-3.09,3.62-11.94-3-11.18A129.68,129.68,0,0,0,63,129.83c-5.33,1.77-6.07,10.14,0,11.57,8.63,2,16.88.47,25.59.4,6.48-.05,16.11,1.8,15.42,10.22-.63,7.73,11.28,7.61,12,0a37.09,37.09,0,0,0-4.75-21.78c-2.06-3.7-8.42-4.12-10.36,0a65.17,65.17,0,0,0-5.44,38.93c1.09,6.78,11.83,5,11.79-1.6a97.34,97.34,0,0,1,1.32-17.1H97a52.9,52.9,0,0,1,1.67,21.92c-.89,6.28,7.29,11,11,4.62,9.42-16.34,16.75-33.71,24.06-51.07l-11.57-3.19a206.82,206.82,0,0,1-21.15,46.45c-4,6.61,6.3,12.61,10.36,6.06a282.4,282.4,0,0,1,39.32-50c7.65-7.72,16-14.75,23.55-22.52a155.44,155.44,0,0,0,20.09-25.55l-11.18-3c-.9,17.95-15.56,31.45-29.16,41.33-14.52,10.55-29.74,20-40.36,34.87l11.18,3c-.6-8.79,1.1-16.25,4.14-24.43s-.5-15.89-3-23.91c-1.93-6.22-3.16-16.74-8.71-21-2.73-2.09-6-2.31-9.32-2.31-3.92,0-9.58,1.09-13.22-.41l3.59,2.76c-.8-1.08,3.87-6.76,4.66-7.6a25.21,25.21,0,0,1,8.45-5.76L105.29,60.4A97.29,97.29,0,0,0,83,77.24c-5.44,5.49,3,14,8.49,8.49a85.7,85.7,0,0,1,19.87-15c6.91-3.8.84-13.43-6.06-10.36-8.42,3.75-15.9,11.35-18.52,20.34-1.32,4.53-.49,9.55,4,11.9S102,93.8,107,93.79c.78,0,2.35-.31,3.08,0-.8-.35,0,.65.3,1.63.87,2.75,1.71,5.51,2.56,8.27,1.72,5.54,4.18,11.3,5.21,17,.84,4.68-3,10.46-4.07,15.08a61.46,61.46,0,0,0-1.3,17.65c.42,6.14,7.69,7.9,11.18,3,11.17-15.59,28.94-24.54,43.61-36.31,14.38-11.53,26.59-26.89,27.55-46,.31-6.21-8.16-7.8-11.18-3-12,18.89-28.92,32.31-44.26,48.2a297.31,297.31,0,0,0-38.7,49.85l10.36,6.06A220,220,0,0,0,133.68,126c2.37-7.59-8.67-10.07-11.57-3.19-6.91,16.4-14,32.76-22.85,48.2l11,4.62a67.52,67.52,0,0,0-1.67-28.3C107,142,98,141.21,97,147.29a115.56,115.56,0,0,0-1.75,20.29L107,166a50.92,50.92,0,0,1,4.23-29.68H100.88A26,26,0,0,1,104,152h12c.81-10-6.93-18.06-16-20.82-11.14-3.39-22.67,1.24-33.81-1.37V141.4a114.79,114.79,0,0,1,23.19-5.25l-3-11.18a56.72,56.72,0,0,1-19.77,9.78A51.31,51.31,0,0,1,56,136.43c-1.17.06-3.84-.48-4.92,0q-3-.72-.44,4.05A10.36,10.36,0,0,1,53,142.08l2.65-10a19.8,19.8,0,0,1-16.75-5.44L37.65,136c3.11-1.36,6.42-.11,8.63,2.18l1.21-9.42c-3.38,2.26-8.35,1.81-10.58-1.95-1.28-2.15-1.28-5.16-1.94-7.53a16.64,16.64,0,0,0-4.41-7.7c-4.42-4.37-11.26.12-10,5.84l2.09,9.73.84,3.89L23.9,133q-.37,2.84,1.24,1.54,1.45-.39.42-.52a3.39,3.39,0,0,1-1.52-.73,7,7,0,0,1-1.74-2.09c-1.4-2.34-1.65-5.42-1.85-8.07a97.74,97.74,0,0,1,4-35.48l-10,2.65c5.7,5.59,11.71,11.68,14.36,19.4a22.42,22.42,0,0,1,1.19,9.9c-.15,1.25-2.27,9.2-4,8.88-1-.19-.68-7.92-.56-9.57a47.06,47.06,0,0,1,2.1-10.76A47.91,47.91,0,0,1,39.85,88.26L29.61,84,30,111.79H42a42.61,42.61,0,0,1,6.84-25.11l-11.18-3A95.08,95.08,0,0,1,29.81,125H40.18C31.5,113.42,27.41,99,29.8,84.66l-11,1.43a96.18,96.18,0,0,1,10,27.68,88.6,88.6,0,0,1,1.56,14.28c0,1.39.05,11-1.58,9.76-6.16-4.66-12.14,5.75-6.06,10.36Z"/><path class="cls-1" d="M73.28,26.07c7.45,14.82,23.83,17.78,35.79,27.44l5.84-10A197.46,197.46,0,0,1,83.37,27c-4.55-2.91-9-6-13.41-9.09-4.67-3.28-9.42-6.35-15.37-5.79-4.55.43-7.44,4.75-5.18,9,4.95,9.34,10.2,19.07,18.29,26.11,9,7.8,20.83,11.53,31.6,16.12,5.9,2.51,12.41-4.18,7.27-9.42A264.15,264.15,0,0,0,76.83,28c-5.8-4.37-11.32,4.59-7.27,9.42C80,49.88,94.34,57.84,108.49,65.4l3-11.18c-5.74.29-9.21-4.89-12.37-9A52.85,52.85,0,0,0,87.42,33.89c-8.91-6.18-19.7-9.24-30-12.12-4.32-1.21-8.71,3-7.38,7.38,2.13,7,6.82,12.44,11.21,18.16C65.38,52.72,69,58.13,75.52,60.8c11.66,4.76,27.13,4,36.19,13.83,5.24,5.7,13.71-2.81,8.49-8.49C112,57.2,99.62,54.92,88.35,52.05c-2.94-.75-6.15-1.26-8.9-2.58s-4.33-3.64-6.11-5.94c-4.14-5.33-9.77-11-11.76-17.58l-7.38,7.38c10.68,3,22.35,6,30.68,13.77s13.38,19.78,26.64,19.1c5.64-.29,8.56-8.23,3-11.18C101.23,47.92,87.89,40.66,78,28.92l-7.27,9.42A244,244,0,0,1,98.09,62.46L105.36,53c-9.58-4.08-21.15-7.36-29.17-14.24-7.37-6.33-11.94-15.23-16.41-23.68l-5.18,9c4.94-.47,9.88,4.58,13.74,7.24,4.44,3.07,8.94,6.05,13.56,8.85a213.69,213.69,0,0,0,29.82,14.82c5.47,2.24,10.38-6.36,5.84-10-10.64-8.59-27.45-12.14-33.92-25-3.47-6.9-13.82-.83-10.36,6.06Z"/><path class="cls-1" d="M63.11,19.77c14.19.17,26.33,8.36,37.59,16.17,5.48,3.8,10.4,7.63,14,13.35s6.06,12.19,8.43,18.58c2.66,7.18,14.26,4.07,11.57-3.19s-5.45-14.81-9.64-21.45c-4.43-7-10.21-12-16.94-16.71C94.6,17.07,80.16,8,63.11,7.77c-7.72-.09-7.73,11.91,0,12Z"/><path class="cls-1" d="M72.4,25.52c16.45-2.54,31.41,8.23,35.44,24l10-5.84C106.28,29,91.43,16.47,73.05,11.44V23c7-2.62,14.22-2.57,21.6-2.26,3.19.13,5.94.35,8.61,2.28a47.68,47.68,0,0,1,7.16,7.08A93.94,93.94,0,0,1,130,65.18c2.26,7.36,13.85,4.22,11.57-3.19A107.37,107.37,0,0,0,116.67,19.2C111,13.29,105.35,9.46,97,8.86c-9-.65-18.59-.63-27.17,2.58-5.29,2-6.09,9.9,0,11.57,16.45,4.51,29.19,16.06,39.52,29.2,3.91,5,11.39-.5,10-5.84C113.63,23.72,92,10.44,69.21,14c-7.61,1.17-4.38,12.74,3.19,11.57Z"/><path class="cls-1" d="M55.51,16.88l22.4,1.54v-12l-14-.07,1.6,11.79a49.3,49.3,0,0,0,11-3.13c5.63-2.33,5.81-12.39-1.6-11.79L62,4.27c-7.61.62-7.82,11.79,0,12a148.6,148.6,0,0,0,27.88-2c6.77-1.09,5-11.85-1.6-11.79l-11.72.12c-7.75.08-7.7,11.67,0,12a167.25,167.25,0,0,1,22,2.34L100.1,5.2a40.74,40.74,0,0,1-11-2l-1.6,11.79A22.74,22.74,0,0,1,99.86,17.8l4.62-11a65.83,65.83,0,0,0-14-2.63L92.13,16c5.52-1.37,11.13,1.68,15.87,4.24,5.39,2.91,8.28,8.12,10.89,13.5a62.14,62.14,0,0,1,5.6,33.06c-.71,7.69,11.29,7.64,12,0a73.23,73.23,0,0,0-9.57-43.48A35.19,35.19,0,0,0,111.1,8.38c-7.1-3.46-14.26-5.92-22.17-4C82,6.14,84.09,15.65,90.53,16.2a50.81,50.81,0,0,1,10.77,2.2c6.49,2,10.58-7.67,4.62-11A34.82,34.82,0,0,0,87.51,2.94c-6.81.25-8.09,9.69-1.6,11.79A53.14,53.14,0,0,0,100.1,17.2c6.64.28,8.33-10.6,1.6-11.79A191.86,191.86,0,0,0,76.55,2.64v12l11.72-.12L86.68,2.74A131.83,131.83,0,0,1,62,4.27v12l12.9-1L73.29,3.44a49.3,49.3,0,0,1-11,3.13c-6.8,1.12-5,11.75,1.6,11.79l14,.07c7.79,0,7.64-11.48,0-12L55.51,4.88c-7.71-.53-7.68,11.47,0,12Z"/><path class="cls-1" d="M63.27,6.54C57.91,8.81,52.05,9.43,48.7,14.88c-2.82,4.58-2.41,10.94,2,14.43,2.87,2.3,7.43,2.5,9.42-1.21,1.15-2.14.59-4.32,1.38-6.31.61-1.56,3.71-3,5.28-3.65C71.58,16,77.09,15.29,82.3,14.71c6.17-.69,8.79-10.25,1.6-11.79a30.09,30.09,0,0,0-15,.43l4.62,11a4.47,4.47,0,0,1,3.21-.54C84.27,15,87.52,3.44,79.9,2.2A19.33,19.33,0,0,0,67.44,4c-6.17,3-1.83,12.83,4.62,11a16.85,16.85,0,0,1,8.63-.43L82.3,2.71C74.61,3.57,67,4.65,60,8.12a24,24,0,0,0-8.47,6.46,9.84,9.84,0,0,0-1.9,4.4,7.85,7.85,0,0,0-.16,2.81q0,2.27.26.25l9.42-1.21c.26.21-.88.31.44-.23,1.15-.47,2.2-1,3.4-1.37,2.17-.69,4.24-1.43,6.34-2.32,3-1.27,3.61-5.65,2.15-8.21-1.77-3.11-5.24-3.41-8.21-2.15Z"/><path class="cls-1" d="M138.51,60.69,159.73,45.1c5-3.68,2.31-13.48-4.62-11a92.41,92.41,0,0,0-24.57,13.17c-6,4.58-.23,15,6.06,10.36a127.16,127.16,0,0,1,81.82-24.52c7.91.41,7.4-11,0-12-9-1.2-32.88-7.75-31.9,8.73a6.21,6.21,0,0,0,4.4,5.79,90.16,90.16,0,0,0,33.95,3.5l-5.79-7.6-2.31,5.56c-1.53,3.69,2.29,7.6,5.79,7.6a61.48,61.48,0,0,1,19.71,3.21V36.36a109.64,109.64,0,0,1-20,2.39c-7.7.22-7.75,12,0,12,5.25,0,10.49.2,15.72.71,5,.49,10.13,1.91,15.17,1.9,8.53,0,15.69-6.43,13.79-15.29-.73-3.41-4.33-4.68-7.38-4.19-11.13,1.78-23.45,3.64-33.8-2l-3,11.18a102.93,102.93,0,0,1,30.73,1.33c7.5,1.5,10.75-9.64,3.19-11.57L217.88,22.9l-3.19,11.57,35.12,5.46,1.6-11.79a101.7,101.7,0,0,1-32-7.66l-3.19,11.57a165.76,165.76,0,0,0,48.67,8.84c7.72.24,7.72-11.76,0-12a154.46,154.46,0,0,1-45.48-8.41c-7.46-2.56-10.13,8.7-3.19,11.57a111.55,111.55,0,0,0,35.24,8.09c6.65.45,8.32-10.74,1.6-11.79L217.88,22.9c-7.43-1.16-10.85,9.61-3.19,11.57l38.77,9.93,3.19-11.57a113.7,113.7,0,0,0-33.92-1.76c-5.49.56-8.71,8.09-3,11.18,13.47,7.34,28.49,5.53,43,3.2l-7.38-4.19c0,.11-13.31-1.35-14.45-1.48a158.5,158.5,0,0,0-18.65-1v12a127.78,127.78,0,0,0,23.2-2.81c6.13-1.31,5.27-9.83,0-11.57a72.34,72.34,0,0,0-22.9-3.64l5.79,7.6,2.31-5.56c1.43-3.45-2.21-7.91-5.79-7.6a80.87,80.87,0,0,1-30.76-3.07l4.4,5.79c.09,1.48,7,1.54,8.74,1.78l11.16,1.49v-12a137.64,137.64,0,0,0-87.88,26.16l6.06,10.36a82.27,82.27,0,0,1,21.7-12l-4.62-11L132.45,50.33c-6.16,4.52-.18,14.94,6.06,10.36Z"/><path class="cls-1" d="M247.58,54.07c-17.6,4.85-36,5-53.8,8.85-7.55,1.62-4.35,13.19,3.19,11.57,17.8-3.82,36.19-4,53.8-8.85,7.44-2,4.28-13.63-3.19-11.57Z"/><path class="cls-1" d="M19.21,86.66C11.88,97.46,9.83,111.59,6.6,124H18.17c-2.34-6.64,0-13.16,1.79-19.66,1.88-7,3.5-14,4.93-21,.92-4.56-4.23-10.16-8.81-6.78s-7,7.83-9.2,13.15c-2.37,5.78-4.58,11.59-5.4,17.81-1.43,10.83.8,24.29,7.82,32.89,4.89,6,13.34-2.55,8.49-8.49-4.41-5.39-5.31-16.24-4.48-22.8A52.28,52.28,0,0,1,16.78,97c1.23-3.19,2.45-8,5.35-10.14L13.32,80.1c-1.68,8.31-3.74,16.49-5.92,24.67-2,7.42-3.42,15-.8,22.42,1.88,5.34,10,6.05,11.57,0,3-11.38,4.69-24.59,11.4-34.47,4.35-6.41-6-12.42-10.36-6.06Z"/><path class="cls-1" d="M108.43,159.87a125.48,125.48,0,0,0-9.14,19.06q-1.9,5-3.3,10.17c-.35,1.26-.59,2.56-1,3.8-.73,2.17-1.35,1.57.38,2.36l1.21,9.42c9.11-11.17,7.82-27.75,8.37-41.36q1-25.08,0-50.17c-.28-7.7-12.29-7.74-12,0q.82,22.13.17,44.27-.33,10.82-1,21.62c-.36,5.63-.27,12.54-4,17.15-2.19,2.68-2.63,7.67,1.21,9.42,9,4.09,15.38-2.59,17.63-10.91a115.12,115.12,0,0,1,11.86-28.78c3.92-6.67-6.45-12.72-10.36-6.06Z"/><path class="cls-1" d="M88.42,137.94c.74,10.86,1.64,21.73,2.2,32.6.57,11.05-1.84,21.14-4.89,31.69-2.15,7.43,9.42,10.61,11.57,3.19,3.14-10.85,5.83-21.66,5.4-33s-1.5-23-2.29-34.43c-.52-7.66-12.53-7.72-12,0Z"/><path class="cls-1" d="M8.74,135.07A109.57,109.57,0,0,0,32,155c4.8,3.1,9.72,6,14.64,8.93,4.75,2.8,9.77,6.73,15.05,8.4,8.7,2.75,17.37-6.65,22.07-12.93a46.62,46.62,0,0,0,9.08-25.55c.4-6.93-9.87-7.9-11.79-1.6-1.28,4.2-4.62,7.57-7.58,10.71-2.74,2.91-5.8,5.9-9.77,7-8.69,2.31-17.52-5-23.9-9.95l-3,11.18a303,303,0,0,0,36.41,2.36c6.12,0,7.93-8,3-11.18a17.83,17.83,0,0,0-16.11-1.77c-2.07.8-4,3.14-6,3.66-2.51.65-6.55-1.17-9-1.79-11.17-2.88-22.91-7-29-17.5-2.66-4.59-9.45-3.41-11,1.43a14.89,14.89,0,0,0,1.2,11.8c3.09,6.1,12.85,1.85,11-4.62L14,122.13c-1.81-6.23-12.49-5.37-11.79,1.6,1,9.89,3,20.67,12.49,25.91,4.9,2.69,10.62,3.66,15.85,5.53a97.48,97.48,0,0,1,17.21,8.31c6.64,4,12.68-6.39,6.06-10.36a114.24,114.24,0,0,0-26.85-11.68c-4-1.18-7.93-2.15-10.07-6.09-1.89-3.47-2.3-7.75-2.69-11.61L2.4,125.32l3.33,11.42,11-4.62a2.3,2.3,0,0,1,0-2.55L5.74,131c6.41,11,17.54,17.35,29.41,21.11,5.81,1.84,13,4.55,19.2,4.21,6-.33,9.95-7.37,15.84-3.61l3-11.18a303,303,0,0,1-36.41-2.36c-6.7-.84-7,8.1-3,11.18,9.73,7.48,21.88,15,34.6,10.7,10.34-3.53,21.14-15.24,24.28-25.58l-11.79-1.6a34.33,34.33,0,0,1-7,18.91,28.53,28.53,0,0,1-7.38,7c-2,1.18-.53,1.3-2.73.23-2-1-4-2.31-6-3.46-14.85-8.65-29.14-17-40.6-30-5.11-5.81-13.57,2.71-8.49,8.49Z"/><path class="cls-1" d="M4,136.83c15.38,15.89,39.63,36.4,63.47,28.89,7.34-2.31,4.2-13.9-3.19-11.57-10.08,3.18-19.61-1-28.09-6.33a127.74,127.74,0,0,1-23.7-19.47c-5.38-5.56-13.86,2.93-8.49,8.49Z"/><path class="cls-1" d="M25.11,71.35C14.08,70.42,8.69,80.49,6,89.53H17.56c-.6-3,1.37-5,3.92-6.17L14.2,73.93l-.57.57,4.24-1.76L17,72.63l4.24,1.76-.64-.69,1.76,4.24c0,.66,2-2.7,2.11-2.86l3.17-4.78H17.25c3.39,4.48,7.48,5.85,12.92,6.48a41.32,41.32,0,0,1,14.28,4.34C54,85.95,63,92.34,73.83,93.94l1.6-11.79c-15.76-1.12-28.72-12.34-45-11.7-4.78.19-7.16,4.89-5.18,9,7.79,16.32,32.23,15.26,47.3,15.15,5.68,0,8.53-8.44,3-11.18L52.48,71.93c-7.07-3.52-12.1,5.76-6.06,10.36A40.21,40.21,0,0,0,60.35,89.2c1.63.44,10,.88,10.58,2.66l7.38-7.38c-8.38-1.41-17.19-2.73-24.84-6.63-6.4-3.26-11.82-8.2-18.64-10.67-7.46-2.7-16.05-2.19-18.61,6.5-2.4,8.17-3.28,17.21-3.92,25.68-.61,8.09-1.26,16.89.62,24.86s7.44,13.1,14.71,16.19a82.2,82.2,0,0,0,23,5.67c6.59.74,15,.48,18.13-6.56,1.58-3.54.44-7.62-3.59-8.81A62,62,0,0,0,42,128.17c-5.49.51-13.19,5-8.72,11.54,4.32,6.35,14.72.35,10.36-6.06l-.4-.59v6.06q-2.41,1.4-.34,1,1.37-.12,2.74-.15a54.18,54.18,0,0,1,5.48.13A52.17,52.17,0,0,1,62,142.27l-3.59-8.81c-1.24,2.76-11.58.07-14-.45-5.24-1.11-11.54-2.38-15.94-5.64-4.93-3.65-4.61-10.29-4.61-15.82a155,155,0,0,1,1.19-19.65c.4-3.19.94-6.37,1.56-9.52.14-.71,1.23-3.78,1-4.59q.84-2-1.51-.11h1.49c5.24,1.45,9.25,3.91,13.8,6.89C51.72,91.36,63.07,94,75.12,96c4.16.7,9-2.64,7.38-7.38-1.93-5.74-6.54-8.47-12.26-9.72-6.72-1.47-12.16-2.75-17.77-7L46.42,82.29,69.56,93.82l3-11.18c-7.64.05-15.55,0-23.1-1.24-5.56-.93-11.25-2.55-13.84-8l-5.18,9c15.75-.63,29.28,10.58,45,11.7,6.65.47,8.32-10.79,1.6-11.79C67.67,81,60,75.74,51.84,71.44a63.25,63.25,0,0,0-12.38-5.18A44.34,44.34,0,0,0,32.79,65c-1-.12-4.55,0-5.18-.8-2.75-3.64-7.68-4-10.36,0-2.86,4.31-8.78,10.39-6.41,16a7.21,7.21,0,0,0,11.84,2.17c5.08-5.12-1.32-12.1-7.27-9.42C7.75,76.45,4.41,84.76,6,92.72c1.2,6.06,10,5.35,11.57,0,1.16-3.88,2.5-9.8,7.55-9.37,7.69.65,7.65-11.35,0-12Z"/><path class="cls-1" d="M169.72,99.62c1.28,2.06,1.74,4.64.08,6.71l10,5.84a26.54,26.54,0,0,1,4.5-7.35L174.3,99a45.42,45.42,0,0,1-24.76,28.15c-4.75,2.21-3.32,9.79,1.43,11,4.37,1.08,8.75.09,11.65-3.49,4.29-5.29-.93-12.45-7.27-9.42a100.77,100.77,0,0,0-44.24,41.5l10.36,6.06a4.1,4.1,0,0,1,2.66-2.28l-8.81-6.78a101.61,101.61,0,0,1-30.25,39.85c-6,4.86,2.53,13.3,8.49,8.49a113.5,113.5,0,0,0,33.33-45.14c2.28-5.47-4.7-8.55-8.81-6.78a14.17,14.17,0,0,0-7,6.59c-3.63,6.8,6.56,12.81,10.36,6.06a89.82,89.82,0,0,1,39.94-37.2l-7.27-9.42,0,.41,1.43,11a57.05,57.05,0,0,0,30.27-35.32c1.67-5.53-6.08-10.47-10-5.84A44.27,44.27,0,0,0,168.25,109c-2.19,5.47,6.35,10.41,10,5.84,5-6.26,6.14-14.24,1.8-21.25C176,87,165.64,93,169.72,99.62Z"/><path class="cls-1" d="M259.15,39.71,243.37,52.95l9.42,7.27c3.65-6.77,11-19.17,3.39-25.56-6.76-5.69-18.24-7.56-26.79-8.08-16.58-1-40.29,5.3-43,24.7-.45,3.23.79,6.4,4.19,7.38,2.8.8,6.93-1,7.38-4.19,1.74-12.42,16.48-15.8,27.11-16a50.78,50.78,0,0,1,18,2.95c1.12.4,3.14,1.85,4.15,1.74q1.59,1.11.28-1l-.54,1.74c-1.76,3.23-2.73,7-4.5,10.27-3.35,6.21,4.28,11.58,9.42,7.27l15.78-13.24c5.92-5-2.6-13.42-8.49-8.49Z"/><path class="cls-1" d="M50.58,79.45A64.75,64.75,0,0,0,28.47,63.85c-2.79-1.18-5.76-1-7.74,1.55-1.68,2.17-1.85,6,.47,7.88a17.07,17.07,0,0,1,6.44,11.66c.44,3.24,4.55,4.94,7.38,4.19,3.47-.92,4.63-4.19,4.19-7.38a26.72,26.72,0,0,0-9.53-17l-7.27,9.42A56.58,56.58,0,0,1,42.09,87.93c5.27,5.67,13.74-2.83,8.49-8.49Z"/><path class="cls-1" d="M203.25,74a109.43,109.43,0,0,0-1.8,21.6h12a14.23,14.23,0,0,0-2.57-8c-3-4.18-9.27-3.73-11,1.43-3.88,11.85,10.16,15,12.5,24.68l8.81-6.78c-2.75-1.55-6.75-4.61-7-8.13l-1.76,4.24q-6.63-1.89-4.55,1,.65,1.17,1.27,2.35.84,1.58,1.64,3.17,2.21,4.38,4.19,8.88a178.33,178.33,0,0,1,6.58,17.78c2.32,7.34,13.91,4.2,11.57-3.19A203.66,203.66,0,0,0,225,111.68c-2.57-5.76-5.81-16.25-12-19.07-6.81-3.12-12.15,3.6-10.27,10s6.73,11.59,12.41,14.79a6.07,6.07,0,0,0,8.81-6.78,24.4,24.4,0,0,0-5.49-10.68c-1.52-1.68-7.8-5.22-7-7.62l-11,1.43a2.44,2.44,0,0,1,.93,1.92c.41,7.66,12.15,7.77,12,0a93.13,93.13,0,0,1,1.37-18.41c1.36-7.55-10.21-10.79-11.57-3.19Z"/><path class="cls-1" d="M206.43,80.19c.12,9.34,3.51,17.21,9.47,24.29,2.77,3.29,5.78,6.27,7.6,10.23s2.63,8.47,3.51,12.74c1.57,7.56,13.13,4.36,11.57-3.19-1.68-8.11-3.83-15.69-9-22.27-5.52-7-11-12.27-11.11-21.81-.1-7.72-12.1-7.74-12,0Z"/><path class="cls-1" d="M205.71,73.41a72.28,72.28,0,0,0,8.89,21.67c3.44,5.6,13.2,2,11-4.62L222.1,80.08l-11.57,3.19c3.25,9.44,11,16,14.79,25.18,4,9.77,5.65,20.67,8,30.92,1.74,7.52,13.31,4.34,11.57-3.19-2.38-10.3-4.16-21-8-30.92a54.82,54.82,0,0,0-6.67-12.39c-3-4.07-6.45-8-8.12-12.79-2.5-7.25-14-4.17-11.57,3.19L214,93.64,225,89a61.87,61.87,0,0,1-7.68-18.8c-1.73-7.52-13.31-4.34-11.57,3.19Z"/><path class="cls-1" d="M250,49.15c-1.57,2.85-5,3.79-7.8,5a36.27,36.27,0,0,0-8.76,5.3c-3.27,2.66-6.68,3.62-10.69,4.72-3.42.94-9.11,3.68-12.52,1.82-6.78-3.7-12.85,6.66-6.06,10.36,5.35,2.92,10.75,2.33,16.46.84,5.49-1.43,11.64-2.59,16.53-5.59,2.09-1.29,3.8-3.08,5.82-4.45A39.25,39.25,0,0,1,249.44,64c4.5-2,8.44-4.4,10.89-8.82,3.74-6.76-6.62-12.82-10.36-6.06Z"/><path class="cls-1" d="M258,43.72c-1.35,3.71-8.25,4.78-11.47,5.48A85.65,85.65,0,0,1,230,50.84c-11,.22-22.05-.64-33.08-.08-7.69.39-7.73,12.39,0,12,14-.71,28.15.94,42.17-.41,11.32-1.09,26-3.3,30.39-15.44,2.64-7.27-8.95-10.4-11.57-3.19Z"/><path class="cls-1" d="M242.4,140.2a19.28,19.28,0,0,0-8.56-11.65,6.05,6.05,0,0,0-8.21,2.15,6.13,6.13,0,0,0,2.15,8.21l.81.54c-1-.67-.14-.07.09.15s.46.45.68.69.67,1.11.12.12c.31.56.66,1.11,1,1.68-.39-.69-.17-.48,0,.14.13.39.23.77.33,1.17a6.06,6.06,0,0,0,7.38,4.19,6.12,6.12,0,0,0,4.19-7.38Z"/><path class="cls-1" d="M55.45,9.79,47.74,7.64l2,7.52c.33-.32.72-.87,1-.79a1.26,1.26,0,0,1-1.28.07,1.93,1.93,0,0,1-1.14-.93q-.7-2.39.79-3.61l-.77.37a7,7,0,0,0-1.9,1.33,5.75,5.75,0,0,0,2.13,9.58c2.28.84,4.93-.94,5.54-3.14a4.6,4.6,0,0,0-3.14-5.54l-.28-.1,2,1.16L53,14l.61,2.27q0-.78-.21.37a2,2,0,0,1-1,1.57,2.82,2.82,0,0,0,.77-.37,6.79,6.79,0,0,0,2.55-2.14,6.13,6.13,0,0,0,0-7.06,7,7,0,0,0-6.06-3.1,9.91,9.91,0,0,0-6.41,3.24,4.54,4.54,0,0,0,2,7.52l7.71,2.15c5.59,1.56,8-7.12,2.39-8.68Z"/><path class="cls-1" d="M260.86,46.2a27.31,27.31,0,0,1,10-2.86L267,36.57c-.52.7-1.21,2.16-2,2.62l2.27-.61c-.93,0-2.4-1-3.22-1.31l-3.68-1.54c-2.24-.94-4.95,1-5.54,3.14-.71,2.59.89,4.59,3.14,5.54,2.82,1.18,6.18,3.3,9.3,3.17,3.62-.16,5.53-3.89,7.46-6.46s-.68-7-3.89-6.77a39,39,0,0,0-14.56,4.09c-5.17,2.61-.62,10.38,4.54,7.77Z"/><path class="cls-1" d="M257.85,44.35a14,14,0,0,0,12.57-9.23c1.66-4.11-4.76-7.78-7.52-4.38-2.45,3-6.23,8.4-10.82,7.65-5.67-.93-8.1,7.74-2.39,8.68,8.53,1.4,14.51-3.72,19.58-10l-7.52-4.38a4.56,4.56,0,0,1-3.89,2.62c-5.75.35-5.79,9.35,0,9Z"/><path class="cls-1" d="M256.4,43a87.62,87.62,0,0,1,13.73-6.18c3.53-1.23,4.61-6.21,1.07-8.22A13,13,0,0,0,256,30.15c-4.44,3.73,2,10.07,6.36,6.36a3.69,3.69,0,0,1,4.27-.18l1.07-8.22a101.58,101.58,0,0,0-15.88,7.09c-5.06,2.81-.53,10.59,4.54,7.77Z"/><path class="cls-1" d="M83.55,209.17a6.19,6.19,0,0,1-2.23,6.59,3,3,0,0,0,0,4.24,3.07,3.07,0,0,0,4.24,0,12.1,12.1,0,0,0,3.78-12.43c-1-3.72-6.8-2.14-5.79,1.6Z"/><path class="cls-1" d="M96.1,210.69c3.86,0,3.87-6,0-6s-3.87,6,0,6Z"/><path class="cls-1" d="M94.61,204.52a51.6,51.6,0,0,0-10.95,9.16c-2.58,2.86,1.65,7.12,4.24,4.24a45.79,45.79,0,0,1,9.73-8.22c3.26-2,.26-7.24-3-5.18Z"/><path class="cls-1" d="M233.1,135.61a39.87,39.87,0,0,1,3.35,17.21c-.08,3.9,5.72,3.81,6,0l1-13.52h-6q.48,10.73.24,21.45c-.09,3.86,5.91,3.86,6,0q.25-10.73-.24-21.45c-.17-3.88-5.72-3.83-6,0l-1,13.52h6a46.73,46.73,0,0,0-4.17-20.24c-1.56-3.52-6.73-.47-5.18,3Z"/><path class="cls-1" d="M223.16,129.23l-.31,1.48,5.48.72a11.59,11.59,0,0,1-.61-4.06c.08-3.34-5.13-4.13-5.89-.8a23.87,23.87,0,0,0-.59,7.3c.29,3.8,6,3.91,6,0v-7.76c0-3.26-5.38-4.23-5.89-.8a13.27,13.27,0,0,0,1.56,8.34c1.19,2.37,3.73,5.24,3.18,8.06l5-1.32a1.32,1.32,0,0,1-.73-1.72c1.57-3.49-3.6-6.55-5.18-3-1.44,3.19-1.11,6.62,1.67,9,1.57,1.34,4.55,1.07,5-1.32a12.53,12.53,0,0,0-1.38-8.3c-1.16-2.36-3.78-5.3-3.36-8.11l-5.89-.8v7.76h6a18.44,18.44,0,0,1,.38-5.71l-5.89-.8a16.73,16.73,0,0,0,.82,5.66,3,3,0,0,0,5.48.72,8,8,0,0,0,.92-6.1c-.76-3.78-6.55-2.18-5.79,1.6Z"/><path class="cls-1" d="M225.68,138.55v7c0,3.86,6,3.87,6,0v-7c0-3.86-6-3.87-6,0Z"/><path class="cls-1" d="M193.46,77c-2.13.8-3,2.7-3.07,4.89,0,1.25.63,3.43-.42,4.4-1.25,1.15-2.49-.41-2-1.7.63-1.83-2.26-2.61-2.89-.8a4.34,4.34,0,0,0,5.22,5.68,4.5,4.5,0,0,0,3.14-3.68c.24-1.29-.76-5.29.87-5.9,1.79-.67,1-3.57-.8-2.89Z"/><path class="cls-1" d="M197.23,75.69a10.77,10.77,0,0,0-6,4.4c-1,1.43,1.17,3,2.36,1.82L201.52,74a1.5,1.5,0,0,0-2.12-2.12l-7.93,7.94,2.36,1.82a7.5,7.5,0,0,1,4.19-3c1.85-.54,1.06-3.44-.8-2.89Z"/><path class="cls-1" d="M197,76.3a14.21,14.21,0,0,1-2,2.78,13.44,13.44,0,0,1-1.24,1.2l-.79.61q-.87.16-.43.64.21.57.26-.14a1.79,1.79,0,0,1,.26-.67,6.07,6.07,0,0,1,1-1.47,7.8,7.8,0,0,1,2.75-1.84l-2.05-2.05-4.08,5.8c-1,1.38,1.27,3.13,2.36,1.82q4.37-5.27,9-10.27c1.32-1.41-.8-3.53-2.12-2.12q-4.68,5-9,10.27l2.36,1.82,4.08-5.8c1-1.38-.84-2.57-2.05-2.05-2.54,1.09-7.59,5.57-5.05,8.72,2.84,3.54,8.1-3.6,9.28-5.73.94-1.69-1.65-3.2-2.59-1.51Z"/><path class="cls-1" d="M109.64,62.65q18.54,4.92,37.37,8.51c1.31.25,2.75-1.48,1.46-2.51-10.22-8.16-19.59-17.63-32.19-22-1.83-.64-2.61,2.26-.8,2.89,12.05,4.22,21.08,13.46,30.86,21.27l1.46-2.51Q129,64.67,110.44,59.75a1.5,1.5,0,0,0-.8,2.89Z"/><path class="cls-1" d="M113,48.71a41,41,0,0,1,12.89,22.64l2.51-1.46a181,181,0,0,1-27.88-30.24c-1.12-1.53-3.7-.1-2.59,1.51a139.16,139.16,0,0,0,23.49,26.34A1.51,1.51,0,0,0,123.89,66,60.64,60.64,0,0,0,110.6,37.24c-1.08-1.3-3.31.41-2.36,1.82l15.2,22.53,2.36-1.82a108.94,108.94,0,0,0-15.46-13c-1.38-1-3.16,1.3-1.82,2.36a130.3,130.3,0,0,1,19.76,19.2c1.24,1.49,3.33-.64,2.12-2.12a75.12,75.12,0,0,0-19.29-16.76l-1.51,2.59,21.17,12.1a1.5,1.5,0,0,0,1.51-2.59L108,46.46c-1.65-1-3.12,1.53-1.51,2.59q12.63,8.33,24.38,17.86A1.5,1.5,0,0,0,133,64.79,64.35,64.35,0,0,0,111.8,47.36l-1.16,2.74a183.37,183.37,0,0,1,24.58,11.67,1.51,1.51,0,0,0,2.05-2.05,38.81,38.81,0,0,0-15.84-14.55l-.76,2.8a29.86,29.86,0,0,1,16.18,7.46L139,53.31a51.29,51.29,0,0,0-19.6-9.49,1.51,1.51,0,0,0-1.16,2.74,74.37,74.37,0,0,1,16,15.94A1.5,1.5,0,0,0,136.85,61,27.38,27.38,0,0,0,124.2,47.91c-1.44-.73-3.17,1.18-1.82,2.36q8.41,7.34,16,15.46a1.51,1.51,0,0,0,2.36-1.82A71.77,71.77,0,0,0,116.31,40l-1.51,2.59a85.09,85.09,0,0,1,28,19.32l2.12-2.12c-10.11-9.21-22.06-15.66-34.3-21.57a1.5,1.5,0,0,0-1.51,2.59l46.19,31.27c1.19.81,2.41-.52,2.2-1.69a24.2,24.2,0,0,0-4.07-10l-1.69,2.2a265,265,0,0,0,33.21,10.81c1.58.4,2.76-2,1.16-2.74L148.71,53.64c-1.47-.67-3.11,1.08-1.82,2.36C152,61,159.24,69.26,153,76.27c-4.91,5.52-12.59,9.77-18.5,14.19L98.82,117.19l1.82,2.36,36.54-42.93c1.24-1.45-.72-3.49-2.12-2.12l-75.43,74.2,2.12,2.12a233.18,233.18,0,0,1,47.68-43.51l-1.82-2.36L84.67,123.3,87,125.12c3.35-7.56,10.25-12.3,16.68-17.1,6.8-5.08,13.74-10,20.76-14.71,13.8-9.34,27.94-18.16,42.07-27A1.5,1.5,0,0,0,165,63.73L101.83,91.45,103.34,94C142.62,69.9,186,53.94,229.13,38.21L228,35.47A218.25,218.25,0,0,0,172.7,75.59a1.5,1.5,0,0,0,2.12,2.12,215.67,215.67,0,0,1,54.67-39.65c1.49-.76.45-3.33-1.16-2.74-43.37,15.82-87,31.86-126.5,56.13-1.68,1-.22,3.35,1.51,2.59l63.19-27.72L165,63.73c-15.2,9.49-30.4,19-45.18,29.11-7.26,5-14.42,10.09-21.41,15.43-5.63,4.3-11.06,8.71-14,15.34a1.51,1.51,0,0,0,2.36,1.82l22.94-18.35c1.32-1.06-.42-3.32-1.82-2.36a236,236,0,0,0-48.28,44c-1.21,1.46.72,3.5,2.12,2.12l75.43-74.2-2.12-2.12L98.52,117.43c-1,1.2.36,3.45,1.82,2.36l46.78-35.06c4.88-3.66,11.24-7.29,11.38-14.15.14-6.63-5.1-12.37-9.49-16.7l-1.82,2.36L184.58,73.3l1.16-2.74a265,265,0,0,1-33.21-10.81,1.51,1.51,0,0,0-1.69,2.2,22.44,22.44,0,0,1,3.76,9.23l2.2-1.69L110.61,38.22l-1.51,2.59c12,5.79,23.78,12.07,33.7,21.1a1.5,1.5,0,0,0,2.12-2.12A87.13,87.13,0,0,0,116.31,40c-1.72-.74-3.23,1.58-1.51,2.59a68.47,68.47,0,0,1,23.4,22.83l2.36-1.82q-7.65-8.13-16-15.46l-1.82,2.36a24.91,24.91,0,0,1,11.57,12L136.85,61a79.15,79.15,0,0,0-17.11-17l-1.16,2.74a47.91,47.91,0,0,1,18.28,8.72c1.48,1.15,3.6-.81,2.12-2.12A33.29,33.29,0,0,0,120.68,45c-1.49-.2-2,2.16-.76,2.8a35.9,35.9,0,0,1,14.76,13.48l2.05-2.05a188.7,188.7,0,0,0-25.29-12c-1.58-.61-2.66,2-1.16,2.74a62.4,62.4,0,0,1,20.57,17L133,64.79q-12-9.78-25-18.33l-1.51,2.59,24.29,15.11,1.51-2.59-21.17-12.1a1.5,1.5,0,0,0-1.51,2.59,72.72,72.72,0,0,1,18.68,16.29l2.12-2.12A130.3,130.3,0,0,0,110.64,47l-1.82,2.36a104.72,104.72,0,0,1,14.86,12.5c1.17,1.18,3.33-.37,2.36-1.82l-15.2-22.53-2.36,1.82A57.81,57.81,0,0,1,121,66.85l2.51-1.46a136.09,136.09,0,0,1-23-25.73l-2.59,1.51A184.3,184.3,0,0,0,126.24,72a1.51,1.51,0,0,0,2.51-1.46,43.77,43.77,0,0,0-13.66-24c-1.43-1.29-3.56.82-2.12,2.12Z"/><path class="cls-1" d="M225.37,130.94a92.79,92.79,0,0,0,1,21.26c.3,1.9,3.19,1.09,2.89-.8a89.38,89.38,0,0,1-.86-20.46c.14-1.93-2.86-1.92-3,0Z"/><path class="cls-1" d="M224,145.15a33.42,33.42,0,0,1,3.09,6.59,1.51,1.51,0,0,0,2.89,0,22.1,22.1,0,0,0,.68-9.77c-.28-1.9-3.17-1.09-2.89.8a18.62,18.62,0,0,1-.68,8.17H230a37.11,37.11,0,0,0-3.39-7.3c-1-1.65-3.59-.14-2.59,1.51Z"/><path class="cls-1" d="M239.18,163.29l.19,4.08a1.51,1.51,0,0,0,2.95.4,18,18,0,0,0,.13-8.82,1.51,1.51,0,0,0-2.51-.66c-1.35,1.47-2.71,4.94-.42,6.27,2.11,1.23,3.77-1.73,1.91-3.16-1.53-1.17-3,1.43-1.51,2.59l.17.13-.74-1.3,0-.3.9-.69-.25.07,1.16.15a7.55,7.55,0,0,1,.88-1.65l-2.51-.66a14.71,14.71,0,0,1-.13,7.23l2.95.4-.19-4.08c-.09-1.92-3.09-1.93-3,0Z"/><path class="cls-1" d="M225.91,148.06l-.2,7.81a1.51,1.51,0,0,0,2.95.4,53.07,53.07,0,0,0,.68-20.29c-.22-1.42-2.08-1.27-2.74-.36a10.66,10.66,0,0,0-1.66,9.57,1.5,1.5,0,0,0,2.89-.8,7.92,7.92,0,0,1,1.36-7.26l-2.74-.36a49,49,0,0,1-.68,18.69l2.95.4.2-7.81c.05-1.93-2.95-1.93-3,0Z"/><path class="cls-1" d="M77.74,228.48c15.4-9.92,21.76-25.95,29.45-41.81.63-1.3-1.31-2.44-1.94-1.14-7.48,15.43-13.63,31.33-28.65,41-1.21.78-.09,2.73,1.14,1.94Z"/><path class="cls-1" d="M225.37,132.53l-2.21-13.76-2.17.6a106.36,106.36,0,0,1,6.78,25.25c.2,1.43,2.37.82,2.17-.6a106.36,106.36,0,0,0-6.78-25.25,1.13,1.13,0,0,0-2.17.6l2.21,13.76c.23,1.43,2.4.82,2.17-.6Z"/><path class="cls-1" d="M229.31,163.78a1.13,1.13,0,0,0,0-2.25,1.13,1.13,0,0,0,0,2.25Z"/><path class="cls-1" d="M230.51,164.24l6.43-36.78c.25-1.42-1.92-2-2.17-.6l-6.43,36.78c-.25,1.42,1.92,2,2.17.6Z"/></g></g></svg>