<?xml version="1.0" encoding="utf-8"?>
<!-- Generator: Adobe Illustrator 21.0.2, SVG Export Plug-In . SVG Version: 6.00 Build 0)  -->
<svg version="1.1" id="Layer_1" xmlns="http://www.w3.org/2000/svg" xmlns:xlink="http://www.w3.org/1999/xlink" x="0px" y="0px"
	 viewBox="0 0 277.4 228.7" style="enable-background:new 0 0 277.4 228.7;" xml:space="preserve">
<style type="text/css">
	.st0{fill:#2A2723;}
</style>
<title>sidebarlogoblackAsset 6</title>
<g id="Layer_2">
	<g id="Layer_2-2">
		<path class="st0" d="M74.5,81.6c29-19.6,59.8-37,92-50.8c17.4-7.5,34.4-11.1,53.3-8c8.2,1.3,16.3,3.3,24.5,4.9
			c3.6,0.7,7.3,1.3,11,1.7c2.1,0.2,4.1,0.4,6.2,0.5c1.2,0.1,2.4,0.1,3.5,0.1c2.2-0.3,3.8,0.8,4.9,3.2c-0.7,0.4-0.9,1.4-0.5,2.1
			c0.2,0.3,0.5,0.5,0.8,0.6l5.1,1.5l-1-1.8c-8.5,25.2-35.3,34.8-59,39.7c-1.9,0.4-1.1,3.3,0.8,2.9c24.9-5.1,52.3-15.5,61-41.8
			c0.2-0.8-0.2-1.6-1-1.8l-5.2-1.4l0.4,2.7c2-1.4,2.5-4.3,1-6.3c-0.2-0.3-0.5-0.6-0.8-0.9c-1.6-1.4-3.9-1.5-5.9-1.6
			c-4.3-0.2-8.6-0.4-12.9-1c-15.1-2.1-29.7-6.9-44.9-7.6s-29.8,4-43.7,10.1C149.4,35,135,42.2,120.8,49.9
			C104.4,58.8,88.5,68.5,73,79C71.4,80.1,72.9,82.7,74.5,81.6L74.5,81.6z"/>
		<path class="st0" d="M201.8,71.6c-1.6,7.8-4.2,17.5-3.1,25.5c1,7.5,8.5,12.4,12.5,18.3c9.7,14.2,12.9,31.7,16,48.3
			c0.4,1.9,3.2,1.1,2.9-0.8c-2.7-14.9-5.6-30.2-13-43.6c-1.6-2.9-3.4-5.7-5.4-8.3c-2.5-3.2-5.7-5.9-8-9.3c-2.9-4.3-2.1-9-1.6-13.8
			c0.6-5.2,1.5-10.4,2.6-15.6C205,70.5,202.1,69.7,201.8,71.6L201.8,71.6z"/>
		<path class="st0" d="M212.8,79.5c9.6,10.5,15.5,23.8,16.7,38c1.2,13.9,1.3,29.9-2.9,43.3c-0.6,1.9,2.3,2.6,2.9,0.8
			c2.3-7.6,2.9-15.3,3.1-23.2c0.3-8.1,0.5-16.4-0.6-24.5c-1.8-13.7-7.8-26.4-17.2-36.6C213.6,75.9,211.5,78,212.8,79.5L212.8,79.5z"
			/>
		<path class="st0" d="M218.4,76.1c7.8,14.7,18.1,29.7,22,46c3.7,15.7,2.1,32.1,0.6,48c-0.2,1.9,2.8,1.9,3,0
			c1.6-16.1,3.1-32.8-0.7-48.8c-4-16.6-14.3-31.8-22.3-46.8C220.1,72.9,217.5,74.4,218.4,76.1L218.4,76.1z"/>
		<path class="st0" d="M230,137.8c4.3,10.4,7.6,21.2,9.9,32.2c0.4,1.9,3.3,1.1,2.9-0.8c-2.3-11-5.7-21.8-9.9-32.2
			C232.2,135.2,229.3,136,230,137.8L230,137.8z"/>
		<path class="st0" d="M200,76.4c-19.2,3.1-36.7,11.5-54.6,18.6c-18.9,7.5-38.7,12.3-58.9,14.2c-1.9,0.2-1.9,3.2,0,3
			c19.9-1.8,39.4-6.4,58.1-13.6c18.5-7.2,36.5-16,56.3-19.2C202.7,79,201.9,76.1,200,76.4L200,76.4z"/>
		<path class="st0" d="M195.6,79.1c-4.2,6.4-6.8,13.5-9.5,20.6c-3,8.1-7.3,15.7-12.9,22.3c-5.1,6-11,11.3-17.5,15.8
			c-6,4.2-12.5,7.9-18.2,12.6c-11.8,10-15.9,24.8-24,37.5c-9,14.1-22.1,25.1-35,35.5c-1.5,1.2,0.6,3.3,2.1,2.1
			c12.3-9.9,24.5-20.2,33.6-33.3c9.4-13.5,13.3-30.1,26.7-40.7c6.4-5.1,13.6-9,20.1-13.9c6.1-4.6,11.5-9.9,16.3-15.9
			c9.8-12.4,12.2-28.1,20.8-41C199.2,79,196.6,77.5,195.6,79.1L195.6,79.1z"/>
		<path class="st0" d="M84,111.9c10.3,37.7,7.9,77.8-7,114c-0.7,1.8,2.2,2.6,2.9,0.8c15.1-36.7,17.5-77.4,7-115.6
			c-0.2-0.8-1.1-1.2-1.9-1C84.3,110.3,83.8,111.1,84,111.9L84,111.9z"/>
		<path class="st0" d="M135.2,43.7C130,27.1,123.1,9.2,105.1,3.3C85.2-3.4,60.6,1,41.5,8.3c-0.8,0.2-1.3,1.1-1,1.9
			c0,0.1,0.1,0.2,0.1,0.3C50.3,31.2,63.9,73.6,95,65c0.8-0.2,1.2-1.1,1-1.9c-0.2-0.8-1-1.2-1.8-1c-13.8,3.8-26-5.8-33.2-16.8
			C53.8,34,48.8,21.1,43.2,9l-0.9,2.2c18-6.8,39.8-10.7,58.9-5.9s25.8,22.4,31.2,39.2C132.9,46.3,135.8,45.5,135.2,43.7z"/>
		<path class="st0" d="M95.5,65.7h0.6c0.8,0,1.5-0.7,1.5-1.5c0-0.8-0.7-1.5-1.5-1.5h-0.6c-0.8,0-1.5,0.7-1.5,1.5
			C94,65,94.6,65.7,95.5,65.7z"/>
		<path class="st0" d="M74,79.1L45,67.6c-7.3-2.9-16.4-8.3-24.5-5.7c-5.7,1.9-9.2,7.3-11.4,12.6c-3.5,8.3-5.4,17.6-6.9,26.4
			c-1.7,9.1-2.1,18.5-1.1,27.8c0.9,7,2.4,14.8,8.2,19.4c3.2,2.5,7.2,4.1,10.8,5.9l15.1,7.4c8.3,4.1,17,9.7,26.1,11.7
			c16.7,3.7,25.7-12.2,29.6-25.8c0.2-0.8-0.3-1.6-1.1-1.8c-0.8-0.2-1.6,0.3-1.8,1c-2.1,7.3-5.2,15.3-11.3,20.3
			c-9.3,7.6-20.1,1.8-29.3-2.7L19,150c-4.4-2.2-9.1-4.2-11.6-8.8c-2.6-4.7-3.3-11-3.7-16.2c-0.8-10.3,0.6-20.6,2.8-30.6
			c1.9-8.3,3.6-18.8,9.2-25.6c7.6-9.1,19.7-1.8,28.4,1.6l29,11.5C75,82.7,75.8,79.8,74,79.1L74,79.1z"/>
		<path class="st0" d="M158,43c-19.1,6.7-37.7,14.7-55.7,23.9c-4.6,2.3-3.4,9.8,1.4,11c26.2,6.6,49.6-8.5,75-11.7
			c7.5-1,7.8-11.3,0-12c-22.4-2-48-2.6-64.3,15.7c-4.1,4.6,0,11.1,5.8,10c16.1-3,31.2-9.7,46-16.5c7.4-3.4,14.9-6.8,22.5-9.7
			c7.8-3,16.5-6.4,24.9-4.9l-4.2-7.4c-1,2.8-8.5,4.5-10.8,5.5l-14.3,6l-28.5,12l4.6,11c11.8-8.9,26.1-13.8,40.8-14l-4.2-10.2
			c-14.3,11.4-31.7,18-48.4,24.7c-17.6,7.1-35.7,14-54.6,16.3l3,11.2c21-16.2,45.3-29.4,72.2-30.8l-3-11.2l-29.7,14.5
			c-8.5,4.2-16.8,7.9-22.5,15.8c-2.4,3.3,0.3,7.7,3.6,8.8c8.8,3.1,18.3,0.1,26.7-2.9c9.5-3.5,18.7-7.8,27.9-11.9
			c9.6-4.3,19.2-8.6,28.8-12.8c8.1-3.6,15.9-7.6,22.1-14.1c2.4-2.5,2.4-7.8-1.2-9.4c-13.5-6.1-27.8-4-41.9-1
			c-15.4,3.3-30.3,8.4-45.1,13.8c-13.5,4.9-27.7,9.4-39.2,18.4c-5.3,4.1-10,9-14.8,13.8c-2.2,2.2-4.5,4.3-6.9,6.3
			c-1.7,1.4-6,5.3-8.3,5.2l4.2,1.8c1.5,1.3,0.1,2.2,1.5,0.4c0.5-0.8,1-1.7,1.4-2.6c1-1.7,2-3.3,3.2-4.8c2.6-3.3,5.6-6.2,8.9-8.8
			c6.5-5.2,13.9-9.2,21.2-13.1c6.3-3.3,1.7-12.2-4.6-11c-7.8,1.5-15.3,4.5-21.9,8.9c-5.4,3.6-14.1,9.3-13.5,16.7
			c0.7,8.5,11.7,9.1,18.1,9.8c9,1,18,0.5,26.8-1.2l-3.2-11.6c-14.2,2.8-28.4,5.9-41.1,13.2c-4.3,2.5-3.6,9.8,1.4,11
			c17.1,4,34.9,3.3,51.7-1.9c6.2-1.9,5.4-12.2-1.6-11.8c-4.4,0.3-8.9,0.2-13.3-0.4v11.6l32.3-6.9c6.7-1.4,5-11.7-1.6-11.8
			c-28.4-0.2-54.4,12.2-79.3,24.6c-4.3,2.2-3.7,10.2,1.4,11c14.7,2.1,29.6,2,44.3-0.3c7.2-1.2,4.5-11.1-1.6-11.8
			c-14.4-1.6-29-0.9-43.1,2.2c-7,1.5-4.7,11.2,1.6,11.8c19.8,1.9,41.7,3.6,61.2-1.6c15.7-4.2,30.6-15.5,33.6-32.4
			c0.8-4.8-2.6-8.2-7.3-7.4c-15.1,2.5-28.9,10-39.2,21.3c-4.4,4.7,1.6,13.7,7.2,9.4l42.7-32.8c6-4.5,0.8-14.4-6-10.4
			c-20.3,12.2-40.3,25-59.9,38.6c-4.4,3.1-3.4,11.7,3,11.2c12.9-1.1,23.9-7.1,34.2-14.7c10.9-8.1,21.4-17,31.6-26
			c5-4.4-1.6-13.3-7.2-9.4c-7.9,5.5-15.5,11.3-22.7,17.6c-6.4,5.5-15.3,11.6-17.4,20.2c-1.1,4.3,2.9,8.7,7.3,7.4
			c30.6-9.2,57.2-28.4,75.6-54.6c3.5-5-3.3-11.2-8.2-8.2C173.2,68,158.9,77,147.3,89.3c-4.5,4.7,1.5,13.4,7.2,9.4l23.6-16.4
			c7-4.8,13.9-9.7,22.3-11.5l-5.8-10c-5,4-10.4,7.4-16.1,10.1c-4.4,2.2-3.6,10.1,1.4,11c11.5,2,21.7-2.1,31.8-7.3
			c10.7-5.6,21.4-11.4,32.1-17.1c4.2-2.3,3.7-10.1-1.4-11c-19.1-3.1-39-5.2-58.3-3.2c-16,1.6-32,6.4-43.1,18.7
			c-5.2,5.8,2.7,13.6,8.4,8.5C162.7,58.6,177.9,49,194.2,42c6.9-2.9,4.5-13.5-3.2-11.6c-21.5,5.4-42.2,13.4-61.8,23.8l7.2,9.4
			c5.8-5.4,13.1-8.2,20.4-10.7c8.4-2.9,16.8-5.6,25.2-8.5c6.1-2,5.5-12.2-1.6-11.8c-25.2,1.4-49.1,11.9-67.3,29.6
			c-8.6,8.5-16.1,18.8-17,31.3c-0.5,6.5,0.6,13.2,2.1,19.4c1.5,6.6,3.6,14.2,7.3,20c8.1,12.5,23.9,1.9,32.6-4.1
			c10.4-7.1,19.6-15.7,28.1-24.9c4.2-4.4,8.1-9,12-13.7c3.5-4.2,9.2-9.1,9.4-15c0.2-5.7-4.3-9.5-8.8-12c-6.2-3.5-12.8-6.4-19.5-8.7
			c-15.8-5-30.8-0.7-45.7,5.2c-12.8,5.1-26,13.2-28.5,28c-1.1,6.6,7,10.5,10.9,4.6s5.5-12.5,10.7-17.3c4.2-3.9,9.7-6.6,14.9-8.8
			s13.5-7,19.3-4.1c4.8,2.4,7,8.4,7,13.5c-0.1,7.1-3.5,13.7-7,19.7c-4,6.8-8.3,13.4-12.8,19.8c-8.5,12-17.7,23.2-22.4,37.4H117
			c-6.4-16.1-13-45.1-36.4-39.4c-4.1,1-9,4.1-13.4,3.4c-3.1-0.5-5.2-3.7-6.9-5.9c-4.7-6.1-9.2-12.3-17.6-12.3c-2.7,0-5,1.8-5.8,4.4
			c-7,21,13.7,41.4,34.7,33.5c4.2-1.6,5.9-6.5,2.7-10c-6.6-7.1-13.7-13.7-21.3-19.8c-4.9-3.9-13.7,1.2-9.4,7.3
			c6,8.7,15.4,16.8,26.1,19.1c12.4,2.6,15.9-11,13.2-20.4C80,102.3,71.4,94.5,63,88.7C54,82.4,42.6,78,31.8,82
			c-5.1,1.9-6.3,10.2,0,11.6c16.4,3.5,33.1,7.1,47,17l4.6-11c-12.1-1.9-24-4.9-35.4-9.2c-6.6-2.4-10.3,7.5-4.6,11
			c10.1,6.2,20.6,11.8,31.3,16.8c6.9,3.2,13-6.7,6.1-10.4L59.2,96.3l-1.4,11c7.9-3.2,16.1-5.8,24.4-7.7c5.2-1.2,5.7-8.4,1.4-11
			c-7.8-4.7-16.3-8-25.3-9.5c-7.6-1.3-10.8,10.3-3.2,11.6c7.9,1.3,15.6,4.2,22.4,8.3l1.4-11c-8.3,1.9-16.5,4.4-24.4,7.7
			c-4.4,1.8-6.4,8.3-1.4,11l21.6,11.5l6.1-10.4C70,102.8,59.6,97.1,49.4,91l-4.6,11c11.5,4.2,23.3,7.3,35.4,9.2
			c6.7,1,10.4-6.9,4.6-11C70.1,89.7,52.4,85.7,35,82v11.6c11.9-4.3,26.1,6.6,32.8,15.6c1.8,2.3,3.1,5,3.8,7.8c0.2,1,0.6,3.1,0,4.1
			c-0.1,0.8-0.2,0.7-0.4-0.2c-0.8-0.2-1.5-0.5-2.2-0.8c-6.1-2.6-11.3-6.8-15.1-12.3l-9.4,7.3c7.6,6,14.7,12.6,21.3,19.7l2.7-10
			c-12.5,4.7-24.1-6-19.9-18.8l-5.8,4.4c4.7,0,8.3,8.1,11,11.2c4.9,5.8,12.7,8.3,20,6.3c7.3-1.7,14.4-6.7,19.9,1
			c5.5,7.7,8.2,18.1,11.7,26.9c2.2,5.4,9.6,5.9,11.6,0c5.8-17.3,19.7-31.2,29.4-46.4c8.6-13.5,18.2-30,10.9-46.1
			c-2.9-6.4-8.4-11.8-15.4-13.4c-8.2-2-16.3,1.8-23.7,4.9c-6.9,2.8-13.5,6.1-19.2,10.9c-6.8,5.8-8.9,13.6-13.7,20.7l11,4.6
			c1.7-9.9,10-15.3,18.7-19c9.7-4.1,20.8-8.4,31.5-7.8c5.2,0.4,10.2,1.7,14.9,3.8c2.3,1,4.6,2.1,6.8,3.2c2.1,1,5.8,2.1,7.3,3.9
			c0.3,0.3,0.4-1-0.1,0.4c-0.6,0.9-1.3,1.8-2.1,2.5c-1.6,1.9-3.2,3.8-4.8,5.7c-3.2,3.8-6.5,7.6-9.9,11.2
			c-6.5,7.2-13.5,13.8-21.1,19.8c-3.9,3-8,5.7-12.3,8.1c-1.9,1.1-3.8,2.1-5.8,3c-3,1.3-3.7,1.2-5-1.7c-4.3-9.2-7.7-21.4-6.3-31.6
			c1.3-9.3,8.1-16.8,14.7-23c15.9-14.9,36.4-23.7,58.1-25l-1.6-11.8c-9.5,3.2-19,6.2-28.5,9.5c-8.4,3-16.3,6.6-22.8,12.7
			c-5.1,4.8,1.4,12.5,7.3,9.4c18.8-9.9,38.8-17.4,59.4-22.5l-3.2-11.6C173.1,38.1,156,48.7,141,61.8l8.5,8.5
			c9.7-10.7,23.9-14.5,38-15.5c17.4-1.3,35.3,0.3,52.6,3.1l-1.4-11l-27.3,14.5c-8.3,4.4-17.9,10.5-27.8,8.8l1.4,11
			c6.7-3.3,13-7.3,18.7-12c5-4-0.5-11.2-5.9-10c-8.8,1.9-16.4,6.6-23.8,11.7c-8.5,5.8-16.9,11.6-25.3,17.4l7.3,9.4
			c11-11.5,24.5-19.9,38-28.2l-8.2-8.2c-16.9,23.6-41.2,40.9-69.1,49.2l7.4,7.4c0.9-3.5,4.4-6,7-8.3c2.9-2.7,5.9-5.3,8.9-7.8
			c6.1-5.2,12.5-10,19.1-14.5l-7.3-9.4c-9.1,8-18.4,15.8-28.1,23c-8.8,6.6-18.5,13.1-29.8,14.1l3,11.2
			c19.7-13.5,39.9-26.3,60.5-38.5l-6.1-10.4l-43.1,32.8l7.3,9.4c9-9.7,21.1-16.2,34.2-18.2l-7.4-7.4c-2.6,15.1-16.8,22.7-30.7,25.2
			c-17.2,3.1-35.9,1.6-53.2,0l1.6,11.8c13.2-2.8,26.9-3.4,40.3-1.8l-1.6-11.8c-12.7,2-25.5,2.1-38.2,0.3l1.4,11
			c23.2-11.5,47.4-23.2,73.9-23l-1.6-11.8l-32.7,6.9c-5.5,1.2-5.9,10.7,0,11.6c5.5,0.8,11.1,1.1,16.6,0.8l-1.6-11.8
			c-14.8,4.6-30.5,5.3-45.7,1.9l1.4,11c11.9-6.8,25.3-9.4,38.6-12c7.6-1.5,4.4-13-3.2-11.6c-5.5,1-11,1.5-16.6,1.3
			c-3.1-0.1-6.2-0.3-9.3-0.8c-1.2-0.3-2.4-0.6-3.6-0.7l-1.8-0.4c0.1,3.4,0.7,4.3,1.9,2.9c1.8-0.7,4-3.5,5.6-4.7c2-1.4,4-2.6,6.2-3.7
			c4.5-2.3,9.4-3.9,14.4-4.8l-4.6-11c-12.6,6.7-25.4,14.1-34.3,25.6c-3.6,4.7-9.4,12.6-7.1,18.9c3,8.3,12,4.3,17.3,1
			c13-8.4,21.7-21.8,35.6-29.2c7.4-3.9,15.4-6.6,23.2-9.4c8.5-3.1,17-6.1,25.6-8.8c9.5-3,19.1-5.5,28.9-7.3
			c8.9-1.6,18.9-2.9,27.5,0.9l-1.2-9.4c-5.3,5.6-12.2,8.8-19.1,11.9c-8.7,3.9-17.5,7.7-26.2,11.5c-8.2,3.6-16.4,7.4-24.7,10.8
			c-7.3,2.9-16.9,7.3-24.8,4.5l3.6,8.8c4.9-6.6,14.8-9.7,21.9-13.2l26.4-12.9c5.4-2.6,2.8-11.5-3-11.2c-29.3,1.5-56,14.8-78.9,32.4
			c-4,3.1-3.7,12,3,11.2c20.9-2.5,40.5-9.6,60-17.3c18.4-7.3,36.8-14.7,52.4-27.1c4.2-3.3,0.6-10.3-4.2-10.2
			c-17,0.1-33.5,5.6-47.2,15.6c-2.4,1.8-3.7,4.5-2.5,7.5c1,2.5,4.3,4.6,7.1,3.5l36-15c9.2-3.8,22.6-6.6,26.5-16.8
			c1.1-2.8-1.2-6.8-4.2-7.4c-17.5-3.2-35.1,6-50.7,12.9c-16.3,7.2-32.4,14.8-50,18l5.9,10c14.2-15.8,37.1-13.9,56.4-12.2V53.8
			c-12.6,1.6-24.6,5.6-36.7,9.2c-11.9,3.4-24.1,6.2-36.3,3.2l1.4,11.1c17.4-8.8,35.4-16.5,53.8-23c7.3-2.6,4.2-14.3-3.2-11.7L158,43
			z"/>
		<path class="st0" d="M45.3,114.1c7.7,0,7.7-12,0-12S37.6,114.1,45.3,114.1z"/>
		<path class="st0" d="M22.5,126.2c7.7,0,7.7-12,0-12S14.8,126.2,22.5,126.2z"/>
		<path class="st0" d="M25.7,123.6c7.7,0,7.7-12,0-12S18,123.6,25.7,123.6z"/>
		<path class="st0" d="M22.9,147.7c4.8,3.6,11.7,2,15.5-2.3c5-5.5,4.2-14.4,3.8-21.2c-1.1-15.5-5.5-30.6-12.9-44.2
			c-2.3-4.2-10-3.7-10.9,1.4c-2.9,17.3,0.9,35.1,11.5,49.2c2.3,3.1,8.3,4.6,10.3,0c6.6-14.8,9.8-30.8,9.4-47
			c-0.1-3.3-2.9-5.9-6.2-5.8c-2,0.1-3.8,1.1-4.9,2.8c-5.9,9.2-8.8,20-8.4,30.9c0.3,7.6,12,7.7,11.9,0l-0.4-26.7
			c-0.1-3.3-2.9-5.9-6.2-5.8c-1.5,0-2.9,0.6-4,1.6c-9,8.8-15,20.1-17.1,32.5c-1.5,9.2-2.6,28,11.2,27.7
			c12.5-0.2,17.3-16.4,16.2-26.5c-1.4-12.9-9.8-22.9-18.8-31.7c-2.4-2.3-6.2-2.2-8.5,0.2c-0.7,0.7-1.1,1.5-1.4,2.4
			c-2.8,9.4-4.4,19.2-4.6,29c-0.2,8.7-0.2,19.3,5.8,26.2c4.7,5.4,14.7,8.6,20,2.1c2.7-3.4,2.2-7.5,1.4-11.5
			c-1.1-5.5-2.3-10.9-3.5-16.4l-9.9,5.8c2.4,2.4,2.1,7.3,3.4,10.4c1.4,3.5,3.9,6.5,7.1,8.5c6.3,4,14.3,4,20.6,0
			c2.8-1.7,3.7-5.4,2-8.3c-0.2-0.4-0.5-0.7-0.8-1c-6.2-6.4-14.9-7.5-22.9-4c-3.5,1.5-3.7,6.9-1.2,9.3c7.7,7.4,17.7,10.1,28.1,8.4
			c4.3-0.7,5.9-7.2,2.6-9.9c-5.4-4.5-13.3-7.8-19-1.8c-5.4,5.6-2.5,14,4.7,16c7.2,2,16.3,0.1,23.3-1.8c7.8-2.2,15.2-5.8,21.7-10.7
			c4.1-3.1,3.6-11.8-3-11.1c-8.9,1-17.6,2.8-26.1,5.6c-5.3,1.8-6,10,0,11.4c8.5,2,16.7,0.5,25.3,0.4c6.4,0,15.9,1.8,15.3,10.1
			c-0.6,7.6,11.2,7.5,11.9,0c0.7-7.5-1-15-4.7-21.5c-2-3.7-8.3-4.1-10.3,0c-5.7,12-7.6,25.4-5.4,38.5c1.1,6.7,11.7,4.9,11.7-1.6
			c-0.1-5.7,0.4-11.3,1.3-16.9H96.4c2.1,7,2.6,14.4,1.7,21.7c-0.9,6.2,7.2,10.9,10.9,4.6c9.3-16.2,16.6-33.4,23.8-50.5l-11.4-3.2
			c-5.1,16.1-12.1,31.6-20.9,46c-4,6.5,6.2,12.5,10.3,6c11.1-17.9,24.1-34.5,38.9-49.5c7.6-7.6,15.8-14.6,23.3-22.3
			c7.5-7.7,14.2-16.2,19.9-25.3l-11.1-3c-0.9,17.8-15.4,31.1-28.9,40.9c-14.4,10.4-29.4,19.8-39.9,34.5l11.1,3
			c-0.6-8.7,1.1-16.1,4.1-24.2c3-8.1-0.5-15.7-3-23.7c-1.9-6.2-3.1-16.6-8.6-20.8c-2.7-2.1-5.9-2.3-9.2-2.3c-3.9,0-9.5,1.1-13.1-0.4
			l3.6,2.7c-0.8-1.1,3.8-6.7,4.6-7.5c2.4-2.5,5.2-4.4,8.4-5.7l-6-10.2C96.5,66,89.1,71.6,82.6,78.2c-5.4,5.4,3,13.9,8.4,8.4
			c5.8-5.9,12.4-10.9,19.7-14.8c6.8-3.8,0.8-13.3-6-10.3c-8.3,3.7-15.7,11.2-18.3,20.1c-1.3,4.5-0.5,9.4,4,11.8
			c4.4,2.3,11.1,1.2,16,1.2c0.8,0,2.3-0.3,3,0c-0.8-0.3,0,0.6,0.3,1.6c0.9,2.7,1.7,5.5,2.5,8.2c1.7,5.5,4.1,11.2,5.2,16.8
			c0.8,4.6-3,10.3-4,14.9c-1.3,5.7-1.7,11.6-1.3,17.5c0.4,6.1,7.6,7.8,11.1,3c11.1-15.4,28.6-24.3,43.1-35.9
			c14.2-11.4,26.3-26.6,27.3-45.5c0.3-6.1-8.1-7.7-11.1-3c-11.9,18.7-28.6,32-43.8,47.7c-14.5,15-27.3,31.6-38.3,49.3l10.3,6
			c9.3-15.3,16.8-31.6,22.1-48.7c2.3-7.5-8.6-10-11.4-3.2c-6.8,16.2-13.9,32.4-22.6,47.7l10.9,4.6c1.4-9.3,0.9-18.9-1.7-28
			c-1.6-5.3-10.5-6.1-11.5,0c-1.2,6.6-1.7,13.3-1.7,20.1l11.6-1.6c-1.6-10-0.1-20.2,4.2-29.4h-9.1c2.7,4.9,3.8,10.5,3.2,16h12.2
			c0.8-10.2-7.1-18.4-16.3-21.2C89.1,128,77.4,132.7,66,130v10.8c7.6-2.5,15.5-4.2,23.5-5.2l-3-11c-6,4.5-12.7,7.7-20,9.6
			c-3.5,0.9-7.1,1.5-10.7,1.7c-1.2,0.1-3.9-0.5-5,0c-2-0.5-2.2,0.9-0.4,4c0.9,0.4,1.7,0.9,2.4,1.6l2.7-9.8
			c-6.2,0.9-12.5-1.1-16.9-5.4l-1.3,9.2c3.1-1.3,6.5-0.1,8.7,2.1l1.2-9.3c-3.4,2.2-8.4,1.8-10.7-1.9c-1.3-2.1-1.3-5.1-2-7.4
			c-0.8-2.9-2.3-5.5-4.5-7.6c-4.5-4.3-11.4,0.1-10.1,5.7l2.1,9.6l0.8,3.8l0.4,1.9c-0.2,1.9,0.2,2.4,1.3,1.5c1-0.3,1.1-0.4,0.4-0.5
			c-0.6-0.1-1.1-0.4-1.5-0.7c-0.7-0.6-1.3-1.3-1.8-2.1c-1.4-2.3-1.7-5.3-1.9-7.9c-0.9-11.8,0.5-23.6,4-34.9l-10.1,2.6
			c5.8,5.5,11.8,11.5,14.5,19.1c1.1,3.1,1.6,6.4,1.2,9.7c-0.2,1.2-2.3,9.1-4,8.7c-1-0.2-0.7-7.8-0.6-9.4c0.3-3.6,1-7.2,2.1-10.6
			c2.4-7.4,6.7-14.2,12.5-19.6L29,84.3l0.4,27.3h12.1c-0.4-8.7,2-17.4,6.9-24.7l-11.3-3c0.5,14-2.2,27.9-7.9,40.7h11
			c-8.6-11.5-12.7-25.8-10.3-40L19,86c4.7,8.6,8,17.9,9.9,27.5c0.9,4.7,1.4,9.4,1.5,14.2c0,1.4,0,10.9-1.6,9.7
			C22.8,132.8,16.8,143.1,22.9,147.7L22.9,147.7z"/>
		<path class="st0" d="M73,26.1c7.4,14.8,23.8,17.8,35.8,27.4l5.8-10C103.6,39,93.1,33.4,83.1,27c-4.6-2.9-9-6-13.4-9.1
			c-4.7-3.3-9.4-6.4-15.4-5.8c-4.5,0.4-7.4,4.7-5.2,9c5,9.3,10.2,19.1,18.3,26.1c9,7.8,20.8,11.5,31.6,16.1
			c5.9,2.5,12.4-4.2,7.3-9.4C97,44.6,87.1,35.9,76.6,28c-5.8-4.4-11.3,4.6-7.3,9.4c10.4,12.5,24.8,20.4,38.9,28l3-11.2
			c-5.7,0.3-9.2-4.9-12.4-9c-3.3-4.4-7.2-8.2-11.7-11.3c-8.9-6.2-19.7-9.2-30-12.1c-4.3-1.2-8.7,3-7.4,7.4c2.1,7,6.8,12.4,11.2,18.2
			c4.1,5.4,7.8,10.8,14.3,13.5c11.7,4.8,27.1,4,36.2,13.8c5.2,5.7,13.7-2.8,8.5-8.5c-8.2-8.9-20.6-11.2-31.8-14.1
			c-2.9-0.8-6.2-1.3-8.9-2.6s-4.3-3.6-6.1-5.9c-4.1-5.3-9.8-11-11.8-17.6l-7.4,7.4c10.7,3,22.4,6,30.7,13.8S98,66.9,111.2,66.2
			c5.6-0.3,8.6-8.2,3-11.2C101,47.9,87.6,40.7,77.7,28.9l-7.3,9.4c9.7,7.3,18.9,15.4,27.4,24.1l7.3-9.5c-9.6-4.1-21.2-7.4-29.2-14.2
			C68.5,32.4,64,23.5,59.5,15.1l-5.2,9c4.9-0.5,9.9,4.6,13.7,7.2c4.4,3.1,8.9,6.1,13.6,8.9c9.5,5.7,19.5,10.7,29.8,14.8
			c5.5,2.2,10.4-6.4,5.8-10c-10.6-8.6-27.4-12.1-33.9-25C79.9,13.1,69.5,19.2,73,26.1L73,26.1z"/>
		<path class="st0" d="M63.1,19.8c14.2,0.2,26.3,8.4,37.6,16.2c5.5,3.8,10.4,7.6,14,13.3s6.1,12.2,8.4,18.6
			c2.7,7.2,14.3,4.1,11.6-3.2s-5.4-14.8-9.6-21.5c-4.4-7-10.2-12-16.9-16.7c-13.5-9.5-28-18.5-45-18.8C55.4,7.7,55.4,19.7,63.1,19.8
			z"/>
		<path class="st0" d="M72,25.5c16.9-2.5,31.8,8.2,35.8,24l10-5.8C106.3,29,91.4,16.5,73,11.4V23c7.1-2.6,14.3-2.6,21.7-2.3
			c3.2,0.1,5.9,0.4,8.6,2.3c2.6,2.1,5,4.5,7.2,7.1c9,10.1,15.7,22.1,19.6,35.1c2.3,7.4,13.9,4.2,11.6-3.2
			c-4.9-16-13.4-30.7-24.9-42.8C111,13.3,105.3,9.5,97,8.9c-9-0.6-18.6-0.6-27.2,2.6c-5.3,2-6.1,9.9,0,11.6
			c16.4,4.5,29.2,16.1,39.5,29.2c3.9,5,11.4-0.5,10-5.8C113.6,23.7,92,10.4,69.2,14C61.6,15.2,64.8,26.7,72,25.5L72,25.5z"/>
		<path class="st0" d="M55.5,17.1L78,18.7V6.7L63.8,6.6l1.6,12c3.8-0.6,7.6-1.7,11.2-3.2c5.7-2.4,5.9-12.6-1.6-12L61.8,4.5
			c-7.7,0.6-7.9,12,0,12.2c9.5,0.2,19-0.5,28.3-2c6.9-1.1,5.1-12-1.6-12L77,2.8c-7.6,0.1-7.6,11.5,0,11.8c7.3,0.3,14.5,1.1,21.7,2.3
			l1.5-11.6c-3.7-0.2-7.3-0.8-10.9-2L87.8,15c4.2-0.3,8.5,0.7,12.2,2.8l4.6-10.9c-4.5-1.4-9.1-2.2-13.8-2.6L92.4,16
			c5.4-1.4,11,1.7,15.7,4.2c5.3,2.9,8.2,8,10.7,13.3c4.8,10.2,6.7,21.4,5.5,32.6c-0.7,7.6,11.1,7.5,11.8,0
			c1.4-14.9-1.9-29.9-9.4-42.9c-3.5-6.4-9-11.6-15.6-14.7c-7-3.4-14.1-5.8-21.9-3.9c-6.8,1.7-4.8,11.1,1.6,11.7
			c3.6,0.3,7.2,1.1,10.6,2.2c6.4,2,10.4-7.6,4.6-10.9c-5.5-3.1-11.8-4.6-18.2-4.4c-6.7,0.2-8,9.6-1.6,11.6c4.5,1.4,9.2,2.3,14,2.4
			c6.6,0.3,8.2-10.5,1.6-11.6C93.6,4.1,85.3,3.2,77,2.8v11.8l11.4-0.1L86.8,1.9C78.6,3.2,70.3,3.8,62,3.5v12.9l13-1.1L73.4,2.6
			C69.8,4.2,66.1,5.3,62.3,6c-6.8,1.2-5,12.6,1.6,12.7L78,18.7c7.8,0,7.7-12.3,0-12.9L55.5,4.2C47.7,3.6,47.7,16.5,55.5,17.1z"/>
		<path class="st0" d="M63,6.5c-5.4,2.3-11.2,2.9-14.6,8.3c-2.8,4.6-2.4,10.9,2,14.4c2.9,2.3,7.4,2.5,9.4-1.2
			c1.2-2.1,0.6-4.3,1.4-6.3c0.6-1.6,3.7-3,5.3-3.6c4.8-2.1,10.3-2.9,15.5-3.4c6.2-0.7,8.8-10.3,1.6-11.8c-5-1.1-10.1-1-15,0.4
			l4.6,11c1-0.6,2.1-0.8,3.2-0.5C84,15,87.3,3.4,79.6,2.2C75.4,1.4,71,2,67.2,4c-6.2,3-1.8,12.8,4.6,11c2.8-0.9,5.8-1,8.6-0.4
			L82,2.7c-7.7,0.9-15.3,1.9-22.3,5.4c-3.3,1.5-6.2,3.7-8.5,6.5c-1,1.3-1.6,2.8-1.9,4.4c-0.2,0.9-0.3,1.9-0.2,2.8
			c0,1.5,0.1,1.6,0.3,0.3l9.4-1.2c0.3,0.2-0.9,0.3,0.4-0.2c1.2-0.5,2.2-1,3.4-1.4c2.2-0.7,4.2-1.4,6.3-2.3c3-1.3,3.6-5.6,2.2-8.2
			C69.4,5.6,66,5.3,63,6.5L63,6.5z"/>
		<path class="st0" d="M137.7,60.8L159,45.1c5-3.7,2.3-13.6-4.6-11.1c-8.9,3.1-17.2,7.6-24.7,13.2c-6,4.6-0.2,15.1,6.1,10.4
			c23.8-17.5,52.8-26.2,82.3-24.7c8,0.4,7.4-11.1,0-12.1c-9-1.2-33.1-7.8-32.1,8.8c0.1,2.7,1.8,5,4.4,5.8
			c11.1,3.3,22.6,4.5,34.1,3.5l-5.8-7.6l-2.3,5.6c-1.5,3.7,2.3,7.6,5.8,7.6c6.7,0,13.4,1.1,19.8,3.2V36.4c-6.6,1.4-13.3,2.2-20,2.4
			c-7.7,0.2-7.7,12,0,12c5.2,0,10.5,0.2,15.7,0.7c5,0.5,10.1,1.9,15.2,1.9c8.5,0,15.7-6.4,13.8-15.3c-0.7-3.4-4.3-4.7-7.4-4.2
			c-11.1,1.8-23.4,3.6-33.8-2l-3,11.2c10.2-1.1,20.6-0.6,30.7,1.3c7.5,1.5,10.7-9.6,3.2-11.6l-38.8-9.9l-3.2,11.6l35.1,5.5l1.6-11.8
			c-11-0.8-21.8-3.4-32-7.7L216,32.1c15.7,5.4,32.1,8.3,48.6,8.8c7.7,0.2,7.7-11.7,0-12c-15.5-0.5-30.8-3.3-45.4-8.4
			c-7.5-2.6-10.1,8.7-3.2,11.6c11.2,4.6,23.1,7.3,35.2,8.1c6.6,0.4,8.3-10.7,1.6-11.8l-35.1-5.4c-7.4-1.2-10.8,9.6-3.2,11.6
			l38.7,9.9l3.2-11.6c-11.1-2.3-22.6-2.9-33.9-1.8c-5.5,0.6-8.7,8.1-3,11.2c13.5,7.3,28.5,5.5,43,3.2l-7.4-4.2
			c0,0.1-13.3-1.3-14.4-1.5c-6.2-0.7-12.4-1-18.6-1v12.5c8.1-0.2,16.2-1.2,24.1-2.9c6.4-1.4,5.5-10.2,0-12
			c-7.7-2.5-15.7-3.8-23.8-3.8l6,7.9l2.4-5.8c1.5-3.6-2.3-8.2-6-7.9c-10.8,1-21.6-0.1-32-3.2l4.6,6c0.1,1.5,7.3,1.6,9.1,1.8L218,33
			V21.1c-31.6-1.6-62.8,7.7-88.4,26.3l6.1,10.4c6.6-5.1,14-9.2,21.8-12.1l-4.6-11.1l-21.3,15.7C125.4,54.9,131.4,65.4,137.7,60.8z"
			/>
		<path class="st0" d="M247.6,54.1c-17.6,4.8-36,5-53.8,8.8c-7.6,1.6-4.4,13.2,3.2,11.6c17.8-3.8,36.2-4,53.8-8.8
			C258.2,63.6,255.1,52,247.6,54.1z"/>
		<path class="st0" d="M19.2,86.3c-7.3,10.8-9.4,24.9-12.6,37.3h11.6c-2.3-6.6,0-13.2,1.8-19.7c1.9-7,3.5-14,4.9-21
			c0.9-4.6-4.2-10.2-8.8-6.8s-7,7.8-9.2,13.2c-2.4,5.8-4.6,11.6-5.4,17.8C0,118,2.3,131.5,9.3,140.1c4.9,6,13.3-2.6,8.5-8.5
			c-4.4-5.4-5.3-16.2-4.5-22.8c0.7-4.2,1.8-8.2,3.5-12.1c1.2-3.2,2.5-8,5.4-10.1l-8.8-6.8c-1.7,8.3-3.7,16.5-5.9,24.7
			c-2,7.4-3.4,15-0.8,22.4c1.9,5.3,10,6,11.6,0c3-11.4,4.7-24.6,11.4-34.5C33.9,86,23.6,80,19.2,86.3z"/>
		<path class="st0" d="M108.4,159.9c-3.6,6.1-6.6,12.5-9.1,19.1c-1.3,3.3-2.4,6.7-3.3,10.2c-0.3,1.3-0.6,2.6-1,3.8
			c-0.7,2.2-1.3,1.6,0.4,2.4l1.2,9.4c9.1-11.2,7.8-27.8,8.4-41.4c0.7-16.7,0.7-33.4,0-50.2c-0.3-7.7-12.3-7.7-12,0
			c0.5,14.8,0.6,29.5,0.2,44.3c-0.2,7.2-0.6,14.4-1,21.6c-0.4,5.6-0.3,12.5-4,17.1c-2.2,2.7-2.6,7.7,1.2,9.4
			c9,4.1,15.4-2.6,17.6-10.9c2.6-10.1,6.6-19.8,11.9-28.8C122.7,159.2,112.4,153.2,108.4,159.9L108.4,159.9z"/>
		<path class="st0" d="M88.4,137.9c0.7,10.9,1.6,21.7,2.2,32.6c0.6,11.1-1.8,21.1-4.9,31.7c-2.2,7.4,9.4,10.6,11.6,3.2
			c3.1-10.9,5.8-21.7,5.4-33s-1.5-23-2.3-34.4C99.9,130.3,87.9,130.3,88.4,137.9L88.4,137.9z"/>
		<path class="st0" d="M8.7,135.1c6.8,7.7,14.6,14.4,23.3,19.9c4.8,3.1,9.7,6,14.6,8.9c4.8,2.8,9.8,6.7,15,8.4
			c8.7,2.8,17.4-6.6,22.1-12.9c5.5-7.4,8.7-16.3,9.1-25.6c0.4-6.9-9.9-7.9-11.8-1.6c-1.3,4.2-4.6,7.6-7.6,10.7
			c-2.7,2.9-5.8,5.9-9.8,7c-8.7,2.3-17.5-5-23.9-9.9l-3,11.2c12.1,1.5,24.2,2.3,36.4,2.4c6.1,0,7.9-8,3-11.2
			c-4.8-3.1-10.8-3.8-16.1-1.8c-2.1,0.8-4,3.1-6,3.7c-2.5,0.6-6.5-1.2-9-1.8c-11.2-2.9-22.9-7-29-17.5c-2.7-4.6-9.4-3.4-11,1.4
			c-1.3,3.9-0.8,8.2,1.2,11.8c3.1,6.1,12.8,1.9,11-4.6L14,122.1c-1.8-6.2-12.5-5.4-11.8,1.6c1,9.9,3,20.7,12.5,25.9
			c4.9,2.7,10.6,3.7,15.8,5.5c6,2.2,11.8,5,17.2,8.3c6.6,4,12.7-6.4,6.1-10.4c-8.4-5-17.4-9-26.9-11.7c-4-1.2-7.9-2.1-10.1-6.1
			c-1.9-3.5-2.3-7.8-2.7-11.6l-11.8,1.6l3.3,11.4l11-4.6c-0.5-0.8-0.5-1.8,0-2.6l-11,1.4c6.4,11,17.5,17.4,29.4,21.1
			c5.8,1.8,13,4.6,19.2,4.2c6-0.3,10-7.4,15.8-3.6l3-11.2c-12.2-0.1-24.3-0.8-36.4-2.4c-6.7-0.8-7,8.1-3,11.2
			c9.7,7.5,21.9,15,34.6,10.7c10.3-3.5,21.1-15.2,24.3-25.6l-11.8-1.6c-0.4,6.9-2.8,13.4-7,18.9c-2,2.8-4.5,5.1-7.4,7
			c-2,1.2-0.5,1.3-2.7,0.2c-2-1-4-2.3-6-3.5c-14.9-8.6-29.1-17-40.6-30C12.1,120.7,3.6,129.3,8.7,135.1L8.7,135.1z"/>
		<path class="st0" d="M4,136.8c15.4,15.9,39.6,36.4,63.5,28.9c7.3-2.3,4.2-13.9-3.2-11.6c-10.1,3.2-19.6-1-28.1-6.3
			c-8.7-5.5-16.6-12.1-23.7-19.5C7.1,122.8-1.4,131.3,4,136.8L4,136.8z"/>
		<path class="st0" d="M25,71.7c-10.9-0.9-16.3,9-18.9,18h11.5c-0.6-3,1.4-4.9,3.9-6.1l-7.2-9.3l-0.6,0.6l4.2-1.7L17.1,73l4.2,1.7
			L20.6,74l1.7,4.2c0,0.7,2-2.7,2.1-2.8l3.1-4.7H17.3c3.3,4.4,7.4,5.8,12.8,6.4c4.9,0.6,9.7,2,14.1,4.3c9.4,4.8,18.3,11.1,29,12.7
			l1.6-11.6c-15.6-1.1-28.4-12.2-44.5-11.6c-4.7,0.2-7.1,4.8-5.1,8.9c7.7,16.1,31.8,15.1,46.7,15c5.6,0,8.4-8.3,3-11L52.1,72.3
			c-7-3.5-12,5.7-6,10.2c4.1,3.1,8.8,5.5,13.8,6.8c1.6,0.4,9.9,0.9,10.5,2.6l7.3-7.3c-8.3-1.4-17-2.7-24.5-6.6
			c-6.3-3.2-11.7-8.1-18.4-10.5c-7.4-2.7-15.9-2.2-18.4,6.4c-2.4,8.1-3.2,17-3.9,25.4c-0.6,8-1.2,16.7,0.6,24.6s7.4,12.9,14.5,16
			c7.3,3,14.9,4.8,22.7,5.6c6.5,0.7,14.8,0.5,17.9-6.5c1.6-3.5,0.4-7.5-3.5-8.7c-7.4-2.3-15.2-3.1-22.9-2.5
			c-5.4,0.5-13,4.9-8.6,11.4c4.3,6.3,14.5,0.3,10.2-6l-0.4-0.6v6.5c0,0-1.5,1.3-0.1,1c0.9-0.1,1.8-0.1,2.7-0.1c1.8,0,3.7,0,5.5,0.1
			c3.7,0.3,7.3,1.1,10.9,2.2l-3.6-8.8c-1.2,2.8-11.6,0.1-14-0.4c-5.2-1.1-11.5-2.4-15.9-5.6c-4.9-3.7-4.6-10.3-4.6-15.8
			c0-6.6,0.4-13.1,1.2-19.7c0.4-3.2,0.9-6.4,1.6-9.5c0.1-0.7,1.2-3.8,1-4.6c0.6-1.3,0.1-1.4-1.5-0.1h1.5c5.2,1.5,9.3,3.9,13.8,6.9
			C51.7,91.4,63.1,94,75.1,96c4.2,0.7,9-2.6,7.4-7.4c-1.9-5.7-6.5-8.5-12.3-9.7c-6.7-1.5-12.2-2.8-17.8-7l-6,10.4l23.1,11.5l3-11.2
			c-7.6,0.1-15.5,0-23.1-1.2c-5.6-0.9-11.3-2.6-13.8-8l-5.2,9c15.8-0.6,29.3,10.6,45,11.7c6.7,0.5,8.3-10.8,1.6-11.8
			c-9.4-1.3-17-6.6-25.2-10.9c-3.9-2.2-8.1-3.9-12.4-5.2c-2.2-0.6-4.4-1-6.7-1.3c-1-0.1-4.5,0-5.2-0.8c-2.8-3.6-7.7-4-10.4,0
			c-2.9,4.3-8.8,10.4-6.4,16c1.6,3.7,5.8,5.4,9.5,3.8c0.9-0.4,1.7-0.9,2.4-1.6c5.1-5.1-1.3-12.1-7.3-9.4C7.8,76.4,4.4,84.8,6,92.7
			c1.2,6.1,10,5.3,11.6,0c1.2-3.9,2.5-9.8,7.5-9.4c7.7,0.7,0-11.7,0-11.7H25z"/>
		<path class="st0" d="M169.6,99.6c1.3,2.1,1.7,4.6,0.1,6.7l10,5.8c1.1-2.7,2.6-5.2,4.5-7.3l-10-5.8c-3.8,12.5-12.8,22.8-24.8,28.2
			c-4.8,2.2-3.3,9.8,1.4,11c4.4,1.1,8.8,0.1,11.6-3.5c4.3-5.3-0.9-12.4-7.3-9.4c-18.7,9-34.1,23.5-44.2,41.5l10.4,6.1
			c0.5-1.1,1.5-2,2.7-2.3l-8.8-6.8c-6.6,15.6-17,29.3-30.3,39.9c-6,4.9,2.5,13.3,8.5,8.5c14.7-12,26.2-27.5,33.3-45.1
			c2.3-5.5-4.7-8.6-8.8-6.8c-3,1.3-5.5,3.6-7,6.6c-3.6,6.8,6.6,12.8,10.4,6.1c9.1-16.2,23.1-29.2,39.9-37.2l-7.3-9.4v0.4l1.4,11
			c14.6-6.9,25.7-19.8,30.3-35.3c1.7-5.5-6.1-10.5-10-5.8c-3.2,3.7-5.8,8-7.6,12.6c-2.2,5.5,6.4,10.4,10,5.8
			c5-6.3,6.1-14.2,1.8-21.3C175.9,87,165.5,93,169.6,99.6z"/>
		<path class="st0" d="M259.1,39.7l-15.8,13.2l9.4,7.3c3.7-6.8,11-19.2,3.4-25.6c-6.8-5.7-18.2-7.6-26.8-8.1
			c-16.6-1-40.3,5.3-43,24.7c-0.4,3.2,0.8,6.4,4.2,7.4c2.8,0.8,6.9-1,7.4-4.2c1.7-12.4,16.5-15.8,27.1-16c6.1-0.1,12.2,0.9,18,3
			c1.1,0.4,3.1,1.8,4.1,1.7c1.1,0.7,1.2,0.4,0.3-1l-0.5,1.7c-1.8,3.2-2.7,7-4.5,10.3c-3.4,6.2,4.3,11.6,9.4,7.3l15.8-13.2
			C273.6,43.2,265.1,34.7,259.1,39.7L259.1,39.7z"/>
		<path class="st0" d="M51,79.4c-6.2-6.7-13.7-12-22.1-15.6c-2.8-1.2-5.8-1-7.7,1.6c-1.7,2.2-1.9,6,0.5,7.9c3.6,2.9,6,7.1,6.4,11.7
			c0.4,3.2,4.5,4.9,7.4,4.2c3.5-0.9,4.6-4.2,4.2-7.4c-0.9-6.7-4.3-12.7-9.5-17l-7.3,9.4C30.3,77.3,37,82,42.5,87.9
			C47.8,93.6,56.3,85.1,51,79.4L51,79.4z"/>
		<path class="st0" d="M203.3,74.1c-1.3,7.1-1.9,14.4-1.8,21.6h12c0-2.9-0.9-5.7-2.6-8c-3-4.2-9.3-3.7-11,1.4
			c-3.9,11.8,10.2,15,12.5,24.7l8.8-6.8c-2.8-1.6-6.8-4.6-7-8.1l-1.8,4.2c-4.4-1.3-5.9-0.9-4.6,1c0.4,0.8,0.9,1.6,1.3,2.3
			c0.6,1.1,1.1,2.1,1.6,3.2c1.5,2.9,2.9,5.9,4.2,8.9c2.5,5.8,4.7,11.7,6.6,17.8c2.3,7.3,13.9,4.2,11.6-3.2c-2.3-7.3-5-14.4-8.1-21.3
			c-2.6-5.8-5.8-16.3-12-19.1c-6.8-3.1-12.1,3.6-10.3,10s6.7,11.6,12.4,14.8c2.9,1.6,6.6,0.5,8.2-2.4c0.7-1.3,0.9-2.9,0.6-4.4
			c-0.9-4-2.8-7.6-5.5-10.7c-1.5-1.7-7.8-5.2-7-7.6l-11,1.4c0.6,0.5,0.9,1.2,0.9,1.9c0.4,7.7,12.1,7.8,12,0
			c-0.2-6.2,0.3-12.3,1.4-18.4C216.1,69.8,204.5,66.5,203.3,74.1L203.3,74.1z"/>
		<path class="st0" d="M206.4,80.2c0.1,9.3,3.5,17.2,9.5,24.3c2.8,3.3,5.8,6.3,7.6,10.2s2.6,8.5,3.5,12.7c1.6,7.6,13.1,4.4,11.6-3.2
			c-1.7-8.1-3.8-15.7-9-22.3c-5.5-7-11-12.3-11.1-21.8C218.4,72.5,206.4,72.4,206.4,80.2L206.4,80.2z"/>
		<path class="st0" d="M205.7,73.4c1.8,7.7,4.8,15,8.9,21.7c3.4,5.6,13.2,2,11-4.6l-3.5-10.4l-11.6,3.2c3.3,9.4,11,16,14.8,25.2
			c4,9.8,5.6,20.7,8,30.9c1.7,7.5,13.3,4.3,11.6-3.2c-2.4-10.3-4.2-21-8-30.9c-1.7-4.4-3.9-8.6-6.7-12.4c-3-4.1-6.4-8-8.1-12.8
			c-2.5-7.3-14-4.2-11.6,3.2l3.5,10.4l11-4.6c-3.6-5.8-6.2-12.2-7.7-18.8C215.6,62.7,204,65.9,205.7,73.4L205.7,73.4z"/>
		<path class="st0" d="M250,49.2c-1.6,2.8-5,3.8-7.8,5c-3.2,1.3-6.1,3.1-8.8,5.3c-3.3,2.7-6.7,3.6-10.7,4.7
			c-3.4,0.9-9.1,3.7-12.5,1.8c-6.8-3.7-12.9,6.7-6.1,10.4c5.4,2.9,10.8,2.3,16.5,0.8c5.5-1.4,11.6-2.6,16.5-5.6
			c2.1-1.3,3.8-3.1,5.8-4.4c2.1-1.2,4.2-2.3,6.5-3.1c4.5-2,8.4-4.4,10.9-8.8C264.1,48.4,253.7,42.4,250,49.2L250,49.2z"/>
		<path class="st0" d="M258,43.7c-1.4,3.7-8.3,4.8-11.5,5.5c-5.4,1.1-11,1.6-16.5,1.6c-11,0.2-22.1-0.6-33.1-0.1
			c-7.7,0.4-7.7,12.4,0,12c14-0.7,28.1,0.9,42.2-0.4c11.3-1.1,26-3.3,30.4-15.4C272.1,39.6,260.5,36.5,258,43.7L258,43.7z"/>
		<path class="st0" d="M242.4,140.2c-1.2-4.8-4.3-9-8.6-11.6c-2.9-1.6-6.5-0.7-8.2,2.1c-1.6,2.9-0.7,6.5,2.1,8.2l0.8,0.5
			c-1-0.7-0.1-0.1,0.1,0.1s0.5,0.4,0.7,0.7s0.7,1.1,0.1,0.1c0.3,0.6,0.7,1.1,1,1.7c-0.4-0.7-0.2-0.5,0,0.1c0.1,0.4,0.2,0.8,0.3,1.2
			c0.9,3.2,4.2,5,7.4,4.2C241.3,146.7,243.2,143.4,242.4,140.2L242.4,140.2z"/>
		<path class="st0" d="M55.5,9.8l-7.7-2.2l2,7.5c0.3-0.3,0.7-0.9,1-0.8c-0.4,0.3-0.9,0.3-1.3,0.1c-0.5-0.1-0.9-0.5-1.1-0.9
			c-0.5-1.6-0.2-2.8,0.8-3.6l-0.8,0.4c-0.7,0.3-1.3,0.8-1.9,1.3c-2.3,2.2-2.4,5.8-0.1,8.1c0.6,0.7,1.4,1.2,2.3,1.4
			c2.3,0.8,4.9-0.9,5.5-3.1c0.6-2.4-0.8-4.8-3.1-5.5l-0.3-0.1l2,1.2L53,14l0.6,2.3c0-0.5-0.1-0.4-0.2,0.4c-0.1,0.7-0.4,1.2-1,1.6
			c0.3-0.1,0.5-0.2,0.8-0.4c1-0.5,1.9-1.2,2.5-2.1c1.5-2.1,1.5-4.9,0-7.1c-1.3-2-3.6-3.2-6.1-3.1c-2.5,0.2-4.8,1.4-6.4,3.2
			c-1.7,1.8-1.7,4.7,0.1,6.4c0.5,0.5,1.2,0.9,1.9,1.1l7.7,2.1c5.6,1.6,8-7.1,2.4-8.7L55.5,9.8z"/>
		<path class="st0" d="M260.9,46.2c3.1-1.6,6.5-2.6,10-2.9l-3.9-6.8c-0.5,0.7-1.2,2.2-2,2.6l2.3-0.6c-0.9,0-2.4-1-3.2-1.3l-3.7-1.5
			c-2.2-0.9-4.9,1-5.5,3.1c-0.7,2.6,0.9,4.6,3.1,5.5c2.8,1.2,6.2,3.3,9.3,3.2c3.6-0.2,5.5-3.9,7.5-6.5s-0.7-7-3.9-6.8
			c-5.1,0.4-10,1.8-14.6,4.1C251.1,41,255.7,48.8,260.9,46.2L260.9,46.2z"/>
		<path class="st0" d="M257.9,44.3c5.7-0.2,10.6-3.9,12.6-9.2c1.7-4.1-4.8-7.8-7.5-4.4c-2.5,3-6.2,8.4-10.8,7.7
			c-5.7-0.9-8.1,7.7-2.4,8.7c8.5,1.4,14.5-3.7,19.6-10l-7.5-4.4c-0.7,1.5-2.2,2.5-3.9,2.6C252.1,35.7,252.1,44.7,257.9,44.3
			L257.9,44.3z"/>
		<path class="st0" d="M256.4,43c4.4-2.5,9-4.5,13.7-6.2c3.5-1.2,4.6-6.2,1.1-8.2c-4.9-2.8-11-2.2-15.2,1.6c-4.4,3.7,2,10.1,6.4,6.4
			c1.2-1,3-1,4.3-0.2l1.1-8.2c-5.5,1.9-10.8,4.3-15.9,7.1C246.8,38,251.3,45.8,256.4,43L256.4,43z"/>
		<path class="st0" d="M83.6,209.2c0.7,2.4-0.2,5.1-2.2,6.6c-1.2,1.2-1.2,3.1,0,4.2c1.2,1.1,3.1,1.1,4.2,0c3.6-3.1,5-7.9,3.8-12.4
			C88.3,203.9,82.5,205.4,83.6,209.2L83.6,209.2z"/>
		<path class="st0" d="M96.1,210.7c3.9,0,3.9-6,0-6S92.2,210.7,96.1,210.7z"/>
		<path class="st0" d="M94.6,204.7c-4.1,2.5-7.7,5.6-10.9,9.2c-2.6,2.9,1.7,7.1,4.2,4.2c2.8-3.2,6.1-5.9,9.7-8.2
			C100.9,207.8,97.9,202.6,94.6,204.7L94.6,204.7z"/>
		<path class="st0" d="M233,134.8c2.5,5.6,3.6,11.7,3.5,17.8c-0.1,4,5.9,3.9,6.2,0l1-14h-6.2c0.3,7.4,0.4,14.8,0.2,22.2
			c-0.1,4,6.1,4,6.2,0c0.2-7.4,0.1-14.8-0.2-22.2c-0.2-4-5.9-4-6.2,0l-1,14h6.2c0.1-7.2-1.3-14.4-4.3-21
			C236.7,128.1,231.4,131.2,233,134.8L233,134.8z"/>
		<path class="st0" d="M222.9,129l-0.3,1.5l5.5,0.7c-0.4-1.3-0.6-2.7-0.6-4.1c0.1-3.3-5.1-4.1-5.9-0.8c-0.6,2.4-0.8,4.9-0.6,7.3
			c0.3,3.8,6,3.9,6,0v-7.8c0-3.3-5.4-4.2-5.9-0.8c-0.4,2.9,0.1,5.8,1.6,8.3c1.2,2.4,3.7,5.2,3.2,8.1l5-1.3c-0.7-0.3-1-1-0.7-1.7
			c0,0,0,0,0,0c1.6-3.5-3.6-6.6-5.2-3c-1.4,3.2-1.1,6.6,1.7,9c1.6,1.3,4.5,1.1,5-1.3c0.5-2.8,0-5.8-1.4-8.3
			c-1.2-2.4-3.8-5.3-3.3-8.1l-5.9-0.8v7.8h6c-0.2-1.9,0-3.8,0.4-5.7l-5.9-0.8c-0.1,1.9,0.2,3.8,0.8,5.7c0.4,1.6,2.1,2.5,3.7,2.1
			c0.8-0.2,1.4-0.7,1.8-1.4c1.1-1.8,1.4-4,0.9-6.1C227.9,123.7,222.2,125.3,222.9,129L222.9,129z"/>
		<path class="st0" d="M226,138.6v7c0,3.9,6,3.9,6,0v-7C232,134.7,226,134.7,226,138.6z"/>
		<path class="st0" d="M193.5,76.7c-2.1,0.8-3,2.7-3.1,4.9c0,1.3,0.6,3.4-0.4,4.4c-1.3,1.2-2.5-0.4-2-1.7c0.6-1.8-2.3-2.6-2.9-0.8
			c-0.8,2.3,0.3,4.7,2.6,5.6c0.8,0.3,1.8,0.3,2.6,0.1c1.7-0.5,2.9-1.9,3.1-3.7c0.2-1.3-0.8-5.3,0.9-5.9
			C196.1,78.9,195.3,76,193.5,76.7L193.5,76.7z"/>
		<path class="st0" d="M197.2,75.7c-2.5,0.7-4.6,2.3-6,4.4c-1,1.4,1.2,3,2.4,1.8l7.9-7.9c0.6-0.6,0.5-1.6-0.1-2.1
			c-0.6-0.5-1.5-0.5-2,0l-7.9,7.9l2.4,1.8c1-1.5,2.5-2.5,4.2-3C199.9,78.1,199.1,75.2,197.2,75.7L197.2,75.7z"/>
		<path class="st0" d="M197,76.3c-0.6,1-1.2,1.9-2,2.8c-0.4,0.4-0.8,0.8-1.2,1.2l-0.8,0.6c-0.6,0.1-0.7,0.3-0.4,0.6
			c0.1,0.4,0.2,0.3,0.3-0.1c0-0.2,0.1-0.5,0.3-0.7c0.3-0.5,0.6-1,1-1.5c0.8-0.8,1.7-1.4,2.8-1.8l-2.1-2.1l-4.1,5.8
			c-1,1.4,1.3,3.1,2.4,1.8c2.9-3.5,5.9-6.9,9-10.3c1.3-1.4-0.8-3.5-2.1-2.1c-3.1,3.3-6.1,6.8-9,10.3l2.4,1.8l4.1-5.8
			c1-1.4-0.8-2.6-2.1-2.1c-2.5,1.1-7.6,5.6-5.1,8.7c2.8,3.5,8.1-3.6,9.3-5.7C200.5,76.1,197.9,74.6,197,76.3L197,76.3z"/>
		<path class="st0" d="M110,62.7c12.4,3.3,24.8,6.1,37.4,8.5c1.3,0.3,2.8-1.5,1.5-2.5c-10.2-8.2-19.6-17.6-32.2-22
			c-1.8-0.6-2.6,2.3-0.8,2.9c12.1,4.2,21.1,13.5,30.9,21.3l1.5-2.5c-12.5-2.4-25-5.3-37.4-8.5c-0.8-0.2-1.6,0.3-1.8,1.1
			C108.8,61.6,109.2,62.4,110,62.7L110,62.7z"/>
		<path class="st0" d="M113,48.7c6.6,5.9,11.2,13.9,12.9,22.6l2.5-1.5c-10.4-9-19.8-19.1-27.9-30.2c-1.1-1.5-3.7-0.1-2.6,1.5
			c6.7,9.7,14.6,18.6,23.5,26.3c0.6,0.6,1.6,0.5,2.1-0.1c0.3-0.4,0.5-0.9,0.3-1.4c-1.8-10.6-6.4-20.5-13.3-28.8
			c-1.1-1.3-3.3,0.4-2.4,1.8l15.2,22.5l2.4-1.8c-4.7-4.8-9.9-9.2-15.5-13c-1.4-1-3.2,1.3-1.8,2.4c7.2,5.7,13.9,12.1,19.8,19.2
			c1.2,1.5,3.3-0.6,2.1-2.1c-5.4-6.6-11.9-12.3-19.3-16.8l-1.5,2.6l21.2,12.1c0.7,0.4,1.6,0.1,2-0.6c0.4-0.7,0.1-1.6-0.5-2L108,46.5
			c-1.7-1-3.1,1.5-1.5,2.6c8.4,5.6,16.5,11.5,24.4,17.9c0.6,0.6,1.5,0.6,2.1,0c0.6-0.6,0.6-1.5,0-2.1c-5.7-7.3-13-13.2-21.2-17.4
			l-1.2,2.7c8.5,3.3,16.7,7.2,24.6,11.7c0.7,0.4,1.6,0.1,2.1-0.6c0.2-0.5,0.2-1,0-1.5c-3.8-6.2-9.3-11.3-15.8-14.5l-0.8,2.8
			c6,0.8,11.7,3.4,16.2,7.5l2.1-2.1c-5.8-4.5-12.5-7.8-19.6-9.5c-0.8-0.2-1.6,0.3-1.8,1.1c-0.1,0.6,0.1,1.3,0.7,1.6
			c6.1,4.5,11.5,9.8,16,15.9c0.4,0.7,1.3,1,2.1,0.6s1-1.3,0.6-2.1l0,0c-2.6-5.7-7.1-10.3-12.7-13.1c-1.4-0.7-3.2,1.2-1.8,2.4
			c5.6,4.9,10.9,10,16,15.5c0.6,0.6,1.6,0.5,2.1-0.1c0.4-0.5,0.5-1.2,0.2-1.7c-6.1-9.8-14.5-18-24.4-23.9l-1.5,2.6
			c10.5,4.5,20.1,11.1,28,19.3l2.1-2.1c-10.1-9.2-22.1-15.7-34.3-21.6c-0.7-0.4-1.6-0.1-2,0.6c-0.4,0.7-0.1,1.6,0.5,2l46.2,31.3
			c1.2,0.8,2.4-0.5,2.2-1.7c-0.6-3.6-2-7-4.1-10l-1.7,2.2c10.8,4.3,21.9,7.9,33.2,10.8c1.6,0.4,2.8-2,1.2-2.7l-37.4-17
			c-1.5-0.7-3.1,1.1-1.8,2.4c5.1,5,12.4,13.3,6.1,20.3c-4.9,5.5-12.6,9.8-18.5,14.2l-35.7,26.7l1.8,2.4l36.5-42.9
			c1.2-1.4-0.7-3.5-2.1-2.1l-75.4,74.2l2.1,2.1c13.8-16.6,29.8-31.3,47.7-43.5l-1.8-2.4l-22.9,18.4l2.3,1.8
			c3.3-7.6,10.3-12.3,16.7-17.1c6.8-5.1,13.7-10,20.8-14.7c13.8-9.3,27.9-18.2,42.1-27c0.7-0.5,0.8-1.4,0.4-2.1
			c-0.4-0.6-1.2-0.8-1.9-0.5l-63.2,27.7l1.5,2.6c39.3-24.1,82.7-40.1,125.8-55.8l-1.1-2.7c-20.4,10.4-39.1,23.9-55.3,40.1
			c-0.6,0.6-0.5,1.6,0.1,2.1c0.6,0.5,1.5,0.5,2,0c16-16,34.5-29.4,54.7-39.7c1.5-0.8,0.4-3.3-1.2-2.7c-43.4,15.8-87,31.9-126.5,56.1
			c-1.7,1-0.2,3.3,1.5,2.6l63.2-27.7l-1.5-2.6c-15.2,9.5-30.4,19-45.2,29.1c-7.3,5-14.4,10.1-21.4,15.4c-5.6,4.3-11.1,8.7-14,15.3
			c-0.4,0.7-0.1,1.6,0.6,2c0.6,0.3,1.3,0.2,1.7-0.2l22.9-18.3c1.3-1.1-0.4-3.3-1.8-2.4c-18.1,12.4-34.3,27.2-48.3,44
			c-1.2,1.5,0.7,3.5,2.1,2.1l75.4-74.2l-2.1-2.1l-36.5,42.9c-1,1.2,0.4,3.4,1.8,2.4l46.8-35.1c4.9-3.7,11.2-7.3,11.4-14.2
			c0.1-6.6-5.1-12.4-9.5-16.7l-1.8,2.4l37.4,17.1l1.2-2.7c-11.3-2.9-22.4-6.5-33.2-10.8c-0.8-0.2-1.6,0.3-1.8,1.1
			c-0.1,0.4,0,0.8,0.1,1.1c1.9,2.8,3.2,5.9,3.8,9.2l2.2-1.7l-46.2-31.3l-1.5,2.6c12,5.8,23.8,12.1,33.7,21.1
			c0.6,0.6,1.6,0.5,2.1-0.1c0.5-0.6,0.5-1.5,0-2c-8.1-8.5-17.8-15.2-28.6-19.8c-1.7-0.7-3.2,1.6-1.5,2.6
			c9.5,5.6,17.6,13.4,23.4,22.8l2.4-1.8c-5.1-5.4-10.4-10.6-16-15.5l-1.8,2.4c5.1,2.6,9.2,6.8,11.6,12l2.5-1.5
			c-4.8-6.5-10.6-12.2-17.1-17l-1.2,2.7c6.6,1.6,12.9,4.5,18.3,8.7c1.5,1.2,3.6-0.8,2.1-2.1c-5.1-4.6-11.5-7.5-18.3-8.3
			c-1.5-0.2-2,2.2-0.8,2.8c6.1,3,11.2,7.7,14.8,13.5l2.1-2c-8.1-4.6-16.6-8.6-25.3-12c-1.6-0.6-2.7,2-1.2,2.7c8,4.1,15,9.9,20.6,17
			l2.2-2.2c-8-6.5-16.3-12.6-25-18.3l-1.5,2.6l24.3,15.1l1.5-2.6l-21.2-12.1c-0.7-0.4-1.6-0.1-2,0.6c-0.4,0.7-0.1,1.6,0.5,2
			c7.1,4.3,13.4,9.8,18.7,16.3l2.1-2.1c-5.9-7.1-12.5-13.5-19.8-19.2l-1.8,2.4c5.3,3.7,10.3,7.9,14.9,12.5c1.2,1.2,3.3-0.4,2.4-1.8
			l-15.2-22.5l-2.4,1.8c6.5,7.9,10.9,17.4,12.5,27.5l2.5-1.5c-8.7-7.6-16.5-16.2-23-25.7l-2.6,1.5c8.2,11.3,17.7,21.7,28.3,30.8
			c0.6,0.6,1.6,0.6,2.1,0c0.4-0.4,0.5-0.9,0.4-1.4c-1.8-9.3-6.6-17.7-13.7-24C113.7,45.3,111.5,47.4,113,48.7L113,48.7z"/>
		<path class="st0" d="M225.4,130.7c-0.5,7.1-0.1,14.2,1,21.3c0.4,2.4,4.7,0.5,2-2.3c-4.4-4.7-4.5-11.9-0.7-17.2
			C230.2,128.8,225.6,128.3,225.4,130.7L225.4,130.7z"/>
		<path class="st0" d="M223.9,144.7c1.3,2.2,2.4,4.4,3.2,6.8c0.3,0.8,1.1,1.3,2,1c0.5-0.2,0.9-0.5,1-1c1-3.3,1.2-6.7,0.7-10.1
			c-0.3-2-3.3-1.1-3,0.8c0.4,2.8,0.2,5.7-0.7,8.5h3c-0.9-2.6-2.1-5.2-3.5-7.6C225.6,141.4,222.9,143,223.9,144.7L223.9,144.7z"/>
		<path class="st0" d="M238.8,163.7l0.2,4.1c0,0.8,0.7,1.5,1.6,1.5c0.6,0,1.2-0.4,1.4-1.1c0.8-2.9,0.8-5.9,0.1-8.8
			c-0.2-0.8-1.1-1.3-1.9-1c-0.2,0.1-0.5,0.2-0.6,0.4c-1.4,1.5-2.7,4.9-0.4,6.3c2.1,1.2,3.8-1.7,1.9-3.2c-1.5-1.2-3,1.4-1.5,2.6
			l0.2,0.1l-0.7-1.3v-0.3l0.9-0.7l-0.3,0.1l1.2,0.1c0.2-0.6,0.5-1.1,0.9-1.6l-2.5-0.7c0.6,2.4,0.5,4.9-0.1,7.2l2.9,0.4l-0.2-4.1
			C241.7,161.7,238.7,161.7,238.8,163.7L238.8,163.7z"/>
		<path class="st0" d="M225.9,148.1l-0.2,7.8c0,0.8,0.7,1.5,1.6,1.5c0.6,0,1.2-0.4,1.4-1.1c1.5-6.7,1.8-13.5,0.7-20.3
			c-0.2-1.4-2.1-1.3-2.7-0.4c-2.1,2.7-2.7,6.3-1.7,9.6c0.2,0.8,1.1,1.2,1.9,1c0.8-0.2,1.2-1,1-1.8c-0.8-2.5-0.3-5.2,1.4-7.3
			l-2.7-0.4c1,6.2,0.7,12.6-0.7,18.7l2.9,0.4l0.2-7.8C229,146.1,226,146.1,225.9,148.1L225.9,148.1z"/>
		<path class="st0" d="M78,228.5c15.4-9.9,21.8-25.9,29.5-41.8c0.6-1.3-1.3-2.4-1.9-1.1c-7.5,15.4-13.6,31.3-28.7,41
			C75.7,227.3,76.8,229.3,78,228.5L78,228.5z"/>
		<path class="st0" d="M225.4,132.5l-2.2-13.8l-2.2,0.6c3.3,8.1,5.6,16.6,6.8,25.3c0.2,1.4,2.4,0.8,2.2-0.6
			c-1.2-8.7-3.5-17.1-6.8-25.3c-0.2-0.6-0.9-0.9-1.5-0.7c-0.5,0.2-0.8,0.7-0.7,1.3l2.2,13.8C223.4,134.6,225.6,133.9,225.4,132.5
			L225.4,132.5z"/>
		<path class="st0" d="M229.3,163.8c0.6-0.1,1.1-0.6,1-1.2c-0.1-0.5-0.5-1-1-1c-0.6,0.1-1.1,0.6-1,1.2
			C228.3,163.3,228.8,163.7,229.3,163.8z"/>
		<path class="st0" d="M230.5,164.2l6.4-36.8c0.3-1.4-1.9-2-2.2-0.6l-6.4,36.8C228.1,165.1,230.3,165.6,230.5,164.2L230.5,164.2z"/>
	</g>
</g>
</svg>
